<ttFont>
<head>
    <!-- Most of this table will be recalculated by the compiler -->
    <tableVersion value="1.0"/>
    <fontRevision value="1.301"/>
    <checkSumAdjustment value="0xf5ff985a"/>
    <magicNumber value="0x5f0f3cf5"/>
    <flags value="00000000 00001011"/>
    <unitsPerEm value="1000"/>
    <created value="Tue Oct  2 22:59:00 2007"/>
    <modified value="Thu Mar  6 18:35:44 2014"/>
    <xMin value="-108"/>
    <yMin value="-310"/>
    <xMax value="809"/>
    <yMax value="1105"/>
    <macStyle value="00000000 00000010"/>
    <lowestRecPPEM value="9"/>
    <fontDirectionHint value="2"/>
    <indexToLocFormat value="0"/>
    <glyphDataFormat value="0"/>
  </head>
    <TTGlyph name="A" xMin="-37" yMin="0" xMax="405" yMax="735">
      <contour>
        <pt x="270" y="0" on="1"/>
        <pt x="265" y="122" on="1"/>
        <pt x="143" y="122" on="1"/>
        <pt x="96" y="0" on="1"/>
        <pt x="-37" y="0" on="1"/>
        <pt x="258" y="735" on="1"/>
        <pt x="369" y="735" on="1"/>
        <pt x="405" y="0" on="1"/>
      </contour>
      <contour>
        <pt x="263" y="458" on="1"/>
        <pt x="189" y="244" on="1"/>
        <pt x="263" y="244" on="1"/>
      </contour>
    </TTGlyph>
    <TTGlyph name="AE" xMin="-41" yMin="0" xMax="705" yMax="733">
      <contour>
        <pt x="682" y="605" on="1"/>
        <pt x="509" y="605" on="1"/>
        <pt x="480" y="439" on="1"/>
        <pt x="628" y="439" on="1"/>
        <pt x="606" y="315" on="1"/>
        <pt x="458" y="315" on="1"/>
        <pt x="425" y="128" on="1"/>
        <pt x="598" y="128" on="1"/>
        <pt x="576" y="0" on="1"/>
        <pt x="269" y="0" on="1"/>
        <pt x="290" y="122" on="1"/>
        <pt x="156" y="122" on="1"/>
        <pt x="94" y="0" on="1"/>
        <pt x="-41" y="0" on="1"/>
        <pt x="343" y="733" on="1"/>
        <pt x="705" y="733" on="1"/>
      </contour>
      <contour>
        <pt x="363" y="535" on="1"/>
        <pt x="217" y="244" on="1"/>
        <pt x="312" y="244" on="1"/>
      </contour>
    </TTGlyph>
    <TTGlyph name="AEacute" xMin="-41" yMin="0" xMax="705" yMax="979">
      <component glyphName="AE" x="0" y="0" flags="0x204"/>
      <component glyphName="acute" x="293" y="280" flags="0x4"/>
    </TTGlyph>
    <TTGlyph name="Aacute" xMin="-37" yMin="0" xMax="484" yMax="979">
      <component glyphName="A" x="0" y="0" flags="0x204"/>
      <component glyphName="acute" x="138" y="280" flags="0x4"/>
    </TTGlyph>
    <TTGlyph name="Abreve" xMin="-37" yMin="0" xMax="478" yMax="929">
      <component glyphName="A" x="0" y="0" flags="0x204"/>
      <component glyphName="breve" x="75" y="280" flags="0x4"/>
    </TTGlyph>
    <TTGlyph name="Acircumflex" xMin="-37" yMin="0" xMax="460" yMax="947">
      <component glyphName="A" x="0" y="0" flags="0x204"/>
      <component glyphName="circumflex" x="70" y="280" flags="0x4"/>
    </TTGlyph>
    <TTGlyph name="Adieresis" xMin="-37" yMin="0" xMax="474" yMax="920">
      <component glyphName="A" x="0" y="0" flags="0x204"/>
      <component glyphName="dieresis" x="74" y="280" flags="0x4"/>
    </TTGlyph>
    <TTGlyph name="Agrave" xMin="-37" yMin="0" xMax="405" yMax="992">
      <component glyphName="A" x="0" y="0" flags="0x204"/>
      <component glyphName="grave" x="22" y="280" flags="0x4"/>
    </TTGlyph>
    <TTGlyph name="Amacron" xMin="-37" yMin="0" xMax="456" yMax="880">
      <component glyphName="A" x="0" y="0" flags="0x204"/>
      <component glyphName="macron" x="75" y="280" flags="0x4"/>
    </TTGlyph>
    <TTGlyph name="Aogonek" xMin="-37" yMin="-197" xMax="405" yMax="735">
      <contour>
        <pt x="381" y="-162" on="1"/>
        <pt x="363" y="-177" on="0"/>
        <pt x="314" y="-197" on="0"/>
        <pt x="284" y="-197" on="1"/>
        <pt x="249" y="-197" on="0"/>
        <pt x="214" y="-161" on="0"/>
        <pt x="214" y="-133" on="1"/>
        <pt x="214" y="-95" on="0"/>
        <pt x="258" y="-29" on="0"/>
        <pt x="288" y="0" on="1"/>
        <pt x="270" y="0" on="1"/>
        <pt x="265" y="122" on="1"/>
        <pt x="143" y="122" on="1"/>
        <pt x="96" y="0" on="1"/>
        <pt x="-37" y="0" on="1"/>
        <pt x="258" y="735" on="1"/>
        <pt x="369" y="735" on="1"/>
        <pt x="405" y="0" on="1"/>
        <pt x="362" y="0" on="1"/>
        <pt x="339" y="-23" on="0"/>
        <pt x="300" y="-74" on="0"/>
        <pt x="300" y="-100" on="1"/>
        <pt x="300" y="-129" on="0"/>
        <pt x="330" y="-129" on="1"/>
        <pt x="340" y="-129" on="0"/>
        <pt x="362" y="-121" on="0"/>
        <pt x="370" y="-116" on="1"/>
      </contour>
      <contour>
        <pt x="263" y="458" on="1"/>
        <pt x="189" y="244" on="1"/>
        <pt x="263" y="244" on="1"/>
      </contour>
    </TTGlyph>
    <TTGlyph name="Aring" xMin="-37" yMin="0" xMax="430" yMax="890">
      <contour>
        <pt x="430" y="799" on="1"/>
        <pt x="430" y="769" on="0"/>
        <pt x="399" y="716" on="0"/>
        <pt x="370" y="701" on="1"/>
        <pt x="405" y="0" on="1"/>
        <pt x="270" y="0" on="1"/>
        <pt x="265" y="122" on="1"/>
        <pt x="143" y="122" on="1"/>
        <pt x="96" y="0" on="1"/>
        <pt x="-37" y="0" on="1"/>
        <pt x="247" y="707" on="1"/>
        <pt x="230" y="720" on="0"/>
        <pt x="213" y="757" on="0"/>
        <pt x="213" y="778" on="1"/>
        <pt x="213" y="799" on="0"/>
        <pt x="230" y="840" on="0"/>
        <pt x="260" y="871" on="0"/>
        <pt x="304" y="890" on="0"/>
        <pt x="331" y="890" on="1"/>
        <pt x="378" y="890" on="0"/>
        <pt x="430" y="836" on="0"/>
      </contour>
      <contour>
        <pt x="263" y="458" on="1"/>
        <pt x="189" y="244" on="1"/>
        <pt x="263" y="244" on="1"/>
      </contour>
      <contour>
        <pt x="362" y="796" on="1"/>
        <pt x="362" y="813" on="0"/>
        <pt x="342" y="834" on="0"/>
        <pt x="327" y="834" on="1"/>
        <pt x="306" y="834" on="0"/>
        <pt x="281" y="803" on="0"/>
        <pt x="281" y="781" on="1"/>
        <pt x="281" y="764" on="0"/>
        <pt x="301" y="743" on="0"/>
        <pt x="316" y="743" on="1"/>
        <pt x="337" y="743" on="0"/>
        <pt x="362" y="774" on="0"/>
      </contour>
    </TTGlyph>
    <TTGlyph name="Aringacute" xMin="-37" yMin="0" xMax="511" yMax="1105">
      <component glyphName="Aring" x="0" y="0" flags="0x204"/>
      <component glyphName="acute" x="165" y="406" flags="0x4"/>
    </TTGlyph>
    <TTGlyph name="Atilde" xMin="-37" yMin="0" xMax="481" yMax="917">
      <component glyphName="A" x="0" y="0" flags="0x204"/>
      <component glyphName="tilde" x="64" y="280" flags="0x4"/>
    </TTGlyph>
    <TTGlyph name="B" xMin="3" yMin="-7" xMax="457" yMax="740">
      <contour>
        <pt x="457" y="574" on="1"/>
        <pt x="457" y="504" on="0"/>
        <pt x="390" y="405" on="0"/>
        <pt x="344" y="379" on="1"/>
        <pt x="376" y="361" on="0"/>
        <pt x="416" y="288" on="0"/>
        <pt x="416" y="239" on="1"/>
        <pt x="416" y="189" on="0"/>
        <pt x="380" y="100" on="0"/>
        <pt x="311" y="33" on="0"/>
        <pt x="208" y="-7" on="0"/>
        <pt x="141" y="-7" on="1"/>
        <pt x="129" y="-7" on="0"/>
        <pt x="94" y="-5" on="0"/>
        <pt x="56" y="-2" on="0"/>
        <pt x="18" y="4" on="0"/>
        <pt x="3" y="8" on="1"/>
        <pt x="129" y="725" on="1"/>
        <pt x="144" y="729" on="0"/>
        <pt x="178" y="735" on="0"/>
        <pt x="212" y="738" on="0"/>
        <pt x="242" y="740" on="0"/>
        <pt x="251" y="740" on="1"/>
        <pt x="304" y="740" on="0"/>
        <pt x="382" y="713" on="0"/>
        <pt x="433" y="668" on="0"/>
        <pt x="457" y="607" on="0"/>
      </contour>
      <contour>
        <pt x="319" y="545" on="1"/>
        <pt x="319" y="584" on="0"/>
        <pt x="282" y="618" on="0"/>
        <pt x="257" y="618" on="1"/>
        <pt x="254" y="618" on="0"/>
        <pt x="250" y="617" on="0"/>
        <pt x="248" y="617" on="1"/>
        <pt x="244" y="617" on="1"/>
        <pt x="211" y="424" on="1"/>
        <pt x="213" y="423" on="0"/>
        <pt x="217" y="423" on="1"/>
        <pt x="236" y="423" on="0"/>
        <pt x="273" y="439" on="0"/>
        <pt x="302" y="471" on="0"/>
        <pt x="319" y="516" on="0"/>
      </contour>
      <contour>
        <pt x="277" y="246" on="1"/>
        <pt x="277" y="282" on="0"/>
        <pt x="244" y="324" on="0"/>
        <pt x="212" y="324" on="1"/>
        <pt x="207" y="324" on="0"/>
        <pt x="200" y="323" on="0"/>
        <pt x="198" y="323" on="1"/>
        <pt x="195" y="322" on="0"/>
        <pt x="193" y="322" on="1"/>
        <pt x="156" y="114" on="1"/>
        <pt x="159" y="113" on="0"/>
        <pt x="167" y="112" on="0"/>
        <pt x="174" y="112" on="1"/>
        <pt x="200" y="112" on="0"/>
        <pt x="239" y="135" on="0"/>
        <pt x="264" y="173" on="0"/>
        <pt x="277" y="221" on="0"/>
      </contour>
    </TTGlyph>
    <TTGlyph name="C" xMin="38" yMin="-11" xMax="469" yMax="744">
      <contour>
        <pt x="402" y="584" on="1"/>
        <pt x="391" y="595" on="0"/>
        <pt x="362" y="614" on="0"/>
        <pt x="342" y="614" on="1"/>
        <pt x="310" y="614" on="0"/>
        <pt x="252" y="557" on="0"/>
        <pt x="206" y="462" on="0"/>
        <pt x="179" y="338" on="0"/>
        <pt x="179" y="271" on="1"/>
        <pt x="179" y="198" on="0"/>
        <pt x="224" y="119" on="0"/>
        <pt x="266" y="119" on="1"/>
        <pt x="282" y="119" on="0"/>
        <pt x="310" y="130" on="0"/>
        <pt x="324" y="139" on="1"/>
        <pt x="354" y="24" on="1"/>
        <pt x="319" y="1" on="0"/>
        <pt x="260" y="-11" on="0"/>
        <pt x="242" y="-11" on="1"/>
        <pt x="196" y="-11" on="0"/>
        <pt x="121" y="28" on="0"/>
        <pt x="67" y="100" on="0"/>
        <pt x="38" y="203" on="0"/>
        <pt x="38" y="268" on="1"/>
        <pt x="38" y="364" on="0"/>
        <pt x="85" y="537" on="0"/>
        <pt x="167" y="667" on="0"/>
        <pt x="278" y="744" on="0"/>
        <pt x="341" y="744" on="1"/>
        <pt x="374" y="744" on="0"/>
        <pt x="439" y="724" on="0"/>
        <pt x="469" y="699" on="1"/>
      </contour>
    </TTGlyph>
    <TTGlyph name="Cacute" xMin="38" yMin="-11" xMax="498" yMax="979">
      <component glyphName="C" x="0" y="0" flags="0x204"/>
      <component glyphName="acute" x="152" y="280" flags="0x4"/>
    </TTGlyph>
    <TTGlyph name="Ccaron" xMin="38" yMin="-11" xMax="503" yMax="942">
      <component glyphName="C" x="0" y="0" flags="0x204"/>
      <component glyphName="caron" x="88" y="280" flags="0x4"/>
    </TTGlyph>
    <TTGlyph name="Ccedilla" xMin="38" yMin="-199" xMax="469" yMax="744">
      <contour>
        <pt x="285" y="-110" on="1"/>
        <pt x="285" y="-146" on="0"/>
        <pt x="227" y="-199" on="0"/>
        <pt x="176" y="-199" on="1"/>
        <pt x="147" y="-199" on="0"/>
        <pt x="94" y="-181" on="0"/>
        <pt x="77" y="-169" on="1"/>
        <pt x="104" y="-109" on="1"/>
        <pt x="131" y="-126" on="0"/>
        <pt x="167" y="-137" on="0"/>
        <pt x="182" y="-137" on="1"/>
        <pt x="196" y="-137" on="0"/>
        <pt x="214" y="-126" on="0"/>
        <pt x="214" y="-115" on="1"/>
        <pt x="214" y="-105" on="0"/>
        <pt x="188" y="-87" on="0"/>
        <pt x="144" y="-87" on="1"/>
        <pt x="142" y="-79" on="1"/>
        <pt x="178" y="0" on="1"/>
        <pt x="113" y="23" on="0"/>
        <pt x="38" y="162" on="0"/>
        <pt x="38" y="268" on="1"/>
        <pt x="38" y="364" on="0"/>
        <pt x="85" y="537" on="0"/>
        <pt x="167" y="667" on="0"/>
        <pt x="278" y="744" on="0"/>
        <pt x="341" y="744" on="1"/>
        <pt x="374" y="744" on="0"/>
        <pt x="439" y="724" on="0"/>
        <pt x="469" y="699" on="1"/>
        <pt x="402" y="584" on="1"/>
        <pt x="391" y="595" on="0"/>
        <pt x="362" y="614" on="0"/>
        <pt x="342" y="614" on="1"/>
        <pt x="310" y="614" on="0"/>
        <pt x="252" y="557" on="0"/>
        <pt x="206" y="462" on="0"/>
        <pt x="179" y="338" on="0"/>
        <pt x="179" y="271" on="1"/>
        <pt x="179" y="198" on="0"/>
        <pt x="224" y="119" on="0"/>
        <pt x="266" y="119" on="1"/>
        <pt x="282" y="119" on="0"/>
        <pt x="310" y="130" on="0"/>
        <pt x="324" y="139" on="1"/>
        <pt x="354" y="24" on="1"/>
        <pt x="319" y="1" on="0"/>
        <pt x="260" y="-11" on="0"/>
        <pt x="242" y="-11" on="1"/>
        <pt x="235" y="-11" on="0"/>
        <pt x="223" y="-10" on="0"/>
        <pt x="217" y="-9" on="1"/>
        <pt x="204" y="-36" on="1"/>
        <pt x="249" y="-43" on="0"/>
        <pt x="285" y="-84" on="0"/>
      </contour>
    </TTGlyph>
    <TTGlyph name="Cdotaccent" xMin="38" yMin="-11" xMax="469" yMax="920">
      <component glyphName="C" x="0" y="0" flags="0x204"/>
      <component glyphName="dotaccent" x="89" y="280" flags="0x4"/>
    </TTGlyph>
    <TTGlyph name="D" xMin="3" yMin="-7" xMax="482" yMax="740">
      <contour>
        <pt x="126" y="-7" on="1"/>
        <pt x="88" y="-7" on="0"/>
        <pt x="27" y="1" on="0"/>
        <pt x="3" y="8" on="1"/>
        <pt x="129" y="727" on="1"/>
        <pt x="147" y="732" on="0"/>
        <pt x="202" y="740" on="0"/>
        <pt x="226" y="740" on="1"/>
        <pt x="281" y="740" on="0"/>
        <pt x="370" y="704" on="0"/>
        <pt x="401" y="673" on="1"/>
        <pt x="440" y="634" on="0"/>
        <pt x="482" y="521" on="0"/>
        <pt x="482" y="451" on="1"/>
        <pt x="482" y="371" on="0"/>
        <pt x="439" y="208" on="0"/>
        <pt x="350" y="76" on="0"/>
        <pt x="216" y="-7" on="0"/>
      </contour>
      <contour>
        <pt x="298" y="588" on="1"/>
        <pt x="287" y="600" on="0"/>
        <pt x="260" y="610" on="0"/>
        <pt x="247" y="612" on="1"/>
        <pt x="160" y="120" on="1"/>
        <pt x="197" y="126" on="0"/>
        <pt x="263" y="185" on="0"/>
        <pt x="312" y="276" on="0"/>
        <pt x="340" y="390" on="0"/>
        <pt x="340" y="449" on="1"/>
        <pt x="340" y="494" on="0"/>
        <pt x="320" y="566" on="0"/>
      </contour>
    </TTGlyph>
    <TTGlyph name="Dcaron" xMin="3" yMin="-7" xMax="482" yMax="942">
      <component glyphName="D" x="0" y="0" flags="0x204"/>
      <component glyphName="caron" x="62" y="280" flags="0x4"/>
    </TTGlyph>
    <TTGlyph name="Dcroat" xMin="19" yMin="-7" xMax="502" yMax="740">
      <component glyphName="Eth" x="0" y="0" flags="0x204"/>
    </TTGlyph>
    <TTGlyph name="E" xMin="1" yMin="0" xMax="441" yMax="733">
      <contour>
        <pt x="418" y="605" on="1"/>
        <pt x="245" y="605" on="1"/>
        <pt x="216" y="439" on="1"/>
        <pt x="364" y="439" on="1"/>
        <pt x="342" y="315" on="1"/>
        <pt x="194" y="315" on="1"/>
        <pt x="161" y="128" on="1"/>
        <pt x="334" y="128" on="1"/>
        <pt x="312" y="0" on="1"/>
        <pt x="1" y="0" on="1"/>
        <pt x="130" y="733" on="1"/>
        <pt x="441" y="733" on="1"/>
      </contour>
    </TTGlyph>
    <TTGlyph name="Eacute" xMin="1" yMin="0" xMax="458" yMax="979">
      <component glyphName="E" x="0" y="0" flags="0x204"/>
      <component glyphName="acute" x="112" y="280" flags="0x4"/>
    </TTGlyph>
    <TTGlyph name="Ebreve" xMin="1" yMin="0" xMax="453" yMax="929">
      <component glyphName="E" x="0" y="0" flags="0x204"/>
      <component glyphName="breve" x="50" y="280" flags="0x4"/>
    </TTGlyph>
    <TTGlyph name="Ecaron" xMin="1" yMin="0" xMax="463" yMax="942">
      <component glyphName="E" x="0" y="0" flags="0x204"/>
      <component glyphName="caron" x="48" y="280" flags="0x4"/>
    </TTGlyph>
    <TTGlyph name="Ecircumflex" xMin="1" yMin="0" xMax="441" yMax="947">
      <component glyphName="E" x="0" y="0" flags="0x204"/>
      <component glyphName="circumflex" x="45" y="280" flags="0x4"/>
    </TTGlyph>
    <TTGlyph name="Edieresis" xMin="1" yMin="0" xMax="449" yMax="920">
      <component glyphName="E" x="0" y="0" flags="0x204"/>
      <component glyphName="dieresis" x="49" y="280" flags="0x4"/>
    </TTGlyph>
    <TTGlyph name="Edotaccent" xMin="1" yMin="0" xMax="441" yMax="920">
      <component glyphName="E" x="0" y="0" flags="0x204"/>
      <component glyphName="dotaccent" x="49" y="280" flags="0x4"/>
    </TTGlyph>
    <TTGlyph name="Egrave" xMin="1" yMin="0" xMax="441" yMax="992">
      <component glyphName="E" x="0" y="0" flags="0x204"/>
      <component glyphName="grave" x="-3" y="280" flags="0x4"/>
    </TTGlyph>
    <TTGlyph name="Emacron" xMin="1" yMin="0" xMax="441" yMax="880">
      <component glyphName="E" x="0" y="0" flags="0x204"/>
      <component glyphName="macron" x="49" y="280" flags="0x4"/>
    </TTGlyph>
    <TTGlyph name="Eogonek" xMin="1" yMin="-197" xMax="441" yMax="733">
      <contour>
        <pt x="291" y="-162" on="1"/>
        <pt x="273" y="-177" on="0"/>
        <pt x="224" y="-197" on="0"/>
        <pt x="194" y="-197" on="1"/>
        <pt x="159" y="-197" on="0"/>
        <pt x="124" y="-161" on="0"/>
        <pt x="124" y="-133" on="1"/>
        <pt x="124" y="-95" on="0"/>
        <pt x="168" y="-29" on="0"/>
        <pt x="198" y="0" on="1"/>
        <pt x="1" y="0" on="1"/>
        <pt x="130" y="733" on="1"/>
        <pt x="441" y="733" on="1"/>
        <pt x="418" y="605" on="1"/>
        <pt x="245" y="605" on="1"/>
        <pt x="216" y="439" on="1"/>
        <pt x="364" y="439" on="1"/>
        <pt x="342" y="315" on="1"/>
        <pt x="194" y="315" on="1"/>
        <pt x="161" y="128" on="1"/>
        <pt x="334" y="128" on="1"/>
        <pt x="312" y="0" on="1"/>
        <pt x="272" y="0" on="1"/>
        <pt x="249" y="-23" on="0"/>
        <pt x="210" y="-74" on="0"/>
        <pt x="210" y="-100" on="1"/>
        <pt x="210" y="-129" on="0"/>
        <pt x="240" y="-129" on="1"/>
        <pt x="250" y="-129" on="0"/>
        <pt x="272" y="-121" on="0"/>
        <pt x="280" y="-116" on="1"/>
      </contour>
    </TTGlyph>
    <TTGlyph name="Eth" xMin="19" yMin="-7" xMax="502" yMax="740">
      <contour>
        <pt x="502" y="451" on="1"/>
        <pt x="502" y="371" on="0"/>
        <pt x="459" y="208" on="0"/>
        <pt x="370" y="76" on="0"/>
        <pt x="236" y="-7" on="0"/>
        <pt x="146" y="-7" on="1"/>
        <pt x="108" y="-7" on="0"/>
        <pt x="47" y="1" on="0"/>
        <pt x="23" y="8" on="1"/>
        <pt x="77" y="316" on="1"/>
        <pt x="19" y="316" on="1"/>
        <pt x="37" y="420" on="1"/>
        <pt x="95" y="420" on="1"/>
        <pt x="149" y="727" on="1"/>
        <pt x="167" y="732" on="0"/>
        <pt x="222" y="740" on="0"/>
        <pt x="246" y="740" on="1"/>
        <pt x="301" y="740" on="0"/>
        <pt x="390" y="704" on="0"/>
        <pt x="421" y="673" on="1"/>
        <pt x="460" y="634" on="0"/>
        <pt x="502" y="521" on="0"/>
      </contour>
      <contour>
        <pt x="360" y="449" on="1"/>
        <pt x="360" y="494" on="0"/>
        <pt x="340" y="566" on="0"/>
        <pt x="318" y="588" on="1"/>
        <pt x="307" y="600" on="0"/>
        <pt x="280" y="610" on="0"/>
        <pt x="267" y="612" on="1"/>
        <pt x="233" y="420" on="1"/>
        <pt x="305" y="420" on="1"/>
        <pt x="287" y="316" on="1"/>
        <pt x="215" y="316" on="1"/>
        <pt x="180" y="120" on="1"/>
        <pt x="217" y="126" on="0"/>
        <pt x="283" y="185" on="0"/>
        <pt x="332" y="276" on="0"/>
        <pt x="360" y="390" on="0"/>
      </contour>
    </TTGlyph>
    <TTGlyph name="Euro" xMin="22" yMin="-11" xMax="509" yMax="733">
      <contour>
        <pt x="80" y="325" on="1"/>
        <pt x="82" y="345" on="0"/>
        <pt x="87" y="382" on="0"/>
        <pt x="91" y="401" on="1"/>
        <pt x="51" y="401" on="1"/>
        <pt x="67" y="491" on="1"/>
        <pt x="115" y="491" on="1"/>
        <pt x="134" y="545" on="0"/>
        <pt x="189" y="634" on="0"/>
        <pt x="258" y="698" on="0"/>
        <pt x="337" y="733" on="0"/>
        <pt x="381" y="733" on="1"/>
        <pt x="414" y="733" on="0"/>
        <pt x="479" y="713" on="0"/>
        <pt x="509" y="688" on="1"/>
        <pt x="442" y="573" on="1"/>
        <pt x="431" y="584" on="0"/>
        <pt x="400" y="603" on="0"/>
        <pt x="381" y="603" on="1"/>
        <pt x="347" y="603" on="0"/>
        <pt x="285" y="542" on="0"/>
        <pt x="262" y="491" on="1"/>
        <pt x="400" y="491" on="1"/>
        <pt x="384" y="401" on="1"/>
        <pt x="233" y="401" on="1"/>
        <pt x="228" y="383" on="0"/>
        <pt x="223" y="345" on="0"/>
        <pt x="221" y="325" on="1"/>
        <pt x="370" y="325" on="1"/>
        <pt x="355" y="235" on="1"/>
        <pt x="220" y="235" on="1"/>
        <pt x="226" y="178" on="0"/>
        <pt x="271" y="119" on="0"/>
        <pt x="305" y="119" on="1"/>
        <pt x="319" y="119" on="0"/>
        <pt x="350" y="130" on="0"/>
        <pt x="364" y="139" on="1"/>
        <pt x="394" y="24" on="1"/>
        <pt x="359" y="1" on="0"/>
        <pt x="300" y="-11" on="0"/>
        <pt x="282" y="-11" on="1"/>
        <pt x="196" y="-11" on="0"/>
        <pt x="87" y="120" on="0"/>
        <pt x="79" y="235" on="1"/>
        <pt x="22" y="235" on="1"/>
        <pt x="37" y="325" on="1"/>
      </contour>
    </TTGlyph>
    <TTGlyph name="Euro.lin" xMin="22" yMin="-11" xMax="509" yMax="733">
      <contour>
        <pt x="115" y="491" on="1"/>
        <pt x="134" y="545" on="0"/>
        <pt x="189" y="634" on="0"/>
        <pt x="258" y="698" on="0"/>
        <pt x="337" y="733" on="0"/>
        <pt x="381" y="733" on="1"/>
        <pt x="414" y="733" on="0"/>
        <pt x="479" y="713" on="0"/>
        <pt x="509" y="688" on="1"/>
        <pt x="442" y="573" on="1"/>
        <pt x="431" y="584" on="0"/>
        <pt x="400" y="603" on="0"/>
        <pt x="381" y="603" on="1"/>
        <pt x="347" y="603" on="0"/>
        <pt x="285" y="542" on="0"/>
        <pt x="262" y="491" on="1"/>
        <pt x="400" y="491" on="1"/>
        <pt x="384" y="401" on="1"/>
        <pt x="233" y="401" on="1"/>
        <pt x="228" y="383" on="0"/>
        <pt x="223" y="345" on="0"/>
        <pt x="221" y="325" on="1"/>
        <pt x="370" y="325" on="1"/>
        <pt x="355" y="235" on="1"/>
        <pt x="220" y="235" on="1"/>
        <pt x="226" y="178" on="0"/>
        <pt x="271" y="119" on="0"/>
        <pt x="305" y="119" on="1"/>
        <pt x="319" y="119" on="0"/>
        <pt x="350" y="130" on="0"/>
        <pt x="364" y="139" on="1"/>
        <pt x="394" y="24" on="1"/>
        <pt x="359" y="1" on="0"/>
        <pt x="300" y="-11" on="0"/>
        <pt x="282" y="-11" on="1"/>
        <pt x="196" y="-11" on="0"/>
        <pt x="87" y="120" on="0"/>
        <pt x="79" y="235" on="1"/>
        <pt x="22" y="235" on="1"/>
        <pt x="37" y="325" on="1"/>
        <pt x="80" y="325" on="1"/>
        <pt x="82" y="345" on="0"/>
        <pt x="87" y="382" on="0"/>
        <pt x="91" y="401" on="1"/>
        <pt x="51" y="401" on="1"/>
        <pt x="67" y="491" on="1"/>
      </contour>
    </TTGlyph>
    <TTGlyph name="F" xMin="1" yMin="0" xMax="437" yMax="733">
      <contour>
        <pt x="414" y="605" on="1"/>
        <pt x="245" y="605" on="1"/>
        <pt x="213" y="423" on="1"/>
        <pt x="357" y="423" on="1"/>
        <pt x="335" y="299" on="1"/>
        <pt x="191" y="299" on="1"/>
        <pt x="138" y="0" on="1"/>
        <pt x="1" y="0" on="1"/>
        <pt x="131" y="733" on="1"/>
        <pt x="437" y="733" on="1"/>
      </contour>
    </TTGlyph>
    <TTGlyph name="G" xMin="37" yMin="-11" xMax="481" yMax="744">
      <contour>
        <pt x="376" y="36" on="1"/>
        <pt x="341" y="13" on="0"/>
        <pt x="272" y="-11" on="0"/>
        <pt x="234" y="-11" on="1"/>
        <pt x="191" y="-11" on="0"/>
        <pt x="119" y="23" on="0"/>
        <pt x="66" y="92" on="0"/>
        <pt x="37" y="195" on="0"/>
        <pt x="37" y="263" on="1"/>
        <pt x="37" y="347" on="0"/>
        <pt x="77" y="518" on="0"/>
        <pt x="154" y="657" on="0"/>
        <pt x="267" y="744" on="0"/>
        <pt x="340" y="744" on="1"/>
        <pt x="382" y="744" on="0"/>
        <pt x="453" y="711" on="0"/>
        <pt x="481" y="686" on="1"/>
        <pt x="422" y="569" on="1"/>
        <pt x="405" y="587" on="0"/>
        <pt x="362" y="614" on="0"/>
        <pt x="337" y="614" on="1"/>
        <pt x="298" y="614" on="0"/>
        <pt x="238" y="542" on="0"/>
        <pt x="198" y="434" on="0"/>
        <pt x="177" y="308" on="0"/>
        <pt x="177" y="254" on="1"/>
        <pt x="177" y="180" on="0"/>
        <pt x="217" y="109" on="0"/>
        <pt x="251" y="109" on="1"/>
        <pt x="256" y="109" on="0"/>
        <pt x="264" y="112" on="1"/>
        <pt x="300" y="303" on="1"/>
        <pt x="238" y="303" on="1"/>
        <pt x="260" y="428" on="1"/>
        <pt x="448" y="428" on="1"/>
      </contour>
    </TTGlyph>
    <TTGlyph name="G.alt" xMin="36" yMin="-12" xMax="501" yMax="744">
      <contour>
        <pt x="472" y="428" on="1"/>
        <pt x="465" y="323" on="0"/>
        <pt x="425" y="160" on="0"/>
        <pt x="361" y="47" on="0"/>
        <pt x="275" y="-12" on="0"/>
        <pt x="222" y="-12" on="1"/>
        <pt x="181" y="-12" on="0"/>
        <pt x="112" y="21" on="0"/>
        <pt x="63" y="87" on="0"/>
        <pt x="36" y="185" on="0"/>
        <pt x="36" y="250" on="1"/>
        <pt x="36" y="353" on="0"/>
        <pt x="80" y="533" on="0"/>
        <pt x="158" y="667" on="0"/>
        <pt x="266" y="744" on="0"/>
        <pt x="331" y="744" on="1"/>
        <pt x="394" y="744" on="0"/>
        <pt x="479" y="684" on="0"/>
        <pt x="501" y="645" on="1"/>
        <pt x="411" y="551" on="1"/>
        <pt x="398" y="577" on="0"/>
        <pt x="357" y="614" on="0"/>
        <pt x="331" y="614" on="1"/>
        <pt x="298" y="614" on="0"/>
        <pt x="241" y="555" on="0"/>
        <pt x="200" y="452" on="0"/>
        <pt x="177" y="313" on="0"/>
        <pt x="177" y="234" on="1"/>
        <pt x="177" y="180" on="0"/>
        <pt x="201" y="118" on="0"/>
        <pt x="229" y="118" on="1"/>
        <pt x="257" y="118" on="0"/>
        <pt x="310" y="209" on="0"/>
        <pt x="323" y="303" on="1"/>
        <pt x="241" y="303" on="1"/>
        <pt x="263" y="428" on="1"/>
      </contour>
    </TTGlyph>
    <TTGlyph name="Gbreve" xMin="37" yMin="-11" xMax="497" yMax="929">
      <component glyphName="G" x="0" y="0" flags="0x204"/>
      <component glyphName="breve" x="94" y="280" flags="0x4"/>
    </TTGlyph>
    <TTGlyph name="Gbreve.alt" xMin="36" yMin="-12" xMax="501" yMax="929">
      <component glyphName="G.alt" x="0" y="0" flags="0x204"/>
      <component glyphName="breve" x="94" y="280" flags="0x4"/>
    </TTGlyph>
    <TTGlyph name="Gcommaaccent" xMin="37" yMin="-309" xMax="481" yMax="744">
      <component glyphName="G" x="0" y="0" flags="0x204"/>
      <component glyphName="commaaccent" x="97" y="0" flags="0x4"/>
    </TTGlyph>
    <TTGlyph name="Gcommaaccent.alt" xMin="36" yMin="-309" xMax="501" yMax="744">
      <component glyphName="G.alt" x="0" y="0" flags="0x4"/>
      <component glyphName="commaaccent" x="102" y="0" flags="0x4"/>
    </TTGlyph>
    <TTGlyph name="Gdotaccent" xMin="37" yMin="-11" xMax="481" yMax="920">
      <component glyphName="G" x="0" y="0" flags="0x204"/>
      <component glyphName="dotaccent" x="93" y="280" flags="0x4"/>
    </TTGlyph>
    <TTGlyph name="Gdotaccent.alt" xMin="36" yMin="-12" xMax="501" yMax="920">
      <component glyphName="G.alt" x="0" y="0" flags="0x4"/>
      <component glyphName="dotaccent" x="93" y="280" flags="0x4"/>
    </TTGlyph>
    <TTGlyph name="H" xMin="2" yMin="0" xMax="521" yMax="733">
      <contour>
        <pt x="392" y="0" on="1"/>
        <pt x="254" y="0" on="1"/>
        <pt x="308" y="307" on="1"/>
        <pt x="194" y="307" on="1"/>
        <pt x="140" y="0" on="1"/>
        <pt x="2" y="0" on="1"/>
        <pt x="131" y="733" on="1"/>
        <pt x="269" y="733" on="1"/>
        <pt x="217" y="435" on="1"/>
        <pt x="331" y="435" on="1"/>
        <pt x="383" y="733" on="1"/>
        <pt x="521" y="733" on="1"/>
      </contour>
    </TTGlyph>
    <TTGlyph name="Hbar" xMin="2" yMin="0" xMax="551" yMax="733">
      <contour>
        <pt x="501" y="620" on="1"/>
        <pt x="551" y="620" on="1"/>
        <pt x="536" y="534" on="1"/>
        <pt x="486" y="534" on="1"/>
        <pt x="392" y="0" on="1"/>
        <pt x="254" y="0" on="1"/>
        <pt x="308" y="307" on="1"/>
        <pt x="194" y="307" on="1"/>
        <pt x="140" y="0" on="1"/>
        <pt x="2" y="0" on="1"/>
        <pt x="96" y="534" on="1"/>
        <pt x="45" y="534" on="1"/>
        <pt x="60" y="620" on="1"/>
        <pt x="111" y="620" on="1"/>
        <pt x="131" y="733" on="1"/>
        <pt x="269" y="733" on="1"/>
        <pt x="249" y="620" on="1"/>
        <pt x="363" y="620" on="1"/>
        <pt x="383" y="733" on="1"/>
        <pt x="521" y="733" on="1"/>
      </contour>
      <contour>
        <pt x="331" y="435" on="1"/>
        <pt x="348" y="534" on="1"/>
        <pt x="234" y="534" on="1"/>
        <pt x="217" y="435" on="1"/>
      </contour>
    </TTGlyph>
    <TTGlyph name="I" xMin="1" yMin="0" xMax="268" yMax="733">
      <contour>
        <pt x="139" y="0" on="1"/>
        <pt x="1" y="0" on="1"/>
        <pt x="130" y="733" on="1"/>
        <pt x="268" y="733" on="1"/>
      </contour>
    </TTGlyph>
    <TTGlyph name="Iacute" xMin="1" yMin="0" xMax="371" yMax="979">
      <component glyphName="I" x="0" y="0" flags="0x204"/>
      <component glyphName="acute" x="25" y="280" flags="0x4"/>
    </TTGlyph>
    <TTGlyph name="Ibreve" xMin="1" yMin="0" xMax="367" yMax="929">
      <component glyphName="I" x="0" y="0" flags="0x204"/>
      <component glyphName="breve" x="-36" y="280" flags="0x4"/>
    </TTGlyph>
    <TTGlyph name="Icircumflex" xMin="1" yMin="0" xMax="349" yMax="947">
      <component glyphName="I" x="0" y="0" flags="0x204"/>
      <component glyphName="circumflex" x="-41" y="280" flags="0x4"/>
    </TTGlyph>
    <TTGlyph name="Idieresis" xMin="1" yMin="0" xMax="363" yMax="920">
      <component glyphName="I" x="0" y="0" flags="0x204"/>
      <component glyphName="dieresis" x="-37" y="280" flags="0x4"/>
    </TTGlyph>
    <TTGlyph name="Idotaccent" xMin="1" yMin="0" xMax="283" yMax="920">
      <component glyphName="I" x="0" y="0" flags="0x204"/>
      <component glyphName="dotaccent" x="-37" y="280" flags="0x4"/>
    </TTGlyph>
    <TTGlyph name="Igrave" xMin="1" yMin="0" xMax="274" yMax="992">
      <component glyphName="I" x="0" y="0" flags="0x204"/>
      <component glyphName="grave" x="-90" y="280" flags="0x4"/>
    </TTGlyph>
    <TTGlyph name="Imacron" xMin="1" yMin="0" xMax="344" yMax="880">
      <component glyphName="I" x="0" y="0" flags="0x204"/>
      <component glyphName="macron" x="-37" y="280" flags="0x4"/>
    </TTGlyph>
    <TTGlyph name="Iogonek" xMin="-39" yMin="-197" xMax="268" yMax="733">
      <contour>
        <pt x="139" y="0" on="1"/>
        <pt x="109" y="0" on="1"/>
        <pt x="86" y="-23" on="0"/>
        <pt x="47" y="-74" on="0"/>
        <pt x="47" y="-100" on="1"/>
        <pt x="47" y="-129" on="0"/>
        <pt x="77" y="-129" on="1"/>
        <pt x="87" y="-129" on="0"/>
        <pt x="109" y="-121" on="0"/>
        <pt x="117" y="-116" on="1"/>
        <pt x="128" y="-162" on="1"/>
        <pt x="110" y="-177" on="0"/>
        <pt x="61" y="-197" on="0"/>
        <pt x="31" y="-197" on="1"/>
        <pt x="-4" y="-197" on="0"/>
        <pt x="-39" y="-161" on="0"/>
        <pt x="-39" y="-133" on="1"/>
        <pt x="-39" y="-95" on="0"/>
        <pt x="5" y="-29" on="0"/>
        <pt x="35" y="0" on="1"/>
        <pt x="1" y="0" on="1"/>
        <pt x="130" y="733" on="1"/>
        <pt x="268" y="733" on="1"/>
      </contour>
    </TTGlyph>
    <TTGlyph name="J" xMin="-22" yMin="-9" xMax="382" yMax="733">
      <contour>
        <pt x="281" y="158" on="1"/>
        <pt x="266" y="72" on="0"/>
        <pt x="187" y="-9" on="0"/>
        <pt x="114" y="-9" on="1"/>
        <pt x="94" y="-9" on="0"/>
        <pt x="18" y="6" on="0"/>
        <pt x="-22" y="29" on="1"/>
        <pt x="16" y="146" on="1"/>
        <pt x="55" y="122" on="0"/>
        <pt x="91" y="122" on="1"/>
        <pt x="114" y="122" on="0"/>
        <pt x="141" y="148" on="0"/>
        <pt x="146" y="179" on="1"/>
        <pt x="244" y="733" on="1"/>
        <pt x="382" y="733" on="1"/>
      </contour>
    </TTGlyph>
    <TTGlyph name="K" xMin="1" yMin="0" xMax="529" yMax="733">
      <contour>
        <pt x="324" y="372" on="1"/>
        <pt x="405" y="0" on="1"/>
        <pt x="259" y="0" on="1"/>
        <pt x="200" y="349" on="1"/>
        <pt x="139" y="0" on="1"/>
        <pt x="1" y="0" on="1"/>
        <pt x="130" y="733" on="1"/>
        <pt x="268" y="733" on="1"/>
        <pt x="210" y="406" on="1"/>
        <pt x="380" y="733" on="1"/>
        <pt x="529" y="733" on="1"/>
      </contour>
    </TTGlyph>
    <TTGlyph name="Kcommaaccent" xMin="1" yMin="-309" xMax="529" yMax="733">
      <component glyphName="K" x="0" y="0" flags="0x204"/>
      <component glyphName="commaaccent" x="95" y="0" flags="0x4"/>
    </TTGlyph>
    <TTGlyph name="L" xMin="2" yMin="0" xMax="314" yMax="733">
      <contour>
        <pt x="292" y="0" on="1"/>
        <pt x="2" y="0" on="1"/>
        <pt x="131" y="733" on="1"/>
        <pt x="269" y="733" on="1"/>
        <pt x="162" y="127" on="1"/>
        <pt x="314" y="127" on="1"/>
      </contour>
    </TTGlyph>
    <TTGlyph name="Lacute" xMin="2" yMin="0" xMax="363" yMax="979">
      <component glyphName="L" x="0" y="0" flags="0x204"/>
      <component glyphName="acute" x="17" y="280" flags="0x4"/>
    </TTGlyph>
    <TTGlyph name="Lcaron" xMin="2" yMin="0" xMax="406" yMax="733">
      <component glyphName="L" x="0" y="0" flags="0x204"/>
      <component glyphName="caron.alt" x="219" y="-7" flags="0x4"/>
    </TTGlyph>
    <TTGlyph name="Lcommaaccent" xMin="2" yMin="-309" xMax="314" yMax="733">
      <component glyphName="L" x="0" y="0" flags="0x204"/>
      <component glyphName="commaaccent" x="48" y="0" flags="0x4"/>
    </TTGlyph>
    <TTGlyph name="Ldot" xMin="2" yMin="0" xMax="371" yMax="733">
      <component glyphName="L" x="0" y="0" flags="0x204"/>
      <component glyphName="dotaccent" x="51" y="-210" flags="0x4"/>
    </TTGlyph>
    <TTGlyph name="Lslash" xMin="2" yMin="0" xMax="334" yMax="733">
      <contour>
        <pt x="312" y="0" on="1"/>
        <pt x="22" y="0" on="1"/>
        <pt x="65" y="244" on="1"/>
        <pt x="2" y="217" on="1"/>
        <pt x="24" y="342" on="1"/>
        <pt x="87" y="369" on="1"/>
        <pt x="151" y="733" on="1"/>
        <pt x="289" y="733" on="1"/>
        <pt x="236" y="433" on="1"/>
        <pt x="331" y="473" on="1"/>
        <pt x="309" y="348" on="1"/>
        <pt x="214" y="307" on="1"/>
        <pt x="198" y="217" on="1"/>
        <pt x="182" y="127" on="1"/>
        <pt x="334" y="127" on="1"/>
      </contour>
    </TTGlyph>
    <TTGlyph name="M" xMin="-4" yMin="0" xMax="582" yMax="735">
      <contour>
        <pt x="484" y="0" on="1"/>
        <pt x="351" y="0" on="1"/>
        <pt x="409" y="363" on="1"/>
        <pt x="278" y="129" on="1"/>
        <pt x="251" y="129" on="1"/>
        <pt x="199" y="363" on="1"/>
        <pt x="128" y="0" on="1"/>
        <pt x="-4" y="0" on="1"/>
        <pt x="139" y="733" on="1"/>
        <pt x="211" y="735" on="1"/>
        <pt x="305" y="369" on="1"/>
        <pt x="507" y="735" on="1"/>
        <pt x="582" y="733" on="1"/>
      </contour>
    </TTGlyph>
    <TTGlyph name="M.alt" xMin="-4" yMin="0" xMax="582" yMax="735">
      <contour>
        <pt x="484" y="0" on="1"/>
        <pt x="351" y="0" on="1"/>
        <pt x="409" y="363" on="1"/>
        <pt x="278" y="129" on="1"/>
        <pt x="251" y="129" on="1"/>
        <pt x="199" y="363" on="1"/>
        <pt x="128" y="0" on="1"/>
        <pt x="-4" y="0" on="1"/>
        <pt x="139" y="733" on="1"/>
        <pt x="211" y="735" on="1"/>
        <pt x="305" y="369" on="1"/>
        <pt x="507" y="735" on="1"/>
        <pt x="582" y="733" on="1"/>
      </contour>
    </TTGlyph>
    <TTGlyph name="N" xMin="1" yMin="-2" xMax="521" yMax="735">
      <contour>
        <pt x="391" y="0" on="1"/>
        <pt x="320" y="-2" on="1"/>
        <pt x="201" y="371" on="1"/>
        <pt x="135" y="0" on="1"/>
        <pt x="1" y="0" on="1"/>
        <pt x="130" y="733" on="1"/>
        <pt x="202" y="735" on="1"/>
        <pt x="323" y="375" on="1"/>
        <pt x="387" y="733" on="1"/>
        <pt x="521" y="733" on="1"/>
      </contour>
    </TTGlyph>
    <TTGlyph name="Nacute" xMin="1" yMin="-2" xMax="521" yMax="979">
      <component glyphName="N" x="0" y="0" flags="0x204"/>
      <component glyphName="acute" x="152" y="280" flags="0x4"/>
    </TTGlyph>
    <TTGlyph name="Ncaron" xMin="1" yMin="-2" xMax="521" yMax="942">
      <component glyphName="N" x="0" y="0" flags="0x204"/>
      <component glyphName="caron" x="88" y="280" flags="0x4"/>
    </TTGlyph>
    <TTGlyph name="Ncommaaccent" xMin="1" yMin="-309" xMax="521" yMax="735">
      <component glyphName="N" x="0" y="0" flags="0x204"/>
      <component glyphName="commaaccent" x="93" y="0" flags="0x4"/>
    </TTGlyph>
    <TTGlyph name="Ntilde" xMin="1" yMin="-2" xMax="521" yMax="917">
      <component glyphName="N" x="0" y="0" flags="0x204"/>
      <component glyphName="tilde" x="78" y="280" flags="0x4"/>
    </TTGlyph>
    <TTGlyph name="O" xMin="32" yMin="-11" xMax="489" yMax="744">
      <contour>
        <pt x="489" y="491" on="1"/>
        <pt x="489" y="441" on="0"/>
        <pt x="476" y="328" on="0"/>
        <pt x="447" y="216" on="0"/>
        <pt x="402" y="114" on="0"/>
        <pt x="340" y="36" on="0"/>
        <pt x="259" y="-11" on="0"/>
        <pt x="209" y="-11" on="1"/>
        <pt x="121" y="-11" on="0"/>
        <pt x="32" y="124" on="0"/>
        <pt x="32" y="242" on="1"/>
        <pt x="32" y="292" on="0"/>
        <pt x="45" y="405" on="0"/>
        <pt x="74" y="517" on="0"/>
        <pt x="118" y="619" on="0"/>
        <pt x="180" y="697" on="0"/>
        <pt x="261" y="744" on="0"/>
        <pt x="311" y="744" on="1"/>
        <pt x="400" y="744" on="0"/>
        <pt x="489" y="609" on="0"/>
      </contour>
      <contour>
        <pt x="352" y="523" on="1"/>
        <pt x="352" y="574" on="0"/>
        <pt x="327" y="623" on="0"/>
        <pt x="304" y="623" on="1"/>
        <pt x="281" y="623" on="0"/>
        <pt x="242" y="574" on="0"/>
        <pt x="212" y="497" on="0"/>
        <pt x="190" y="402" on="0"/>
        <pt x="176" y="310" on="0"/>
        <pt x="169" y="232" on="0"/>
        <pt x="169" y="210" on="1"/>
        <pt x="169" y="158" on="0"/>
        <pt x="194" y="110" on="0"/>
        <pt x="217" y="110" on="1"/>
        <pt x="240" y="110" on="0"/>
        <pt x="279" y="159" on="0"/>
        <pt x="309" y="236" on="0"/>
        <pt x="331" y="331" on="0"/>
        <pt x="345" y="423" on="0"/>
        <pt x="352" y="501" on="0"/>
      </contour>
    </TTGlyph>
    <TTGlyph name="OE" xMin="39" yMin="-4" xMax="693" yMax="737">
      <contour>
        <pt x="670" y="605" on="1"/>
        <pt x="497" y="605" on="1"/>
        <pt x="468" y="439" on="1"/>
        <pt x="616" y="439" on="1"/>
        <pt x="594" y="315" on="1"/>
        <pt x="446" y="315" on="1"/>
        <pt x="413" y="128" on="1"/>
        <pt x="586" y="128" on="1"/>
        <pt x="564" y="0" on="1"/>
        <pt x="347" y="0" on="1"/>
        <pt x="334" y="-2" on="0"/>
        <pt x="307" y="-4" on="0"/>
        <pt x="295" y="-4" on="1"/>
        <pt x="236" y="-4" on="0"/>
        <pt x="141" y="38" on="0"/>
        <pt x="75" y="115" on="0"/>
        <pt x="39" y="221" on="0"/>
        <pt x="39" y="285" on="1"/>
        <pt x="39" y="363" on="0"/>
        <pt x="83" y="524" on="0"/>
        <pt x="171" y="654" on="0"/>
        <pt x="305" y="737" on="0"/>
        <pt x="395" y="737" on="1"/>
        <pt x="414" y="737" on="0"/>
        <pt x="447" y="735" on="0"/>
        <pt x="462" y="733" on="1"/>
        <pt x="693" y="733" on="1"/>
      </contour>
      <contour>
        <pt x="223" y="149" on="1"/>
        <pt x="234" y="137" on="0"/>
        <pt x="260" y="126" on="0"/>
        <pt x="274" y="124" on="1"/>
        <pt x="360" y="609" on="1"/>
        <pt x="317" y="603" on="0"/>
        <pt x="251" y="537" on="0"/>
        <pt x="205" y="443" on="0"/>
        <pt x="181" y="332" on="0"/>
        <pt x="181" y="280" on="1"/>
        <pt x="181" y="241" on="0"/>
        <pt x="201" y="171" on="0"/>
      </contour>
    </TTGlyph>
    <TTGlyph name="Oacute" xMin="32" yMin="-11" xMax="497" yMax="979">
      <component glyphName="O" x="0" y="0" flags="0x204"/>
      <component glyphName="acute" x="151" y="280" flags="0x4"/>
    </TTGlyph>
    <TTGlyph name="Obreve" xMin="32" yMin="-11" xMax="492" yMax="929">
      <component glyphName="O" x="0" y="0" flags="0x204"/>
      <component glyphName="breve" x="89" y="280" flags="0x4"/>
    </TTGlyph>
    <TTGlyph name="Ocircumflex" xMin="32" yMin="-11" xMax="489" yMax="947">
      <component glyphName="O" x="0" y="0" flags="0x204"/>
      <component glyphName="circumflex" x="84" y="280" flags="0x4"/>
    </TTGlyph>
    <TTGlyph name="Odieresis" xMin="32" yMin="-11" xMax="489" yMax="920">
      <component glyphName="O" x="0" y="0" flags="0x204"/>
      <component glyphName="dieresis" x="88" y="280" flags="0x4"/>
    </TTGlyph>
    <TTGlyph name="Ograve" xMin="32" yMin="-11" xMax="489" yMax="992">
      <component glyphName="O" x="0" y="0" flags="0x204"/>
      <component glyphName="grave" x="35" y="280" flags="0x4"/>
    </TTGlyph>
    <TTGlyph name="Ohungarumlaut" xMin="32" yMin="-11" xMax="566" yMax="1004">
      <component glyphName="O" x="0" y="0" flags="0x204"/>
      <component glyphName="hungarumlaut" x="123" y="280" flags="0x4"/>
    </TTGlyph>
    <TTGlyph name="Omacron" xMin="32" yMin="-11" xMax="489" yMax="880">
      <component glyphName="O" x="0" y="0" flags="0x204"/>
      <component glyphName="macron" x="88" y="280" flags="0x4"/>
    </TTGlyph>
    <TTGlyph name="Oslash" xMin="-8" yMin="-11" xMax="526" yMax="750">
      <contour>
        <pt x="489" y="491" on="1"/>
        <pt x="489" y="441" on="0"/>
        <pt x="476" y="328" on="0"/>
        <pt x="447" y="216" on="0"/>
        <pt x="402" y="114" on="0"/>
        <pt x="340" y="36" on="0"/>
        <pt x="259" y="-11" on="0"/>
        <pt x="209" y="-11" on="1"/>
        <pt x="125" y="-11" on="0"/>
        <pt x="79" y="52" on="1"/>
        <pt x="38" y="-11" on="1"/>
        <pt x="-8" y="17" on="1"/>
        <pt x="52" y="107" on="1"/>
        <pt x="32" y="164" on="0"/>
        <pt x="32" y="242" on="1"/>
        <pt x="32" y="292" on="0"/>
        <pt x="45" y="405" on="0"/>
        <pt x="74" y="517" on="0"/>
        <pt x="118" y="619" on="0"/>
        <pt x="180" y="697" on="0"/>
        <pt x="261" y="744" on="0"/>
        <pt x="311" y="744" on="1"/>
        <pt x="391" y="744" on="0"/>
        <pt x="438" y="685" on="1"/>
        <pt x="481" y="750" on="1"/>
        <pt x="526" y="721" on="1"/>
        <pt x="517" y="707" on="0"/>
        <pt x="507" y="692" on="1"/>
        <pt x="499" y="679" on="0"/>
        <pt x="478" y="648" on="0"/>
        <pt x="467" y="632" on="1"/>
        <pt x="478" y="603" on="0"/>
        <pt x="489" y="533" on="0"/>
      </contour>
      <contour>
        <pt x="217" y="110" on="1"/>
        <pt x="237" y="110" on="0"/>
        <pt x="271" y="146" on="0"/>
        <pt x="298" y="205" on="0"/>
        <pt x="320" y="281" on="0"/>
        <pt x="336" y="361" on="0"/>
        <pt x="346" y="438" on="0"/>
        <pt x="349" y="469" on="1"/>
        <pt x="171" y="172" on="1"/>
        <pt x="175" y="140" on="0"/>
        <pt x="199" y="110" on="0"/>
      </contour>
      <contour>
        <pt x="304" y="623" on="1"/>
        <pt x="285" y="623" on="0"/>
        <pt x="252" y="590" on="0"/>
        <pt x="225" y="535" on="0"/>
        <pt x="204" y="463" on="0"/>
        <pt x="187" y="387" on="0"/>
        <pt x="176" y="312" on="0"/>
        <pt x="173" y="280" on="1"/>
        <pt x="349" y="567" on="1"/>
        <pt x="339" y="623" on="0"/>
      </contour>
    </TTGlyph>
    <TTGlyph name="Oslashacute" xMin="-8" yMin="-11" xMax="526" yMax="979">
      <component glyphName="Oslash" x="0" y="0" flags="0x204"/>
      <component glyphName="acute" x="149" y="280" flags="0x4"/>
    </TTGlyph>
    <TTGlyph name="Otilde" xMin="32" yMin="-11" xMax="494" yMax="917">
      <component glyphName="O" x="0" y="0" flags="0x204"/>
      <component glyphName="tilde" x="77" y="280" flags="0x4"/>
    </TTGlyph>
    <TTGlyph name="P" xMin="1" yMin="0" xMax="466" yMax="740">
      <contour>
        <pt x="466" y="528" on="1"/>
        <pt x="466" y="473" on="0"/>
        <pt x="430" y="369" on="0"/>
        <pt x="363" y="287" on="0"/>
        <pt x="267" y="237" on="0"/>
        <pt x="207" y="237" on="1"/>
        <pt x="202" y="237" on="0"/>
        <pt x="186" y="237" on="0"/>
        <pt x="181" y="238" on="1"/>
        <pt x="139" y="0" on="1"/>
        <pt x="1" y="0" on="1"/>
        <pt x="129" y="725" on="1"/>
        <pt x="150" y="730" on="0"/>
        <pt x="212" y="740" on="0"/>
        <pt x="243" y="740" on="1"/>
        <pt x="298" y="740" on="0"/>
        <pt x="382" y="707" on="0"/>
        <pt x="438" y="649" on="0"/>
        <pt x="466" y="572" on="0"/>
      </contour>
      <contour>
        <pt x="326" y="522" on="1"/>
        <pt x="326" y="564" on="0"/>
        <pt x="289" y="614" on="0"/>
        <pt x="261" y="614" on="1"/>
        <pt x="253" y="614" on="0"/>
        <pt x="247" y="612" on="1"/>
        <pt x="203" y="360" on="1"/>
        <pt x="205" y="359" on="0"/>
        <pt x="211" y="358" on="0"/>
        <pt x="216" y="358" on="1"/>
        <pt x="240" y="358" on="0"/>
        <pt x="280" y="383" on="0"/>
        <pt x="309" y="428" on="0"/>
        <pt x="326" y="487" on="0"/>
      </contour>
    </TTGlyph>
    <TTGlyph name="Q" xMin="32" yMin="-23" xMax="489" yMax="744">
      <contour>
        <pt x="489" y="491" on="1"/>
        <pt x="489" y="442" on="0"/>
        <pt x="476" y="332" on="0"/>
        <pt x="449" y="222" on="0"/>
        <pt x="407" y="121" on="0"/>
        <pt x="377" y="82" on="1"/>
        <pt x="403" y="26" on="1"/>
        <pt x="328" y="-23" on="1"/>
        <pt x="309" y="18" on="1"/>
        <pt x="287" y="4" on="0"/>
        <pt x="238" y="-11" on="0"/>
        <pt x="209" y="-11" on="1"/>
        <pt x="121" y="-11" on="0"/>
        <pt x="32" y="124" on="0"/>
        <pt x="32" y="242" on="1"/>
        <pt x="32" y="292" on="0"/>
        <pt x="45" y="405" on="0"/>
        <pt x="74" y="517" on="0"/>
        <pt x="118" y="619" on="0"/>
        <pt x="180" y="697" on="0"/>
        <pt x="261" y="744" on="0"/>
        <pt x="311" y="744" on="1"/>
        <pt x="400" y="744" on="0"/>
        <pt x="489" y="609" on="0"/>
      </contour>
      <contour>
        <pt x="352" y="523" on="1"/>
        <pt x="352" y="574" on="0"/>
        <pt x="327" y="623" on="0"/>
        <pt x="304" y="623" on="1"/>
        <pt x="281" y="623" on="0"/>
        <pt x="242" y="574" on="0"/>
        <pt x="212" y="497" on="0"/>
        <pt x="190" y="402" on="0"/>
        <pt x="176" y="310" on="0"/>
        <pt x="169" y="232" on="0"/>
        <pt x="169" y="210" on="1"/>
        <pt x="169" y="158" on="0"/>
        <pt x="194" y="110" on="0"/>
        <pt x="217" y="110" on="1"/>
        <pt x="238" y="110" on="0"/>
        <pt x="256" y="130" on="1"/>
        <pt x="206" y="238" on="1"/>
        <pt x="281" y="291" on="1"/>
        <pt x="307" y="235" on="1"/>
        <pt x="319" y="273" on="0"/>
        <pt x="336" y="358" on="0"/>
        <pt x="347" y="437" on="0"/>
        <pt x="352" y="503" on="0"/>
      </contour>
    </TTGlyph>
    <TTGlyph name="R" xMin="1" yMin="0" xMax="471" yMax="740">
      <contour>
        <pt x="471" y="542" on="1"/>
        <pt x="471" y="508" on="0"/>
        <pt x="455" y="440" on="0"/>
        <pt x="424" y="377" on="0"/>
        <pt x="379" y="323" on="0"/>
        <pt x="350" y="304" on="1"/>
        <pt x="386" y="0" on="1"/>
        <pt x="243" y="0" on="1"/>
        <pt x="224" y="262" on="1"/>
        <pt x="211" y="262" on="1"/>
        <pt x="202" y="262" on="0"/>
        <pt x="193" y="262" on="0"/>
        <pt x="185" y="263" on="1"/>
        <pt x="139" y="0" on="1"/>
        <pt x="1" y="0" on="1"/>
        <pt x="129" y="725" on="1"/>
        <pt x="150" y="730" on="0"/>
        <pt x="212" y="740" on="0"/>
        <pt x="254" y="740" on="1"/>
        <pt x="308" y="740" on="0"/>
        <pt x="389" y="709" on="0"/>
        <pt x="444" y="656" on="0"/>
        <pt x="471" y="584" on="0"/>
      </contour>
      <contour>
        <pt x="332" y="532" on="1"/>
        <pt x="332" y="570" on="0"/>
        <pt x="294" y="614" on="0"/>
        <pt x="262" y="614" on="1"/>
        <pt x="258" y="614" on="0"/>
        <pt x="253" y="613" on="0"/>
        <pt x="251" y="613" on="1"/>
        <pt x="248" y="612" on="0"/>
        <pt x="247" y="612" on="1"/>
        <pt x="205" y="376" on="1"/>
        <pt x="206" y="375" on="0"/>
        <pt x="207" y="375" on="1"/>
        <pt x="212" y="375" on="1"/>
        <pt x="239" y="375" on="0"/>
        <pt x="283" y="401" on="0"/>
        <pt x="315" y="444" on="0"/>
        <pt x="332" y="501" on="0"/>
      </contour>
    </TTGlyph>
    <TTGlyph name="Racute" xMin="1" yMin="0" xMax="479" yMax="979">
      <component glyphName="R" x="0" y="0" flags="0x204"/>
      <component glyphName="acute" x="133" y="280" flags="0x4"/>
    </TTGlyph>
    <TTGlyph name="Rcaron" xMin="1" yMin="0" xMax="484" yMax="942">
      <component glyphName="R" x="0" y="0" flags="0x204"/>
      <component glyphName="caron" x="69" y="280" flags="0x4"/>
    </TTGlyph>
    <TTGlyph name="Rcommaaccent" xMin="1" yMin="-309" xMax="471" yMax="740">
      <component glyphName="R" x="0" y="0" flags="0x204"/>
      <component glyphName="commaaccent" x="74" y="0" flags="0x4"/>
    </TTGlyph>
    <TTGlyph name="S" xMin="-21" yMin="-11" xMax="429" yMax="744">
      <contour>
        <pt x="379" y="574" on="1"/>
        <pt x="327" y="620" on="0"/>
        <pt x="281" y="620" on="1"/>
        <pt x="246" y="620" on="0"/>
        <pt x="211" y="579" on="0"/>
        <pt x="211" y="552" on="1"/>
        <pt x="211" y="519" on="0"/>
        <pt x="253" y="451" on="0"/>
        <pt x="279" y="414" on="1"/>
        <pt x="294" y="393" on="0"/>
        <pt x="325" y="346" on="0"/>
        <pt x="349" y="293" on="0"/>
        <pt x="365" y="236" on="0"/>
        <pt x="365" y="205" on="1"/>
        <pt x="365" y="160" on="0"/>
        <pt x="338" y="81" on="0"/>
        <pt x="287" y="22" on="0"/>
        <pt x="210" y="-11" on="0"/>
        <pt x="161" y="-11" on="1"/>
        <pt x="113" y="-11" on="0"/>
        <pt x="17" y="25" on="0"/>
        <pt x="-21" y="55" on="1"/>
        <pt x="25" y="178" on="1"/>
        <pt x="57" y="151" on="0"/>
        <pt x="121" y="114" on="0"/>
        <pt x="157" y="114" on="1"/>
        <pt x="188" y="114" on="0"/>
        <pt x="231" y="156" on="0"/>
        <pt x="231" y="194" on="1"/>
        <pt x="231" y="227" on="0"/>
        <pt x="190" y="294" on="0"/>
        <pt x="164" y="330" on="1"/>
        <pt x="149" y="351" on="0"/>
        <pt x="118" y="398" on="0"/>
        <pt x="93" y="450" on="0"/>
        <pt x="77" y="508" on="0"/>
        <pt x="77" y="541" on="1"/>
        <pt x="77" y="588" on="0"/>
        <pt x="107" y="663" on="0"/>
        <pt x="161" y="716" on="0"/>
        <pt x="234" y="744" on="0"/>
        <pt x="277" y="744" on="1"/>
        <pt x="327" y="744" on="0"/>
        <pt x="403" y="712" on="0"/>
        <pt x="429" y="694" on="1"/>
      </contour>
    </TTGlyph>
    <TTGlyph name="Sacute" xMin="-21" yMin="-11" xMax="453" yMax="979">
      <component glyphName="S" x="0" y="0" flags="0x204"/>
      <component glyphName="acute" x="107" y="280" flags="0x4"/>
    </TTGlyph>
    <TTGlyph name="Scaron" xMin="-21" yMin="-11" xMax="458" yMax="942">
      <component glyphName="S" x="0" y="0" flags="0x204"/>
      <component glyphName="caron" x="43" y="280" flags="0x4"/>
    </TTGlyph>
    <TTGlyph name="Scedilla" xMin="-21" yMin="-199" xMax="429" yMax="744">
      <contour>
        <pt x="228" y="-110" on="1"/>
        <pt x="228" y="-146" on="0"/>
        <pt x="170" y="-199" on="0"/>
        <pt x="119" y="-199" on="1"/>
        <pt x="90" y="-199" on="0"/>
        <pt x="37" y="-181" on="0"/>
        <pt x="20" y="-169" on="1"/>
        <pt x="47" y="-109" on="1"/>
        <pt x="74" y="-126" on="0"/>
        <pt x="110" y="-137" on="0"/>
        <pt x="125" y="-137" on="1"/>
        <pt x="139" y="-137" on="0"/>
        <pt x="157" y="-126" on="0"/>
        <pt x="157" y="-115" on="1"/>
        <pt x="157" y="-105" on="0"/>
        <pt x="131" y="-87" on="0"/>
        <pt x="87" y="-87" on="1"/>
        <pt x="85" y="-79" on="1"/>
        <pt x="118" y="-7" on="1"/>
        <pt x="80" y="-1" on="0"/>
        <pt x="9" y="32" on="0"/>
        <pt x="-21" y="55" on="1"/>
        <pt x="25" y="178" on="1"/>
        <pt x="57" y="151" on="0"/>
        <pt x="121" y="114" on="0"/>
        <pt x="157" y="114" on="1"/>
        <pt x="188" y="114" on="0"/>
        <pt x="231" y="156" on="0"/>
        <pt x="231" y="194" on="1"/>
        <pt x="231" y="227" on="0"/>
        <pt x="190" y="294" on="0"/>
        <pt x="164" y="330" on="1"/>
        <pt x="149" y="351" on="0"/>
        <pt x="118" y="398" on="0"/>
        <pt x="93" y="450" on="0"/>
        <pt x="77" y="508" on="0"/>
        <pt x="77" y="541" on="1"/>
        <pt x="77" y="588" on="0"/>
        <pt x="107" y="663" on="0"/>
        <pt x="161" y="716" on="0"/>
        <pt x="234" y="744" on="0"/>
        <pt x="277" y="744" on="1"/>
        <pt x="327" y="744" on="0"/>
        <pt x="403" y="712" on="0"/>
        <pt x="429" y="694" on="1"/>
        <pt x="379" y="574" on="1"/>
        <pt x="327" y="620" on="0"/>
        <pt x="281" y="620" on="1"/>
        <pt x="246" y="620" on="0"/>
        <pt x="211" y="579" on="0"/>
        <pt x="211" y="552" on="1"/>
        <pt x="211" y="519" on="0"/>
        <pt x="253" y="451" on="0"/>
        <pt x="279" y="414" on="1"/>
        <pt x="294" y="393" on="0"/>
        <pt x="325" y="346" on="0"/>
        <pt x="349" y="293" on="0"/>
        <pt x="365" y="236" on="0"/>
        <pt x="365" y="205" on="1"/>
        <pt x="365" y="160" on="0"/>
        <pt x="338" y="81" on="0"/>
        <pt x="287" y="22" on="0"/>
        <pt x="210" y="-11" on="0"/>
        <pt x="161" y="-11" on="1"/>
        <pt x="160" y="-11" on="1"/>
        <pt x="147" y="-36" on="1"/>
        <pt x="192" y="-43" on="0"/>
        <pt x="228" y="-84" on="0"/>
      </contour>
    </TTGlyph>
    <TTGlyph name="Scommaaccent" xMin="-21" yMin="-309" xMax="429" yMax="744">
      <component glyphName="S" x="0" y="0" flags="0x204"/>
      <component glyphName="commaaccent" x="48" y="0" flags="0x4"/>
    </TTGlyph>
    <TTGlyph name="T" xMin="82" yMin="0" xMax="456" yMax="733">
      <contour>
        <pt x="434" y="604" on="1"/>
        <pt x="327" y="604" on="1"/>
        <pt x="220" y="0" on="1"/>
        <pt x="82" y="0" on="1"/>
        <pt x="189" y="604" on="1"/>
        <pt x="82" y="604" on="1"/>
        <pt x="104" y="733" on="1"/>
        <pt x="456" y="733" on="1"/>
      </contour>
    </TTGlyph>
    <TTGlyph name="Tcaron" xMin="82" yMin="0" xMax="458" yMax="942">
      <component glyphName="T" x="0" y="0" flags="0x204"/>
      <component glyphName="caron" x="43" y="280" flags="0x4"/>
    </TTGlyph>
    <TTGlyph name="Tcommaaccent" xMin="39" yMin="-309" xMax="456" yMax="733">
      <component glyphName="T" x="0" y="0" flags="0x204"/>
      <component glyphName="commaaccent" x="48" y="0" flags="0x4"/>
    </TTGlyph>
    <TTGlyph name="Thorn" xMin="1" yMin="0" xMax="446" yMax="733">
      <contour>
        <pt x="131" y="733" on="1"/>
        <pt x="269" y="733" on="1"/>
        <pt x="250" y="626" on="1"/>
        <pt x="295" y="622" on="0"/>
        <pt x="367" y="589" on="0"/>
        <pt x="418" y="533" on="0"/>
        <pt x="446" y="459" on="0"/>
        <pt x="446" y="415" on="1"/>
        <pt x="446" y="360" on="0"/>
        <pt x="410" y="256" on="0"/>
        <pt x="343" y="174" on="0"/>
        <pt x="247" y="124" on="0"/>
        <pt x="187" y="124" on="1"/>
        <pt x="182" y="124" on="0"/>
        <pt x="166" y="124" on="0"/>
        <pt x="161" y="125" on="1"/>
        <pt x="139" y="0" on="1"/>
        <pt x="1" y="0" on="1"/>
      </contour>
      <contour>
        <pt x="306" y="409" on="1"/>
        <pt x="306" y="451" on="0"/>
        <pt x="269" y="501" on="0"/>
        <pt x="241" y="501" on="1"/>
        <pt x="233" y="501" on="0"/>
        <pt x="227" y="499" on="1"/>
        <pt x="183" y="247" on="1"/>
        <pt x="185" y="246" on="0"/>
        <pt x="191" y="245" on="0"/>
        <pt x="196" y="245" on="1"/>
        <pt x="220" y="245" on="0"/>
        <pt x="260" y="270" on="0"/>
        <pt x="289" y="315" on="0"/>
        <pt x="306" y="374" on="0"/>
      </contour>
    </TTGlyph>
    <TTGlyph name="U" xMin="30" yMin="-11" xMax="512" yMax="733">
      <contour>
        <pt x="420" y="204" on="1"/>
        <pt x="400" y="92" on="0"/>
        <pt x="290" y="-11" on="0"/>
        <pt x="203" y="-11" on="1"/>
        <pt x="167" y="-11" on="0"/>
        <pt x="104" y="7" on="0"/>
        <pt x="57" y="45" on="0"/>
        <pt x="30" y="104" on="0"/>
        <pt x="30" y="146" on="1"/>
        <pt x="30" y="157" on="0"/>
        <pt x="33" y="187" on="0"/>
        <pt x="35" y="201" on="1"/>
        <pt x="128" y="733" on="1"/>
        <pt x="266" y="733" on="1"/>
        <pt x="172" y="196" on="1"/>
        <pt x="171" y="190" on="0"/>
        <pt x="168" y="171" on="0"/>
        <pt x="168" y="160" on="1"/>
        <pt x="168" y="143" on="0"/>
        <pt x="186" y="114" on="0"/>
        <pt x="215" y="114" on="1"/>
        <pt x="247" y="114" on="0"/>
        <pt x="274" y="162" on="0"/>
        <pt x="280" y="195" on="1"/>
        <pt x="374" y="733" on="1"/>
        <pt x="512" y="733" on="1"/>
      </contour>
    </TTGlyph>
    <TTGlyph name="Uacute" xMin="30" yMin="-11" xMax="512" yMax="979">
      <component glyphName="U" x="0" y="0" flags="0x204"/>
      <component glyphName="acute" x="145" y="280" flags="0x4"/>
    </TTGlyph>
    <TTGlyph name="Ubreve" xMin="30" yMin="-11" xMax="512" yMax="929">
      <component glyphName="U" x="0" y="0" flags="0x204"/>
      <component glyphName="breve" x="83" y="280" flags="0x4"/>
    </TTGlyph>
    <TTGlyph name="Ucircumflex" xMin="30" yMin="-11" xMax="512" yMax="947">
      <component glyphName="U" x="0" y="0" flags="0x204"/>
      <component glyphName="circumflex" x="77" y="280" flags="0x4"/>
    </TTGlyph>
    <TTGlyph name="Udieresis" xMin="30" yMin="-11" xMax="512" yMax="920">
      <component glyphName="U" x="0" y="0" flags="0x204"/>
      <component glyphName="dieresis" x="81" y="280" flags="0x4"/>
    </TTGlyph>
    <TTGlyph name="Ugrave" xMin="30" yMin="-11" xMax="512" yMax="992">
      <component glyphName="U" x="0" y="0" flags="0x204"/>
      <component glyphName="grave" x="29" y="280" flags="0x4"/>
    </TTGlyph>
    <TTGlyph name="Uhungarumlaut" xMin="30" yMin="-11" xMax="560" yMax="1004">
      <component glyphName="U" x="0" y="0" flags="0x204"/>
      <component glyphName="hungarumlaut" x="117" y="280" flags="0x4"/>
    </TTGlyph>
    <TTGlyph name="Umacron" xMin="30" yMin="-11" xMax="512" yMax="880">
      <component glyphName="U" x="0" y="0" flags="0x204"/>
      <component glyphName="macron" x="82" y="280" flags="0x4"/>
    </TTGlyph>
    <TTGlyph name="Uogonek" xMin="30" yMin="-197" xMax="512" yMax="733">
      <contour>
        <pt x="420" y="204" on="1"/>
        <pt x="402" y="100" on="0"/>
        <pt x="304" y="-2" on="0"/>
        <pt x="228" y="-10" on="1"/>
        <pt x="208" y="-31" on="0"/>
        <pt x="176" y="-77" on="0"/>
        <pt x="176" y="-100" on="1"/>
        <pt x="176" y="-129" on="0"/>
        <pt x="206" y="-129" on="1"/>
        <pt x="216" y="-129" on="0"/>
        <pt x="238" y="-121" on="0"/>
        <pt x="246" y="-116" on="1"/>
        <pt x="257" y="-162" on="1"/>
        <pt x="239" y="-177" on="0"/>
        <pt x="190" y="-197" on="0"/>
        <pt x="160" y="-197" on="1"/>
        <pt x="125" y="-197" on="0"/>
        <pt x="90" y="-161" on="0"/>
        <pt x="90" y="-133" on="1"/>
        <pt x="90" y="-97" on="0"/>
        <pt x="128" y="-35" on="0"/>
        <pt x="157" y="-7" on="1"/>
        <pt x="101" y="3" on="0"/>
        <pt x="30" y="76" on="0"/>
        <pt x="30" y="146" on="1"/>
        <pt x="30" y="157" on="0"/>
        <pt x="33" y="187" on="0"/>
        <pt x="35" y="201" on="1"/>
        <pt x="128" y="733" on="1"/>
        <pt x="266" y="733" on="1"/>
        <pt x="172" y="196" on="1"/>
        <pt x="171" y="190" on="0"/>
        <pt x="168" y="171" on="0"/>
        <pt x="168" y="160" on="1"/>
        <pt x="168" y="143" on="0"/>
        <pt x="186" y="114" on="0"/>
        <pt x="215" y="114" on="1"/>
        <pt x="247" y="114" on="0"/>
        <pt x="274" y="162" on="0"/>
        <pt x="280" y="195" on="1"/>
        <pt x="374" y="733" on="1"/>
        <pt x="512" y="733" on="1"/>
      </contour>
    </TTGlyph>
    <TTGlyph name="Uring" xMin="30" yMin="-11" xMax="512" yMax="998">
      <component glyphName="U" x="0" y="0" flags="0x204"/>
      <component glyphName="ring" x="82" y="280" flags="0x4"/>
    </TTGlyph>
    <TTGlyph name="V" xMin="94" yMin="-6" xMax="525" yMax="734">
      <contour>
        <pt x="230" y="-6" on="1"/>
        <pt x="105" y="-6" on="1"/>
        <pt x="94" y="734" on="1"/>
        <pt x="231" y="734" on="1"/>
        <pt x="222" y="279" on="1"/>
        <pt x="382" y="734" on="1"/>
        <pt x="525" y="734" on="1"/>
      </contour>
    </TTGlyph>
    <TTGlyph name="W" xMin="76" yMin="0" xMax="692" yMax="733">
      <contour>
        <pt x="451" y="0" on="1"/>
        <pt x="361" y="0" on="1"/>
        <pt x="331" y="394" on="1"/>
        <pt x="168" y="0" on="1"/>
        <pt x="76" y="0" on="1"/>
        <pt x="94" y="733" on="1"/>
        <pt x="232" y="733" on="1"/>
        <pt x="202" y="332" on="1"/>
        <pt x="348" y="733" on="1"/>
        <pt x="428" y="733" on="1"/>
        <pt x="440" y="332" on="1"/>
        <pt x="551" y="733" on="1"/>
        <pt x="692" y="733" on="1"/>
      </contour>
    </TTGlyph>
    <TTGlyph name="Wacute" xMin="76" yMin="0" xMax="692" yMax="979">
      <component glyphName="W" x="0" y="0" flags="0x204"/>
      <component glyphName="acute" x="218" y="280" flags="0x4"/>
    </TTGlyph>
    <TTGlyph name="Wcircumflex" xMin="76" yMin="0" xMax="692" yMax="947">
      <component glyphName="W" x="0" y="0" flags="0x204"/>
      <component glyphName="circumflex" x="151" y="280" flags="0x4"/>
    </TTGlyph>
    <TTGlyph name="Wdieresis" xMin="76" yMin="0" xMax="692" yMax="920">
      <component glyphName="W" x="0" y="0" flags="0x204"/>
      <component glyphName="dieresis" x="155" y="280" flags="0x4"/>
    </TTGlyph>
    <TTGlyph name="Wgrave" xMin="76" yMin="0" xMax="692" yMax="992">
      <component glyphName="W" x="0" y="0" flags="0x204"/>
      <component glyphName="grave" x="102" y="280" flags="0x4"/>
    </TTGlyph>
    <TTGlyph name="X" xMin="-42" yMin="0" xMax="508" yMax="733">
      <contour>
        <pt x="319" y="365" on="1"/>
        <pt x="387" y="0" on="1"/>
        <pt x="248" y="0" on="1"/>
        <pt x="217" y="245" on="1"/>
        <pt x="98" y="0" on="1"/>
        <pt x="-42" y="0" on="1"/>
        <pt x="160" y="373" on="1"/>
        <pt x="94" y="733" on="1"/>
        <pt x="231" y="733" on="1"/>
        <pt x="262" y="501" on="1"/>
        <pt x="367" y="733" on="1"/>
        <pt x="508" y="733" on="1"/>
      </contour>
    </TTGlyph>
    <TTGlyph name="Y" xMin="79" yMin="0" xMax="507" yMax="733">
      <contour>
        <pt x="277" y="258" on="1"/>
        <pt x="232" y="0" on="1"/>
        <pt x="94" y="0" on="1"/>
        <pt x="140" y="259" on="1"/>
        <pt x="79" y="733" on="1"/>
        <pt x="214" y="733" on="1"/>
        <pt x="238" y="436" on="1"/>
        <pt x="362" y="733" on="1"/>
        <pt x="507" y="733" on="1"/>
      </contour>
    </TTGlyph>
    <TTGlyph name="Yacute" xMin="79" yMin="0" xMax="507" yMax="979">
      <component glyphName="Y" x="0" y="0" flags="0x204"/>
      <component glyphName="acute" x="117" y="280" flags="0x4"/>
    </TTGlyph>
    <TTGlyph name="Ycircumflex" xMin="79" yMin="0" xMax="507" yMax="947">
      <component glyphName="Y" x="0" y="0" flags="0x204"/>
      <component glyphName="circumflex" x="50" y="280" flags="0x4"/>
    </TTGlyph>
    <TTGlyph name="Ydieresis" xMin="79" yMin="0" xMax="507" yMax="920">
      <component glyphName="Y" x="0" y="0" flags="0x204"/>
      <component glyphName="dieresis" x="54" y="280" flags="0x4"/>
    </TTGlyph>
    <TTGlyph name="Ygrave" xMin="79" yMin="0" xMax="507" yMax="992">
      <component glyphName="Y" x="0" y="0" flags="0x204"/>
      <component glyphName="grave" x="1" y="280" flags="0x4"/>
    </TTGlyph>
    <TTGlyph name="Z" xMin="-34" yMin="0" xMax="468" yMax="733">
      <contour>
        <pt x="164" y="128" on="1"/>
        <pt x="346" y="128" on="1"/>
        <pt x="323" y="0" on="1"/>
        <pt x="-29" y="0" on="1"/>
        <pt x="-34" y="20" on="1"/>
        <pt x="276" y="605" on="1"/>
        <pt x="93" y="605" on="1"/>
        <pt x="116" y="733" on="1"/>
        <pt x="463" y="733" on="1"/>
        <pt x="468" y="713" on="1"/>
      </contour>
    </TTGlyph>
    <TTGlyph name="Zacute" xMin="-34" yMin="0" xMax="468" yMax="979">
      <component glyphName="Z" x="0" y="0" flags="0x204"/>
      <component glyphName="acute" x="108" y="280" flags="0x4"/>
    </TTGlyph>
    <TTGlyph name="Zcaron" xMin="-34" yMin="0" xMax="468" yMax="942">
      <component glyphName="Z" x="0" y="0" flags="0x204"/>
      <component glyphName="caron" x="44" y="280" flags="0x4"/>
    </TTGlyph>
    <TTGlyph name="Zdotaccent" xMin="-34" yMin="0" xMax="468" yMax="920">
      <component glyphName="Z" x="0" y="0" flags="0x204"/>
      <component glyphName="dotaccent" x="45" y="280" flags="0x4"/>
    </TTGlyph>
    <TTGlyph name="a" xMin="-7" yMin="-7" xMax="343" yMax="484">
      <contour>
        <pt x="343" y="367" on="1"/>
        <pt x="343" y="351" on="0"/>
        <pt x="340" y="333" on="1"/>
        <pt x="282" y="0" on="1"/>
        <pt x="166" y="0" on="1"/>
        <pt x="174" y="47" on="1"/>
        <pt x="157" y="25" on="0"/>
        <pt x="115" y="-7" on="0"/>
        <pt x="83" y="-7" on="1"/>
        <pt x="43" y="-7" on="0"/>
        <pt x="-7" y="59" on="0"/>
        <pt x="-7" y="116" on="1"/>
        <pt x="-7" y="152" on="0"/>
        <pt x="13" y="218" on="0"/>
        <pt x="50" y="269" on="0"/>
        <pt x="101" y="300" on="0"/>
        <pt x="132" y="300" on="1"/>
        <pt x="158" y="300" on="0"/>
        <pt x="195" y="282" on="0"/>
        <pt x="209" y="272" on="1"/>
        <pt x="215" y="309" on="1"/>
        <pt x="216" y="313" on="0"/>
        <pt x="217" y="326" on="0"/>
        <pt x="217" y="329" on="1"/>
        <pt x="217" y="351" on="0"/>
        <pt x="184" y="374" on="0"/>
        <pt x="155" y="374" on="1"/>
        <pt x="144" y="374" on="0"/>
        <pt x="121" y="370" on="0"/>
        <pt x="100" y="364" on="0"/>
        <pt x="85" y="359" on="0"/>
        <pt x="82" y="358" on="1"/>
        <pt x="84" y="460" on="1"/>
        <pt x="107" y="469" on="0"/>
        <pt x="173" y="484" on="0"/>
        <pt x="199" y="484" on="1"/>
        <pt x="264" y="484" on="0"/>
        <pt x="343" y="427" on="0"/>
      </contour>
      <contour>
        <pt x="198" y="209" on="1"/>
        <pt x="194" y="213" on="0"/>
        <pt x="177" y="223" on="0"/>
        <pt x="165" y="223" on="1"/>
        <pt x="143" y="223" on="0"/>
        <pt x="114" y="170" on="0"/>
        <pt x="114" y="134" on="1"/>
        <pt x="114" y="108" on="0"/>
        <pt x="134" y="88" on="0"/>
        <pt x="147" y="88" on="1"/>
        <pt x="156" y="88" on="0"/>
        <pt x="170" y="92" on="0"/>
        <pt x="177" y="95" on="1"/>
      </contour>
    </TTGlyph>
    <TTGlyph name="aacute" xMin="-7" yMin="-7" xMax="395" yMax="704">
      <component glyphName="a" x="0" y="0" flags="0x204"/>
      <component glyphName="acute" x="49" y="5" flags="0x4"/>
    </TTGlyph>
    <TTGlyph name="abreve" xMin="-7" yMin="-7" xMax="391" yMax="654">
      <component glyphName="a" x="0" y="0" flags="0x204"/>
      <component glyphName="breve" x="-12" y="5" flags="0x4"/>
    </TTGlyph>
    <TTGlyph name="acircumflex" xMin="-7" yMin="-7" xMax="373" yMax="672">
      <component glyphName="a" x="0" y="0" flags="0x204"/>
      <component glyphName="circumflex" x="-17" y="5" flags="0x4"/>
    </TTGlyph>
    <TTGlyph name="acute" xMin="138" yMin="513" xMax="346" yMax="699">
      <contour>
        <pt x="174" y="513" on="1"/>
        <pt x="138" y="564" on="1"/>
        <pt x="288" y="699" on="1"/>
        <pt x="346" y="612" on="1"/>
      </contour>
    </TTGlyph>
    <TTGlyph name="adieresis" xMin="-7" yMin="-7" xMax="387" yMax="645">
      <component glyphName="a" x="0" y="0" flags="0x204"/>
      <component glyphName="dieresis" x="-13" y="5" flags="0x4"/>
    </TTGlyph>
    <TTGlyph name="ae" xMin="-4" yMin="-11" xMax="527" yMax="484">
      <contour>
        <pt x="108" y="-7" on="1"/>
        <pt x="54" y="-7" on="0"/>
        <pt x="-4" y="65" on="0"/>
        <pt x="-4" y="124" on="1"/>
        <pt x="-4" y="158" on="0"/>
        <pt x="16" y="221" on="0"/>
        <pt x="52" y="270" on="0"/>
        <pt x="102" y="300" on="0"/>
        <pt x="133" y="300" on="1"/>
        <pt x="159" y="300" on="0"/>
        <pt x="196" y="282" on="0"/>
        <pt x="210" y="272" on="1"/>
        <pt x="216" y="309" on="1"/>
        <pt x="217" y="313" on="0"/>
        <pt x="218" y="326" on="0"/>
        <pt x="218" y="329" on="1"/>
        <pt x="218" y="351" on="0"/>
        <pt x="185" y="374" on="0"/>
        <pt x="156" y="374" on="1"/>
        <pt x="145" y="374" on="0"/>
        <pt x="122" y="370" on="0"/>
        <pt x="101" y="364" on="0"/>
        <pt x="86" y="359" on="0"/>
        <pt x="83" y="358" on="1"/>
        <pt x="85" y="460" on="1"/>
        <pt x="108" y="469" on="0"/>
        <pt x="174" y="484" on="0"/>
        <pt x="200" y="484" on="1"/>
        <pt x="242" y="484" on="0"/>
        <pt x="285" y="458" on="0"/>
        <pt x="296" y="430" on="1"/>
        <pt x="336" y="484" on="0"/>
        <pt x="399" y="484" on="1"/>
        <pt x="432" y="484" on="0"/>
        <pt x="481" y="460" on="0"/>
        <pt x="512" y="417" on="0"/>
        <pt x="527" y="358" on="0"/>
        <pt x="527" y="323" on="1"/>
        <pt x="527" y="293" on="0"/>
        <pt x="512" y="223" on="0"/>
        <pt x="504" y="196" on="1"/>
        <pt x="303" y="196" on="1"/>
        <pt x="302" y="190" on="0"/>
        <pt x="302" y="177" on="0"/>
        <pt x="302" y="170" on="1"/>
        <pt x="302" y="135" on="0"/>
        <pt x="339" y="97" on="0"/>
        <pt x="372" y="97" on="1"/>
        <pt x="397" y="97" on="0"/>
        <pt x="440" y="113" on="0"/>
        <pt x="452" y="118" on="1"/>
        <pt x="454" y="17" on="1"/>
        <pt x="428" y="4" on="0"/>
        <pt x="373" y="-11" on="0"/>
        <pt x="350" y="-11" on="1"/>
        <pt x="301" y="-11" on="0"/>
        <pt x="242" y="39" on="0"/>
        <pt x="233" y="77" on="1"/>
        <pt x="226" y="66" on="0"/>
        <pt x="206" y="37" on="0"/>
        <pt x="176" y="11" on="0"/>
        <pt x="135" y="-7" on="0"/>
      </contour>
      <contour>
        <pt x="415" y="271" on="1"/>
        <pt x="417" y="283" on="0"/>
        <pt x="421" y="313" on="0"/>
        <pt x="421" y="327" on="1"/>
        <pt x="421" y="347" on="0"/>
        <pt x="409" y="379" on="0"/>
        <pt x="391" y="379" on="1"/>
        <pt x="377" y="379" on="0"/>
        <pt x="355" y="361" on="0"/>
        <pt x="336" y="331" on="0"/>
        <pt x="321" y="292" on="0"/>
        <pt x="316" y="271" on="1"/>
      </contour>
      <contour>
        <pt x="140" y="88" on="1"/>
        <pt x="154" y="88" on="0"/>
        <pt x="174" y="113" on="0"/>
        <pt x="189" y="149" on="0"/>
        <pt x="197" y="191" on="0"/>
        <pt x="199" y="209" on="1"/>
        <pt x="194" y="214" on="0"/>
        <pt x="177" y="223" on="0"/>
        <pt x="166" y="223" on="1"/>
        <pt x="144" y="223" on="0"/>
        <pt x="113" y="170" on="0"/>
        <pt x="113" y="134" on="1"/>
        <pt x="113" y="108" on="0"/>
        <pt x="130" y="88" on="0"/>
      </contour>
    </TTGlyph>
    <TTGlyph name="aeacute" xMin="-4" yMin="-11" xMax="527" yMax="699">
      <component glyphName="ae" x="0" y="0" flags="0x204"/>
      <component glyphName="acute" x="127" y="0" flags="0x4"/>
    </TTGlyph>
    <TTGlyph name="agrave" xMin="-7" yMin="-7" xMax="343" yMax="717">
      <component glyphName="a" x="0" y="0" flags="0x204"/>
      <component glyphName="grave" x="-66" y="5" flags="0x4"/>
    </TTGlyph>
    <TTGlyph name="amacron" xMin="-7" yMin="-7" xMax="368" yMax="605">
      <component glyphName="a" x="0" y="0" flags="0x204"/>
      <component glyphName="macron" x="-13" y="5" flags="0x4"/>
    </TTGlyph>
    <TTGlyph name="ampersand" xMin="1" yMin="-17" xMax="492" yMax="733">
      <contour>
        <pt x="492" y="311" on="1"/>
        <pt x="467" y="263" on="0"/>
        <pt x="417" y="178" on="0"/>
        <pt x="391" y="142" on="1"/>
        <pt x="408" y="113" on="0"/>
        <pt x="439" y="68" on="0"/>
        <pt x="451" y="51" on="1"/>
        <pt x="335" y="-17" on="1"/>
        <pt x="300" y="42" on="1"/>
        <pt x="268" y="16" on="0"/>
        <pt x="201" y="-11" on="0"/>
        <pt x="166" y="-11" on="1"/>
        <pt x="87" y="-11" on="0"/>
        <pt x="1" y="85" on="0"/>
        <pt x="1" y="162" on="1"/>
        <pt x="1" y="188" on="0"/>
        <pt x="13" y="248" on="0"/>
        <pt x="46" y="309" on="0"/>
        <pt x="101" y="365" on="0"/>
        <pt x="145" y="388" on="1"/>
        <pt x="128" y="454" on="0"/>
        <pt x="128" y="512" on="1"/>
        <pt x="128" y="554" on="0"/>
        <pt x="150" y="633" on="0"/>
        <pt x="195" y="695" on="0"/>
        <pt x="264" y="733" on="0"/>
        <pt x="310" y="733" on="1"/>
        <pt x="343" y="733" on="0"/>
        <pt x="398" y="709" on="0"/>
        <pt x="436" y="669" on="0"/>
        <pt x="457" y="616" on="0"/>
        <pt x="457" y="586" on="1"/>
        <pt x="457" y="514" on="0"/>
        <pt x="374" y="389" on="0"/>
        <pt x="288" y="349" on="1"/>
        <pt x="298" y="323" on="0"/>
        <pt x="321" y="271" on="0"/>
        <pt x="334" y="245" on="1"/>
        <pt x="357" y="283" on="0"/>
        <pt x="389" y="349" on="0"/>
        <pt x="396" y="365" on="1"/>
      </contour>
      <contour>
        <pt x="249" y="135" on="1"/>
        <pt x="230" y="170" on="0"/>
        <pt x="194" y="247" on="0"/>
        <pt x="179" y="286" on="1"/>
        <pt x="158" y="267" on="0"/>
        <pt x="133" y="216" on="0"/>
        <pt x="133" y="180" on="1"/>
        <pt x="133" y="167" on="0"/>
        <pt x="140" y="141" on="0"/>
        <pt x="154" y="120" on="0"/>
        <pt x="177" y="107" on="0"/>
        <pt x="193" y="107" on="1"/>
        <pt x="207" y="107" on="0"/>
        <pt x="235" y="122" on="0"/>
      </contour>
      <contour>
        <pt x="340" y="571" on="1"/>
        <pt x="340" y="597" on="0"/>
        <pt x="320" y="622" on="0"/>
        <pt x="305" y="622" on="1"/>
        <pt x="291" y="622" on="0"/>
        <pt x="271" y="603" on="0"/>
        <pt x="258" y="573" on="0"/>
        <pt x="252" y="533" on="0"/>
        <pt x="252" y="512" on="1"/>
        <pt x="252" y="476" on="0"/>
        <pt x="261" y="439" on="1"/>
        <pt x="299" y="462" on="0"/>
        <pt x="340" y="530" on="0"/>
      </contour>
    </TTGlyph>
    <TTGlyph name="ampersand.cap" xMin="1" yMin="-17" xMax="492" yMax="733">
      <contour>
        <pt x="492" y="311" on="1"/>
        <pt x="467" y="263" on="0"/>
        <pt x="417" y="178" on="0"/>
        <pt x="391" y="142" on="1"/>
        <pt x="408" y="113" on="0"/>
        <pt x="439" y="68" on="0"/>
        <pt x="451" y="51" on="1"/>
        <pt x="335" y="-17" on="1"/>
        <pt x="300" y="42" on="1"/>
        <pt x="268" y="16" on="0"/>
        <pt x="201" y="-11" on="0"/>
        <pt x="166" y="-11" on="1"/>
        <pt x="87" y="-11" on="0"/>
        <pt x="1" y="85" on="0"/>
        <pt x="1" y="162" on="1"/>
        <pt x="1" y="188" on="0"/>
        <pt x="13" y="248" on="0"/>
        <pt x="46" y="309" on="0"/>
        <pt x="101" y="365" on="0"/>
        <pt x="145" y="388" on="1"/>
        <pt x="128" y="454" on="0"/>
        <pt x="128" y="512" on="1"/>
        <pt x="128" y="554" on="0"/>
        <pt x="150" y="633" on="0"/>
        <pt x="195" y="695" on="0"/>
        <pt x="264" y="733" on="0"/>
        <pt x="310" y="733" on="1"/>
        <pt x="343" y="733" on="0"/>
        <pt x="398" y="709" on="0"/>
        <pt x="436" y="669" on="0"/>
        <pt x="457" y="616" on="0"/>
        <pt x="457" y="586" on="1"/>
        <pt x="457" y="514" on="0"/>
        <pt x="374" y="389" on="0"/>
        <pt x="288" y="349" on="1"/>
        <pt x="298" y="323" on="0"/>
        <pt x="321" y="271" on="0"/>
        <pt x="334" y="245" on="1"/>
        <pt x="357" y="283" on="0"/>
        <pt x="389" y="349" on="0"/>
        <pt x="396" y="365" on="1"/>
      </contour>
      <contour>
        <pt x="249" y="135" on="1"/>
        <pt x="230" y="170" on="0"/>
        <pt x="194" y="247" on="0"/>
        <pt x="179" y="286" on="1"/>
        <pt x="158" y="267" on="0"/>
        <pt x="133" y="216" on="0"/>
        <pt x="133" y="180" on="1"/>
        <pt x="133" y="167" on="0"/>
        <pt x="140" y="141" on="0"/>
        <pt x="154" y="120" on="0"/>
        <pt x="177" y="107" on="0"/>
        <pt x="193" y="107" on="1"/>
        <pt x="207" y="107" on="0"/>
        <pt x="235" y="122" on="0"/>
      </contour>
      <contour>
        <pt x="261" y="439" on="1"/>
        <pt x="299" y="462" on="0"/>
        <pt x="340" y="530" on="0"/>
        <pt x="340" y="571" on="1"/>
        <pt x="340" y="597" on="0"/>
        <pt x="320" y="622" on="0"/>
        <pt x="305" y="622" on="1"/>
        <pt x="291" y="622" on="0"/>
        <pt x="271" y="603" on="0"/>
        <pt x="258" y="573" on="0"/>
        <pt x="252" y="533" on="0"/>
        <pt x="252" y="512" on="1"/>
        <pt x="252" y="476" on="0"/>
      </contour>
    </TTGlyph>
    <TTGlyph name="aogonek" xMin="-7" yMin="-197" xMax="343" yMax="484">
      <contour>
        <pt x="257" y="-162" on="1"/>
        <pt x="239" y="-177" on="0"/>
        <pt x="190" y="-197" on="0"/>
        <pt x="160" y="-197" on="1"/>
        <pt x="125" y="-197" on="0"/>
        <pt x="90" y="-161" on="0"/>
        <pt x="90" y="-133" on="1"/>
        <pt x="90" y="-94" on="0"/>
        <pt x="135" y="-28" on="0"/>
        <pt x="166" y="1" on="1"/>
        <pt x="174" y="47" on="1"/>
        <pt x="157" y="25" on="0"/>
        <pt x="115" y="-7" on="0"/>
        <pt x="83" y="-7" on="1"/>
        <pt x="43" y="-7" on="0"/>
        <pt x="-7" y="59" on="0"/>
        <pt x="-7" y="116" on="1"/>
        <pt x="-7" y="152" on="0"/>
        <pt x="13" y="218" on="0"/>
        <pt x="50" y="269" on="0"/>
        <pt x="101" y="300" on="0"/>
        <pt x="132" y="300" on="1"/>
        <pt x="158" y="300" on="0"/>
        <pt x="195" y="282" on="0"/>
        <pt x="209" y="272" on="1"/>
        <pt x="215" y="309" on="1"/>
        <pt x="216" y="313" on="0"/>
        <pt x="217" y="326" on="0"/>
        <pt x="217" y="329" on="1"/>
        <pt x="217" y="351" on="0"/>
        <pt x="184" y="374" on="0"/>
        <pt x="155" y="374" on="1"/>
        <pt x="144" y="374" on="0"/>
        <pt x="121" y="370" on="0"/>
        <pt x="100" y="364" on="0"/>
        <pt x="85" y="359" on="0"/>
        <pt x="82" y="358" on="1"/>
        <pt x="84" y="460" on="1"/>
        <pt x="107" y="469" on="0"/>
        <pt x="173" y="484" on="0"/>
        <pt x="199" y="484" on="1"/>
        <pt x="264" y="484" on="0"/>
        <pt x="343" y="427" on="0"/>
        <pt x="343" y="367" on="1"/>
        <pt x="343" y="351" on="0"/>
        <pt x="340" y="333" on="1"/>
        <pt x="282" y="0" on="1"/>
        <pt x="238" y="0" on="1"/>
        <pt x="215" y="-23" on="0"/>
        <pt x="176" y="-74" on="0"/>
        <pt x="176" y="-100" on="1"/>
        <pt x="176" y="-129" on="0"/>
        <pt x="206" y="-129" on="1"/>
        <pt x="216" y="-129" on="0"/>
        <pt x="238" y="-121" on="0"/>
        <pt x="246" y="-116" on="1"/>
      </contour>
      <contour>
        <pt x="198" y="209" on="1"/>
        <pt x="194" y="213" on="0"/>
        <pt x="177" y="223" on="0"/>
        <pt x="165" y="223" on="1"/>
        <pt x="143" y="223" on="0"/>
        <pt x="114" y="170" on="0"/>
        <pt x="114" y="134" on="1"/>
        <pt x="114" y="108" on="0"/>
        <pt x="134" y="88" on="0"/>
        <pt x="147" y="88" on="1"/>
        <pt x="156" y="88" on="0"/>
        <pt x="170" y="92" on="0"/>
        <pt x="177" y="95" on="1"/>
      </contour>
    </TTGlyph>
    <TTGlyph name="aring" xMin="-7" yMin="-7" xMax="362" yMax="723">
      <component glyphName="a" x="0" y="0" flags="0x204"/>
      <component glyphName="ring" x="-12" y="5" flags="0x4"/>
    </TTGlyph>
    <TTGlyph name="aringacute" xMin="-7" yMin="-7" xMax="440" yMax="933">
      <component glyphName="acute" x="94" y="234" flags="0x4"/>
      <component glyphName="a" x="0" y="0" flags="0x4"/>
      <component glyphName="ring" x="-13" y="0" flags="0x4"/>
    </TTGlyph>
    <TTGlyph name="arrowleft" xMin="21" yMin="41" xMax="402" yMax="495">
      <contour>
        <pt x="149" y="214" on="1"/>
        <pt x="205" y="94" on="1"/>
        <pt x="119" y="41" on="1"/>
        <pt x="21" y="260" on="1"/>
        <pt x="24" y="276" on="1"/>
        <pt x="200" y="495" on="1"/>
        <pt x="277" y="434" on="1"/>
        <pt x="181" y="322" on="1"/>
        <pt x="402" y="322" on="1"/>
        <pt x="382" y="214" on="1"/>
      </contour>
    </TTGlyph>
    <TTGlyph name="arrowleft.cap" xMin="40" yMin="144" xMax="421" yMax="598">
      <component glyphName="arrowleft" x="19" y="103" flags="0x204"/>
    </TTGlyph>
    <TTGlyph name="arrowright" xMin="28" yMin="41" xMax="409" yMax="495">
      <contour>
        <pt x="281" y="322" on="1"/>
        <pt x="225" y="442" on="1"/>
        <pt x="311" y="495" on="1"/>
        <pt x="409" y="276" on="1"/>
        <pt x="406" y="260" on="1"/>
        <pt x="230" y="41" on="1"/>
        <pt x="153" y="102" on="1"/>
        <pt x="249" y="214" on="1"/>
        <pt x="28" y="214" on="1"/>
        <pt x="48" y="322" on="1"/>
      </contour>
    </TTGlyph>
    <TTGlyph name="arrowright.cap" xMin="46" yMin="144" xMax="427" yMax="598">
      <component glyphName="arrowright" x="18" y="103" flags="0x204"/>
    </TTGlyph>
    <TTGlyph name="asciicircum" xMin="103" yMin="557" xMax="415" yMax="733">
      <contour>
        <pt x="310" y="557" on="1"/>
        <pt x="278" y="647" on="1"/>
        <pt x="209" y="557" on="1"/>
        <pt x="103" y="557" on="1"/>
        <pt x="253" y="733" on="1"/>
        <pt x="330" y="733" on="1"/>
        <pt x="415" y="557" on="1"/>
      </contour>
    </TTGlyph>
    <TTGlyph name="asciitilde" xMin="36" yMin="200" xMax="382" yMax="339">
      <contour>
        <pt x="382" y="251" on="1"/>
        <pt x="358" y="228" on="0"/>
        <pt x="292" y="201" on="0"/>
        <pt x="263" y="201" on="1"/>
        <pt x="244" y="201" on="0"/>
        <pt x="216" y="210" on="0"/>
        <pt x="200" y="218" on="1"/>
        <pt x="181" y="228" on="0"/>
        <pt x="153" y="235" on="0"/>
        <pt x="139" y="235" on="1"/>
        <pt x="120" y="235" on="0"/>
        <pt x="81" y="218" on="0"/>
        <pt x="62" y="200" on="1"/>
        <pt x="36" y="277" on="1"/>
        <pt x="100" y="335" on="0"/>
        <pt x="155" y="335" on="1"/>
        <pt x="174" y="335" on="0"/>
        <pt x="202" y="326" on="0"/>
        <pt x="218" y="318" on="1"/>
        <pt x="237" y="308" on="0"/>
        <pt x="265" y="301" on="0"/>
        <pt x="279" y="301" on="1"/>
        <pt x="315" y="301" on="0"/>
        <pt x="356" y="339" on="1"/>
      </contour>
    </TTGlyph>
    <TTGlyph name="asterisk" xMin="73" yMin="511" xMax="305" yMax="732">
      <contour>
        <pt x="227" y="607" on="1"/>
        <pt x="267" y="549" on="1"/>
        <pt x="208" y="511" on="1"/>
        <pt x="180" y="577" on="1"/>
        <pt x="130" y="511" on="1"/>
        <pt x="83" y="549" on="1"/>
        <pt x="145" y="607" on="1"/>
        <pt x="73" y="624" on="1"/>
        <pt x="104" y="686" on="1"/>
        <pt x="168" y="656" on="1"/>
        <pt x="175" y="732" on="1"/>
        <pt x="241" y="732" on="1"/>
        <pt x="220" y="656" on="1"/>
        <pt x="296" y="686" on="1"/>
        <pt x="305" y="624" on="1"/>
      </contour>
    </TTGlyph>
    <TTGlyph name="at" xMin="49" yMin="-11" xMax="497" yMax="669">
      <contour>
        <pt x="497" y="433" on="1"/>
        <pt x="497" y="395" on="0"/>
        <pt x="483" y="303" on="0"/>
        <pt x="453" y="221" on="0"/>
        <pt x="404" y="166" on="0"/>
        <pt x="368" y="166" on="1"/>
        <pt x="342" y="166" on="0"/>
        <pt x="314" y="196" on="0"/>
        <pt x="307" y="216" on="1"/>
        <pt x="305" y="213" on="0"/>
        <pt x="292" y="198" on="0"/>
        <pt x="273" y="181" on="0"/>
        <pt x="246" y="169" on="0"/>
        <pt x="230" y="169" on="1"/>
        <pt x="195" y="169" on="0"/>
        <pt x="155" y="214" on="0"/>
        <pt x="155" y="252" on="1"/>
        <pt x="155" y="297" on="0"/>
        <pt x="203" y="360" on="0"/>
        <pt x="244" y="360" on="1"/>
        <pt x="263" y="360" on="0"/>
        <pt x="289" y="347" on="0"/>
        <pt x="300" y="340" on="1"/>
        <pt x="304" y="360" on="0"/>
        <pt x="304" y="369" on="1"/>
        <pt x="304" y="385" on="0"/>
        <pt x="279" y="401" on="0"/>
        <pt x="259" y="401" on="1"/>
        <pt x="246" y="401" on="0"/>
        <pt x="215" y="392" on="0"/>
        <pt x="211" y="390" on="1"/>
        <pt x="213" y="462" on="1"/>
        <pt x="229" y="469" on="0"/>
        <pt x="275" y="479" on="0"/>
        <pt x="291" y="479" on="1"/>
        <pt x="334" y="479" on="0"/>
        <pt x="389" y="438" on="0"/>
        <pt x="389" y="396" on="1"/>
        <pt x="389" y="390" on="0"/>
        <pt x="388" y="378" on="0"/>
        <pt x="387" y="372" on="1"/>
        <pt x="372" y="287" on="1"/>
        <pt x="365" y="247" on="0"/>
        <pt x="374" y="220" on="0"/>
        <pt x="385" y="220" on="1"/>
        <pt x="403" y="220" on="0"/>
        <pt x="430" y="264" on="0"/>
        <pt x="447" y="329" on="0"/>
        <pt x="456" y="400" on="0"/>
        <pt x="456" y="427" on="1"/>
        <pt x="456" y="468" on="0"/>
        <pt x="441" y="541" on="0"/>
        <pt x="409" y="595" on="0"/>
        <pt x="359" y="626" on="0"/>
        <pt x="324" y="626" on="1"/>
        <pt x="278" y="626" on="0"/>
        <pt x="194" y="567" on="0"/>
        <pt x="129" y="465" on="0"/>
        <pt x="90" y="325" on="0"/>
        <pt x="90" y="244" on="1"/>
        <pt x="90" y="199" on="0"/>
        <pt x="108" y="121" on="0"/>
        <pt x="146" y="64" on="0"/>
        <pt x="204" y="32" on="0"/>
        <pt x="243" y="32" on="1"/>
        <pt x="271" y="32" on="0"/>
        <pt x="319" y="46" on="0"/>
        <pt x="333" y="54" on="1"/>
        <pt x="340" y="13" on="1"/>
        <pt x="326" y="5" on="0"/>
        <pt x="271" y="-11" on="0"/>
        <pt x="240" y="-11" on="1"/>
        <pt x="193" y="-11" on="0"/>
        <pt x="122" y="25" on="0"/>
        <pt x="74" y="91" on="0"/>
        <pt x="49" y="182" on="0"/>
        <pt x="49" y="237" on="1"/>
        <pt x="49" y="331" on="0"/>
        <pt x="95" y="489" on="0"/>
        <pt x="172" y="604" on="0"/>
        <pt x="274" y="669" on="0"/>
        <pt x="330" y="669" on="1"/>
        <pt x="372" y="669" on="0"/>
        <pt x="434" y="633" on="0"/>
        <pt x="476" y="569" on="0"/>
        <pt x="497" y="483" on="0"/>
      </contour>
      <contour>
        <pt x="292" y="295" on="1"/>
        <pt x="289" y="298" on="0"/>
        <pt x="277" y="305" on="0"/>
        <pt x="268" y="305" on="1"/>
        <pt x="253" y="305" on="0"/>
        <pt x="237" y="280" on="0"/>
        <pt x="237" y="264" on="1"/>
        <pt x="237" y="247" on="0"/>
        <pt x="250" y="237" on="0"/>
        <pt x="257" y="237" on="1"/>
        <pt x="267" y="237" on="0"/>
        <pt x="282" y="248" on="0"/>
        <pt x="285" y="252" on="1"/>
      </contour>
    </TTGlyph>
    <TTGlyph name="at.cap" xMin="51" yMin="-11" xMax="510" yMax="744">
      <contour>
        <pt x="342" y="13" on="1"/>
        <pt x="328" y="5" on="0"/>
        <pt x="273" y="-11" on="0"/>
        <pt x="242" y="-11" on="1"/>
        <pt x="194" y="-11" on="0"/>
        <pt x="122" y="25" on="0"/>
        <pt x="75" y="93" on="0"/>
        <pt x="51" y="187" on="0"/>
        <pt x="51" y="246" on="1"/>
        <pt x="51" y="342" on="0"/>
        <pt x="98" y="522" on="0"/>
        <pt x="178" y="661" on="0"/>
        <pt x="286" y="744" on="0"/>
        <pt x="346" y="744" on="1"/>
        <pt x="390" y="744" on="0"/>
        <pt x="452" y="706" on="0"/>
        <pt x="492" y="641" on="0"/>
        <pt x="510" y="554" on="0"/>
        <pt x="510" y="504" on="1"/>
        <pt x="510" y="477" on="0"/>
        <pt x="503" y="409" on="0"/>
        <pt x="488" y="337" on="0"/>
        <pt x="465" y="270" on="0"/>
        <pt x="434" y="216" on="0"/>
        <pt x="395" y="184" on="0"/>
        <pt x="371" y="184" on="1"/>
        <pt x="345" y="184" on="0"/>
        <pt x="317" y="214" on="0"/>
        <pt x="310" y="234" on="1"/>
        <pt x="308" y="231" on="0"/>
        <pt x="295" y="216" on="0"/>
        <pt x="275" y="199" on="0"/>
        <pt x="248" y="187" on="0"/>
        <pt x="232" y="187" on="1"/>
        <pt x="197" y="187" on="0"/>
        <pt x="158" y="235" on="0"/>
        <pt x="158" y="275" on="1"/>
        <pt x="158" y="300" on="0"/>
        <pt x="172" y="348" on="0"/>
        <pt x="198" y="384" on="0"/>
        <pt x="232" y="406" on="0"/>
        <pt x="253" y="406" on="1"/>
        <pt x="271" y="406" on="0"/>
        <pt x="297" y="393" on="0"/>
        <pt x="308" y="386" on="1"/>
        <pt x="311" y="406" on="0"/>
        <pt x="313" y="421" on="0"/>
        <pt x="313" y="427" on="1"/>
        <pt x="313" y="443" on="0"/>
        <pt x="289" y="459" on="0"/>
        <pt x="269" y="459" on="1"/>
        <pt x="256" y="459" on="0"/>
        <pt x="225" y="450" on="0"/>
        <pt x="221" y="448" on="1"/>
        <pt x="223" y="520" on="1"/>
        <pt x="239" y="527" on="0"/>
        <pt x="285" y="537" on="0"/>
        <pt x="301" y="537" on="1"/>
        <pt x="344" y="537" on="0"/>
        <pt x="399" y="496" on="0"/>
        <pt x="399" y="454" on="1"/>
        <pt x="399" y="448" on="0"/>
        <pt x="398" y="436" on="0"/>
        <pt x="397" y="430" on="1"/>
        <pt x="375" y="305" on="1"/>
        <pt x="368" y="265" on="0"/>
        <pt x="377" y="238" on="0"/>
        <pt x="388" y="238" on="1"/>
        <pt x="406" y="238" on="0"/>
        <pt x="436" y="297" on="0"/>
        <pt x="457" y="380" on="0"/>
        <pt x="469" y="469" on="0"/>
        <pt x="469" y="500" on="1"/>
        <pt x="469" y="541" on="0"/>
        <pt x="456" y="614" on="0"/>
        <pt x="427" y="669" on="0"/>
        <pt x="378" y="701" on="0"/>
        <pt x="342" y="701" on="1"/>
        <pt x="292" y="701" on="0"/>
        <pt x="201" y="622" on="0"/>
        <pt x="132" y="495" on="0"/>
        <pt x="92" y="334" on="0"/>
        <pt x="92" y="253" on="1"/>
        <pt x="92" y="204" on="0"/>
        <pt x="110" y="123" on="0"/>
        <pt x="147" y="64" on="0"/>
        <pt x="204" y="32" on="0"/>
        <pt x="243" y="32" on="1"/>
        <pt x="272" y="32" on="0"/>
        <pt x="321" y="46" on="0"/>
        <pt x="335" y="54" on="1"/>
      </contour>
      <contour>
        <pt x="300" y="341" on="1"/>
        <pt x="297" y="344" on="0"/>
        <pt x="285" y="351" on="0"/>
        <pt x="276" y="351" on="1"/>
        <pt x="261" y="351" on="0"/>
        <pt x="240" y="314" on="0"/>
        <pt x="240" y="288" on="1"/>
        <pt x="240" y="270" on="0"/>
        <pt x="254" y="255" on="0"/>
        <pt x="263" y="255" on="1"/>
        <pt x="270" y="255" on="0"/>
        <pt x="285" y="266" on="0"/>
        <pt x="288" y="270" on="1"/>
      </contour>
    </TTGlyph>
    <TTGlyph name="atilde" xMin="-7" yMin="-7" xMax="393" yMax="642">
      <component glyphName="a" x="0" y="0" flags="0x204"/>
      <component glyphName="tilde" x="-24" y="5" flags="0x4"/>
    </TTGlyph>
    <TTGlyph name="b" xMin="-7" yMin="-7" xMax="379" yMax="733">
      <contour>
        <pt x="379" y="332" on="1"/>
        <pt x="379" y="275" on="0"/>
        <pt x="356" y="155" on="0"/>
        <pt x="312" y="56" on="0"/>
        <pt x="246" y="-7" on="0"/>
        <pt x="203" y="-7" on="1"/>
        <pt x="173" y="-7" on="0"/>
        <pt x="132" y="20" on="0"/>
        <pt x="116" y="39" on="1"/>
        <pt x="109" y="0" on="1"/>
        <pt x="-7" y="0" on="1"/>
        <pt x="122" y="733" on="1"/>
        <pt x="246" y="733" on="1"/>
        <pt x="194" y="437" on="1"/>
        <pt x="219" y="464" on="0"/>
        <pt x="259" y="480" on="0"/>
        <pt x="278" y="480" on="1"/>
        <pt x="320" y="480" on="0"/>
        <pt x="379" y="408" on="0"/>
      </contour>
      <contour>
        <pt x="256" y="324" on="1"/>
        <pt x="256" y="341" on="0"/>
        <pt x="249" y="362" on="0"/>
        <pt x="238" y="373" on="0"/>
        <pt x="226" y="376" on="0"/>
        <pt x="221" y="376" on="1"/>
        <pt x="211" y="376" on="0"/>
        <pt x="192" y="368" on="0"/>
        <pt x="181" y="363" on="1"/>
        <pt x="136" y="105" on="1"/>
        <pt x="144" y="99" on="0"/>
        <pt x="160" y="92" on="0"/>
        <pt x="171" y="92" on="1"/>
        <pt x="194" y="92" on="0"/>
        <pt x="227" y="146" on="0"/>
        <pt x="247" y="220" on="0"/>
        <pt x="256" y="299" on="0"/>
      </contour>
    </TTGlyph>
    <TTGlyph name="backslash" xMin="72" yMin="-216" xMax="233" yMax="733">
      <contour>
        <pt x="146" y="-216" on="1"/>
        <pt x="72" y="733" on="1"/>
        <pt x="160" y="733" on="1"/>
        <pt x="233" y="-216" on="1"/>
      </contour>
    </TTGlyph>
    <TTGlyph name="backslash.cap" xMin="91" yMin="-110" xMax="252" yMax="839">
      <component glyphName="backslash" x="19" y="106" flags="0x204"/>
    </TTGlyph>
    <TTGlyph name="bar" xMin="-24" yMin="-215" xMax="235" yMax="734">
      <contour>
        <pt x="-24" y="-215" on="1"/>
        <pt x="144" y="734" on="1"/>
        <pt x="235" y="734" on="1"/>
        <pt x="67" y="-215" on="1"/>
      </contour>
    </TTGlyph>
    <TTGlyph name="bar.cap" xMin="-5" yMin="-110" xMax="254" yMax="839">
      <component glyphName="bar" x="19" y="105" flags="0x204"/>
    </TTGlyph>
    <TTGlyph name="braceleft" xMin="9" yMin="-223" xMax="344" yMax="740">
      <contour>
        <pt x="326" y="634" on="1"/>
        <pt x="316" y="634" on="1"/>
        <pt x="305" y="634" on="0"/>
        <pt x="286" y="631" on="0"/>
        <pt x="269" y="618" on="0"/>
        <pt x="256" y="592" on="0"/>
        <pt x="252" y="570" on="1"/>
        <pt x="214" y="355" on="1"/>
        <pt x="205" y="306" on="0"/>
        <pt x="159" y="265" on="0"/>
        <pt x="129" y="256" on="1"/>
        <pt x="154" y="244" on="0"/>
        <pt x="180" y="205" on="0"/>
        <pt x="180" y="173" on="1"/>
        <pt x="180" y="166" on="0"/>
        <pt x="178" y="144" on="0"/>
        <pt x="176" y="135" on="1"/>
        <pt x="143" y="-53" on="1"/>
        <pt x="142" y="-59" on="0"/>
        <pt x="141" y="-67" on="0"/>
        <pt x="141" y="-75" on="1"/>
        <pt x="141" y="-101" on="0"/>
        <pt x="171" y="-116" on="0"/>
        <pt x="194" y="-116" on="1"/>
        <pt x="175" y="-223" on="1"/>
        <pt x="109" y="-223" on="0"/>
        <pt x="29" y="-162" on="0"/>
        <pt x="29" y="-103" on="1"/>
        <pt x="29" y="-99" on="0"/>
        <pt x="30" y="-82" on="0"/>
        <pt x="32" y="-74" on="1"/>
        <pt x="71" y="144" on="1"/>
        <pt x="72" y="149" on="0"/>
        <pt x="73" y="160" on="0"/>
        <pt x="73" y="162" on="1"/>
        <pt x="73" y="191" on="0"/>
        <pt x="41" y="212" on="0"/>
        <pt x="22" y="212" on="1"/>
        <pt x="9" y="212" on="1"/>
        <pt x="27" y="313" on="1"/>
        <pt x="40" y="313" on="1"/>
        <pt x="51" y="313" on="0"/>
        <pt x="73" y="317" on="0"/>
        <pt x="92" y="328" on="0"/>
        <pt x="106" y="348" on="0"/>
        <pt x="109" y="364" on="1"/>
        <pt x="152" y="607" on="1"/>
        <pt x="160" y="654" on="0"/>
        <pt x="198" y="707" on="0"/>
        <pt x="249" y="734" on="0"/>
        <pt x="307" y="740" on="0"/>
        <pt x="335" y="740" on="1"/>
        <pt x="344" y="740" on="1"/>
      </contour>
    </TTGlyph>
    <TTGlyph name="braceleft.cap" xMin="28" yMin="-118" xMax="363" yMax="845">
      <component glyphName="braceleft" x="19" y="105" flags="0x204"/>
    </TTGlyph>
    <TTGlyph name="braceright" xMin="-77" yMin="-223" xMax="258" yMax="740">
      <contour>
        <pt x="-59" y="-117" on="1"/>
        <pt x="-49" y="-117" on="1"/>
        <pt x="-39" y="-117" on="0"/>
        <pt x="-19" y="-114" on="0"/>
        <pt x="-2" y="-101" on="0"/>
        <pt x="11" y="-75" on="0"/>
        <pt x="15" y="-53" on="1"/>
        <pt x="53" y="162" on="1"/>
        <pt x="62" y="211" on="0"/>
        <pt x="108" y="252" on="0"/>
        <pt x="138" y="261" on="1"/>
        <pt x="113" y="273" on="0"/>
        <pt x="87" y="312" on="0"/>
        <pt x="87" y="344" on="1"/>
        <pt x="87" y="351" on="0"/>
        <pt x="89" y="373" on="0"/>
        <pt x="91" y="382" on="1"/>
        <pt x="124" y="570" on="1"/>
        <pt x="125" y="576" on="0"/>
        <pt x="126" y="584" on="0"/>
        <pt x="126" y="592" on="1"/>
        <pt x="126" y="618" on="0"/>
        <pt x="96" y="633" on="0"/>
        <pt x="73" y="633" on="1"/>
        <pt x="92" y="740" on="1"/>
        <pt x="158" y="740" on="0"/>
        <pt x="238" y="679" on="0"/>
        <pt x="238" y="620" on="1"/>
        <pt x="238" y="616" on="0"/>
        <pt x="237" y="599" on="0"/>
        <pt x="235" y="591" on="1"/>
        <pt x="196" y="373" on="1"/>
        <pt x="195" y="368" on="0"/>
        <pt x="194" y="357" on="0"/>
        <pt x="194" y="355" on="1"/>
        <pt x="194" y="326" on="0"/>
        <pt x="226" y="305" on="0"/>
        <pt x="245" y="305" on="1"/>
        <pt x="258" y="305" on="1"/>
        <pt x="240" y="204" on="1"/>
        <pt x="227" y="204" on="1"/>
        <pt x="205" y="204" on="0"/>
        <pt x="163" y="184" on="0"/>
        <pt x="158" y="153" on="1"/>
        <pt x="115" y="-90" on="1"/>
        <pt x="107" y="-137" on="0"/>
        <pt x="69" y="-190" on="0"/>
        <pt x="18" y="-217" on="0"/>
        <pt x="-40" y="-223" on="0"/>
        <pt x="-68" y="-223" on="1"/>
        <pt x="-77" y="-223" on="1"/>
      </contour>
    </TTGlyph>
    <TTGlyph name="braceright.cap" xMin="-59" yMin="-118" xMax="276" yMax="845">
      <component glyphName="braceright" x="18" y="105" flags="0x204"/>
    </TTGlyph>
    <TTGlyph name="bracketleft" xMin="-31" yMin="-216" xMax="350" yMax="733">
      <contour>
        <pt x="332" y="631" on="1"/>
        <pt x="227" y="631" on="1"/>
        <pt x="96" y="-113" on="1"/>
        <pt x="201" y="-113" on="1"/>
        <pt x="182" y="-216" on="1"/>
        <pt x="-31" y="-216" on="1"/>
        <pt x="137" y="733" on="1"/>
        <pt x="350" y="733" on="1"/>
      </contour>
    </TTGlyph>
    <TTGlyph name="bracketleft.cap" xMin="-12" yMin="-110" xMax="369" yMax="839">
      <component glyphName="bracketleft" x="19" y="106" flags="0x204"/>
    </TTGlyph>
    <TTGlyph name="bracketright" xMin="-77" yMin="-216" xMax="304" yMax="733">
      <contour>
        <pt x="136" y="-216" on="1"/>
        <pt x="-77" y="-216" on="1"/>
        <pt x="-58" y="-113" on="1"/>
        <pt x="47" y="-113" on="1"/>
        <pt x="178" y="631" on="1"/>
        <pt x="73" y="631" on="1"/>
        <pt x="91" y="733" on="1"/>
        <pt x="304" y="733" on="1"/>
      </contour>
    </TTGlyph>
    <TTGlyph name="bracketright.cap" xMin="-58" yMin="-110" xMax="323" yMax="839">
      <component glyphName="bracketright" x="19" y="106" flags="0x204"/>
    </TTGlyph>
    <TTGlyph name="breve" xMin="129" yMin="512" xMax="403" yMax="649">
      <contour>
        <pt x="403" y="642" on="1"/>
        <pt x="400" y="615" on="0"/>
        <pt x="377" y="568" on="0"/>
        <pt x="338" y="533" on="0"/>
        <pt x="285" y="512" on="0"/>
        <pt x="253" y="512" on="1"/>
        <pt x="193" y="512" on="0"/>
        <pt x="129" y="578" on="0"/>
        <pt x="129" y="626" on="1"/>
        <pt x="129" y="630" on="0"/>
        <pt x="129" y="638" on="0"/>
        <pt x="130" y="642" on="1"/>
        <pt x="217" y="649" on="1"/>
        <pt x="216" y="643" on="0"/>
        <pt x="216" y="639" on="0"/>
        <pt x="216" y="637" on="1"/>
        <pt x="216" y="587" on="0"/>
        <pt x="260" y="587" on="1"/>
        <pt x="307" y="587" on="0"/>
        <pt x="315" y="649" on="1"/>
      </contour>
    </TTGlyph>
    <TTGlyph name="bullet" xMin="52" yMin="227" xMax="323" yMax="505">
      <contour>
        <pt x="323" y="377" on="1"/>
        <pt x="323" y="346" on="0"/>
        <pt x="299" y="292" on="0"/>
        <pt x="259" y="251" on="0"/>
        <pt x="206" y="227" on="0"/>
        <pt x="178" y="227" on="1"/>
        <pt x="118" y="227" on="0"/>
        <pt x="52" y="298" on="0"/>
        <pt x="52" y="355" on="1"/>
        <pt x="52" y="386" on="0"/>
        <pt x="76" y="440" on="0"/>
        <pt x="116" y="481" on="0"/>
        <pt x="168" y="505" on="0"/>
        <pt x="197" y="505" on="1"/>
        <pt x="257" y="505" on="0"/>
        <pt x="323" y="433" on="0"/>
      </contour>
    </TTGlyph>
    <TTGlyph name="c" xMin="15" yMin="-11" xMax="330" yMax="484">
      <contour>
        <pt x="276" y="354" on="1"/>
        <pt x="265" y="364" on="0"/>
        <pt x="244" y="374" on="0"/>
        <pt x="230" y="374" on="1"/>
        <pt x="208" y="374" on="0"/>
        <pt x="173" y="339" on="0"/>
        <pt x="148" y="284" on="0"/>
        <pt x="135" y="216" on="0"/>
        <pt x="135" y="182" on="1"/>
        <pt x="135" y="99" on="0"/>
        <pt x="193" y="99" on="1"/>
        <pt x="199" y="99" on="0"/>
        <pt x="224" y="105" on="0"/>
        <pt x="235" y="113" on="1"/>
        <pt x="258" y="20" on="1"/>
        <pt x="240" y="8" on="0"/>
        <pt x="189" y="-11" on="0"/>
        <pt x="160" y="-11" on="1"/>
        <pt x="124" y="-11" on="0"/>
        <pt x="70" y="16" on="0"/>
        <pt x="34" y="65" on="0"/>
        <pt x="15" y="132" on="0"/>
        <pt x="15" y="173" on="1"/>
        <pt x="15" y="229" on="0"/>
        <pt x="44" y="340" on="0"/>
        <pt x="99" y="429" on="0"/>
        <pt x="178" y="484" on="0"/>
        <pt x="228" y="484" on="1"/>
        <pt x="260" y="484" on="0"/>
        <pt x="315" y="463" on="0"/>
        <pt x="330" y="449" on="1"/>
      </contour>
    </TTGlyph>
    <TTGlyph name="cacute" xMin="15" yMin="-11" xMax="389" yMax="704">
      <component glyphName="c" x="0" y="0" flags="0x204"/>
      <component glyphName="acute" x="43" y="5" flags="0x4"/>
    </TTGlyph>
    <TTGlyph name="caron" xMin="135" yMin="513" xMax="415" yMax="662">
      <contour>
        <pt x="285" y="513" on="1"/>
        <pt x="216" y="513" on="1"/>
        <pt x="135" y="662" on="1"/>
        <pt x="227" y="662" on="1"/>
        <pt x="261" y="586" on="1"/>
        <pt x="318" y="662" on="1"/>
        <pt x="415" y="662" on="1"/>
      </contour>
    </TTGlyph>
    <TTGlyph name="caron.alt" xMin="37" yMin="502" xMax="187" yMax="740">
      <contour>
        <pt x="187" y="734" on="1"/>
        <pt x="180" y="666" on="0"/>
        <pt x="125" y="546" on="0"/>
        <pt x="74" y="502" on="1"/>
        <pt x="37" y="529" on="1"/>
        <pt x="72" y="577" on="0"/>
        <pt x="95" y="681" on="0"/>
        <pt x="100" y="740" on="1"/>
      </contour>
    </TTGlyph>
    <TTGlyph name="ccaron" xMin="15" yMin="-11" xMax="395" yMax="667">
      <component glyphName="c" x="0" y="0" flags="0x204"/>
      <component glyphName="caron" x="-20" y="5" flags="0x4"/>
    </TTGlyph>
    <TTGlyph name="ccedilla" xMin="12" yMin="-199" xMax="330" yMax="484">
      <contour>
        <pt x="220" y="-110" on="1"/>
        <pt x="220" y="-146" on="0"/>
        <pt x="162" y="-199" on="0"/>
        <pt x="111" y="-199" on="1"/>
        <pt x="82" y="-199" on="0"/>
        <pt x="29" y="-181" on="0"/>
        <pt x="12" y="-169" on="1"/>
        <pt x="39" y="-109" on="1"/>
        <pt x="66" y="-126" on="0"/>
        <pt x="102" y="-137" on="0"/>
        <pt x="117" y="-137" on="1"/>
        <pt x="131" y="-137" on="0"/>
        <pt x="149" y="-126" on="0"/>
        <pt x="149" y="-115" on="1"/>
        <pt x="149" y="-105" on="0"/>
        <pt x="123" y="-87" on="0"/>
        <pt x="79" y="-87" on="1"/>
        <pt x="77" y="-79" on="1"/>
        <pt x="112" y="-3" on="1"/>
        <pt x="64" y="13" on="0"/>
        <pt x="15" y="107" on="0"/>
        <pt x="15" y="173" on="1"/>
        <pt x="15" y="229" on="0"/>
        <pt x="44" y="340" on="0"/>
        <pt x="99" y="429" on="0"/>
        <pt x="178" y="484" on="0"/>
        <pt x="228" y="484" on="1"/>
        <pt x="260" y="484" on="0"/>
        <pt x="315" y="463" on="0"/>
        <pt x="330" y="449" on="1"/>
        <pt x="276" y="354" on="1"/>
        <pt x="265" y="364" on="0"/>
        <pt x="244" y="374" on="0"/>
        <pt x="230" y="374" on="1"/>
        <pt x="208" y="374" on="0"/>
        <pt x="173" y="339" on="0"/>
        <pt x="148" y="284" on="0"/>
        <pt x="135" y="216" on="0"/>
        <pt x="135" y="182" on="1"/>
        <pt x="135" y="99" on="0"/>
        <pt x="193" y="99" on="1"/>
        <pt x="199" y="99" on="0"/>
        <pt x="224" y="105" on="0"/>
        <pt x="235" y="113" on="1"/>
        <pt x="258" y="20" on="1"/>
        <pt x="240" y="8" on="0"/>
        <pt x="189" y="-11" on="0"/>
        <pt x="160" y="-11" on="1"/>
        <pt x="152" y="-11" on="1"/>
        <pt x="139" y="-36" on="1"/>
        <pt x="184" y="-43" on="0"/>
        <pt x="220" y="-84" on="0"/>
      </contour>
    </TTGlyph>
    <TTGlyph name="cdotaccent" xMin="15" yMin="-11" xMax="330" yMax="645">
      <component glyphName="c" x="0" y="0" flags="0x204"/>
      <component glyphName="dotaccent" x="-19" y="5" flags="0x4"/>
    </TTGlyph>
    <TTGlyph name="cedilla" xMin="19" yMin="-199" xMax="227" yMax="20">
      <contour>
        <pt x="227" y="-110" on="1"/>
        <pt x="227" y="-146" on="0"/>
        <pt x="169" y="-199" on="0"/>
        <pt x="118" y="-199" on="1"/>
        <pt x="89" y="-199" on="0"/>
        <pt x="36" y="-181" on="0"/>
        <pt x="19" y="-169" on="1"/>
        <pt x="46" y="-109" on="1"/>
        <pt x="73" y="-126" on="0"/>
        <pt x="109" y="-137" on="0"/>
        <pt x="124" y="-137" on="1"/>
        <pt x="138" y="-137" on="0"/>
        <pt x="156" y="-126" on="0"/>
        <pt x="156" y="-115" on="1"/>
        <pt x="156" y="-105" on="0"/>
        <pt x="130" y="-87" on="0"/>
        <pt x="86" y="-87" on="1"/>
        <pt x="84" y="-79" on="1"/>
        <pt x="130" y="20" on="1"/>
        <pt x="169" y="9" on="1"/>
        <pt x="146" y="-36" on="1"/>
        <pt x="191" y="-43" on="0"/>
        <pt x="227" y="-84" on="0"/>
      </contour>
    </TTGlyph>
    <TTGlyph name="cent" xMin="15" yMin="-77" xMax="349" yMax="551">
      <contour>
        <pt x="298" y="470" on="1"/>
        <pt x="315" y="463" on="0"/>
        <pt x="340" y="445" on="0"/>
        <pt x="349" y="437" on="1"/>
        <pt x="296" y="344" on="1"/>
        <pt x="293" y="349" on="0"/>
        <pt x="279" y="365" on="0"/>
        <pt x="269" y="373" on="1"/>
        <pt x="186" y="89" on="1"/>
        <pt x="189" y="89" on="1"/>
        <pt x="200" y="89" on="0"/>
        <pt x="229" y="102" on="0"/>
        <pt x="240" y="110" on="1"/>
        <pt x="262" y="20" on="1"/>
        <pt x="244" y="8" on="0"/>
        <pt x="193" y="-11" on="0"/>
        <pt x="164" y="-11" on="1"/>
        <pt x="156" y="-11" on="1"/>
        <pt x="137" y="-77" on="1"/>
        <pt x="86" y="-64" on="1"/>
        <pt x="105" y="1" on="1"/>
        <pt x="61" y="21" on="0"/>
        <pt x="15" y="112" on="0"/>
        <pt x="15" y="173" on="1"/>
        <pt x="15" y="232" on="0"/>
        <pt x="45" y="344" on="0"/>
        <pt x="101" y="431" on="0"/>
        <pt x="182" y="484" on="0"/>
        <pt x="232" y="484" on="1"/>
        <pt x="236" y="484" on="0"/>
        <pt x="244" y="484" on="0"/>
        <pt x="248" y="483" on="1"/>
        <pt x="268" y="551" on="1"/>
        <pt x="318" y="538" on="1"/>
      </contour>
      <contour>
        <pt x="128" y="177" on="1"/>
        <pt x="128" y="158" on="0"/>
        <pt x="133" y="128" on="0"/>
        <pt x="139" y="117" on="1"/>
        <pt x="218" y="384" on="1"/>
        <pt x="197" y="378" on="0"/>
        <pt x="164" y="337" on="0"/>
        <pt x="141" y="280" on="0"/>
        <pt x="128" y="211" on="0"/>
      </contour>
    </TTGlyph>
    <TTGlyph name="cent.lin" xMin="38" yMin="57" xMax="372" yMax="685">
      <component glyphName="cent" x="23" y="134" flags="0x204"/>
    </TTGlyph>
    <TTGlyph name="circumflex" xMin="110" yMin="518" xMax="390" yMax="667">
      <contour>
        <pt x="296" y="518" on="1"/>
        <pt x="267" y="594" on="1"/>
        <pt x="205" y="518" on="1"/>
        <pt x="110" y="518" on="1"/>
        <pt x="245" y="667" on="1"/>
        <pt x="314" y="667" on="1"/>
        <pt x="390" y="518" on="1"/>
      </contour>
    </TTGlyph>
    <TTGlyph name="colon" xMin="-5" yMin="-11" xMax="191" yMax="427">
      <contour>
        <pt x="191" y="358" on="1"/>
        <pt x="191" y="341" on="0"/>
        <pt x="178" y="312" on="0"/>
        <pt x="157" y="290" on="0"/>
        <pt x="128" y="277" on="0"/>
        <pt x="113" y="277" on="1"/>
        <pt x="81" y="277" on="0"/>
        <pt x="45" y="316" on="0"/>
        <pt x="45" y="346" on="1"/>
        <pt x="45" y="362" on="0"/>
        <pt x="58" y="392" on="0"/>
        <pt x="79" y="414" on="0"/>
        <pt x="108" y="427" on="0"/>
        <pt x="123" y="427" on="1"/>
        <pt x="155" y="427" on="0"/>
        <pt x="191" y="388" on="0"/>
      </contour>
      <contour>
        <pt x="141" y="70" on="1"/>
        <pt x="141" y="53" on="0"/>
        <pt x="128" y="24" on="0"/>
        <pt x="107" y="2" on="0"/>
        <pt x="78" y="-11" on="0"/>
        <pt x="63" y="-11" on="1"/>
        <pt x="31" y="-11" on="0"/>
        <pt x="-5" y="28" on="0"/>
        <pt x="-5" y="58" on="1"/>
        <pt x="-5" y="74" on="0"/>
        <pt x="8" y="104" on="0"/>
        <pt x="29" y="126" on="0"/>
        <pt x="58" y="139" on="0"/>
        <pt x="73" y="139" on="1"/>
        <pt x="105" y="139" on="0"/>
        <pt x="141" y="100" on="0"/>
      </contour>
    </TTGlyph>
    <TTGlyph name="comma" xMin="-32" yMin="-109" xMax="128" yMax="138">
      <contour>
        <pt x="128" y="64" on="1"/>
        <pt x="128" y="37" on="0"/>
        <pt x="100" y="-17" on="0"/>
        <pt x="57" y="-63" on="0"/>
        <pt x="5" y="-99" on="0"/>
        <pt x="-20" y="-109" on="1"/>
        <pt x="-32" y="-90" on="1"/>
        <pt x="-9" y="-74" on="0"/>
        <pt x="20" y="-46" on="0"/>
        <pt x="38" y="-22" on="0"/>
        <pt x="48" y="-3" on="0"/>
        <pt x="51" y="5" on="1"/>
        <pt x="24" y="8" on="0"/>
        <pt x="-7" y="42" on="0"/>
        <pt x="-7" y="65" on="1"/>
        <pt x="-7" y="80" on="0"/>
        <pt x="4" y="106" on="0"/>
        <pt x="23" y="126" on="0"/>
        <pt x="49" y="138" on="0"/>
        <pt x="63" y="138" on="1"/>
        <pt x="92" y="138" on="0"/>
        <pt x="128" y="99" on="0"/>
      </contour>
    </TTGlyph>
    <TTGlyph name="commaaccent" xMin="-9" yMin="-309" xMax="151" yMax="-62">
      <contour>
        <pt x="151" y="-136" on="1"/>
        <pt x="151" y="-163" on="0"/>
        <pt x="123" y="-217" on="0"/>
        <pt x="80" y="-263" on="0"/>
        <pt x="28" y="-299" on="0"/>
        <pt x="3" y="-309" on="1"/>
        <pt x="-9" y="-290" on="1"/>
        <pt x="14" y="-274" on="0"/>
        <pt x="43" y="-246" on="0"/>
        <pt x="61" y="-222" on="0"/>
        <pt x="71" y="-203" on="0"/>
        <pt x="74" y="-195" on="1"/>
        <pt x="47" y="-192" on="0"/>
        <pt x="16" y="-158" on="0"/>
        <pt x="16" y="-135" on="1"/>
        <pt x="16" y="-120" on="0"/>
        <pt x="27" y="-94" on="0"/>
        <pt x="46" y="-74" on="0"/>
        <pt x="72" y="-62" on="0"/>
        <pt x="86" y="-62" on="1"/>
        <pt x="115" y="-62" on="0"/>
        <pt x="151" y="-101" on="0"/>
      </contour>
    </TTGlyph>
    <TTGlyph name="copyright" xMin="33" yMin="-12" xMax="498" yMax="745">
      <contour>
        <pt x="320" y="200" on="1"/>
        <pt x="303" y="189" on="0"/>
        <pt x="273" y="182" on="0"/>
        <pt x="259" y="182" on="1"/>
        <pt x="213" y="182" on="0"/>
        <pt x="157" y="257" on="0"/>
        <pt x="157" y="322" on="1"/>
        <pt x="157" y="370" on="0"/>
        <pt x="181" y="456" on="0"/>
        <pt x="222" y="521" on="0"/>
        <pt x="279" y="559" on="0"/>
        <pt x="312" y="559" on="1"/>
        <pt x="330" y="559" on="0"/>
        <pt x="363" y="549" on="0"/>
        <pt x="378" y="537" on="1"/>
        <pt x="344" y="476" on="1"/>
        <pt x="339" y="482" on="0"/>
        <pt x="323" y="491" on="0"/>
        <pt x="314" y="491" on="1"/>
        <pt x="299" y="491" on="0"/>
        <pt x="269" y="463" on="0"/>
        <pt x="247" y="416" on="0"/>
        <pt x="233" y="355" on="0"/>
        <pt x="233" y="323" on="1"/>
        <pt x="233" y="289" on="0"/>
        <pt x="256" y="250" on="0"/>
        <pt x="276" y="250" on="1"/>
        <pt x="290" y="250" on="0"/>
        <pt x="305" y="260" on="1"/>
      </contour>
      <contour>
        <pt x="454" y="461" on="1"/>
        <pt x="454" y="512" on="0"/>
        <pt x="437" y="601" on="0"/>
        <pt x="404" y="667" on="0"/>
        <pt x="352" y="705" on="0"/>
        <pt x="318" y="705" on="1"/>
        <pt x="268" y="705" on="0"/>
        <pt x="180" y="627" on="0"/>
        <pt x="115" y="503" on="0"/>
        <pt x="77" y="350" on="0"/>
        <pt x="77" y="276" on="1"/>
        <pt x="77" y="225" on="0"/>
        <pt x="94" y="134" on="0"/>
        <pt x="128" y="67" on="0"/>
        <pt x="180" y="28" on="0"/>
        <pt x="215" y="28" on="1"/>
        <pt x="266" y="28" on="0"/>
        <pt x="353" y="108" on="0"/>
        <pt x="417" y="233" on="0"/>
        <pt x="454" y="387" on="0"/>
      </contour>
      <contour>
        <pt x="498" y="466" on="1"/>
        <pt x="498" y="408" on="0"/>
        <pt x="479" y="293" on="0"/>
        <pt x="444" y="186" on="0"/>
        <pt x="393" y="94" on="0"/>
        <pt x="329" y="27" on="0"/>
        <pt x="254" y="-12" on="0"/>
        <pt x="212" y="-12" on="1"/>
        <pt x="170" y="-12" on="0"/>
        <pt x="103" y="30" on="0"/>
        <pt x="57" y="105" on="0"/>
        <pt x="33" y="209" on="0"/>
        <pt x="33" y="270" on="1"/>
        <pt x="33" y="357" on="0"/>
        <pt x="76" y="527" on="0"/>
        <pt x="152" y="662" on="0"/>
        <pt x="258" y="745" on="0"/>
        <pt x="321" y="745" on="1"/>
        <pt x="363" y="745" on="0"/>
        <pt x="429" y="703" on="0"/>
        <pt x="474" y="629" on="0"/>
        <pt x="498" y="527" on="0"/>
      </contour>
    </TTGlyph>
    <TTGlyph name="d" xMin="13" yMin="-7" xMax="446" yMax="733">
      <contour>
        <pt x="316" y="0" on="1"/>
        <pt x="200" y="0" on="1"/>
        <pt x="208" y="44" on="1"/>
        <pt x="193" y="27" on="0"/>
        <pt x="166" y="6" on="0"/>
        <pt x="141" y="-4" on="0"/>
        <pt x="121" y="-7" on="0"/>
        <pt x="114" y="-7" on="1"/>
        <pt x="66" y="-7" on="0"/>
        <pt x="13" y="80" on="0"/>
        <pt x="13" y="152" on="1"/>
        <pt x="13" y="210" on="0"/>
        <pt x="36" y="327" on="0"/>
        <pt x="81" y="421" on="0"/>
        <pt x="147" y="480" on="0"/>
        <pt x="191" y="480" on="1"/>
        <pt x="217" y="480" on="0"/>
        <pt x="255" y="457" on="0"/>
        <pt x="269" y="439" on="1"/>
        <pt x="322" y="733" on="1"/>
        <pt x="446" y="733" on="1"/>
      </contour>
      <contour>
        <pt x="256" y="367" on="1"/>
        <pt x="248" y="373" on="0"/>
        <pt x="233" y="380" on="0"/>
        <pt x="222" y="380" on="1"/>
        <pt x="199" y="380" on="0"/>
        <pt x="166" y="327" on="0"/>
        <pt x="145" y="253" on="0"/>
        <pt x="135" y="175" on="0"/>
        <pt x="135" y="150" on="1"/>
        <pt x="135" y="115" on="0"/>
        <pt x="160" y="97" on="0"/>
        <pt x="171" y="97" on="1"/>
        <pt x="181" y="97" on="0"/>
        <pt x="200" y="105" on="0"/>
        <pt x="211" y="110" on="1"/>
      </contour>
    </TTGlyph>
    <TTGlyph name="dagger" xMin="76" yMin="218" xMax="368" yMax="733">
      <contour>
        <pt x="349" y="505" on="1"/>
        <pt x="269" y="505" on="1"/>
        <pt x="218" y="218" on="1"/>
        <pt x="107" y="218" on="1"/>
        <pt x="158" y="505" on="1"/>
        <pt x="76" y="505" on="1"/>
        <pt x="95" y="612" on="1"/>
        <pt x="176" y="612" on="1"/>
        <pt x="198" y="733" on="1"/>
        <pt x="309" y="733" on="1"/>
        <pt x="287" y="612" on="1"/>
        <pt x="368" y="612" on="1"/>
      </contour>
    </TTGlyph>
    <TTGlyph name="daggerdbl" xMin="39" yMin="188" xMax="378" yMax="733">
      <contour>
        <pt x="360" y="518" on="1"/>
        <pt x="275" y="518" on="1"/>
        <pt x="254" y="399" on="1"/>
        <pt x="339" y="399" on="1"/>
        <pt x="320" y="292" on="1"/>
        <pt x="236" y="292" on="1"/>
        <pt x="217" y="188" on="1"/>
        <pt x="106" y="188" on="1"/>
        <pt x="125" y="292" on="1"/>
        <pt x="39" y="292" on="1"/>
        <pt x="58" y="399" on="1"/>
        <pt x="145" y="399" on="1"/>
        <pt x="166" y="518" on="1"/>
        <pt x="79" y="518" on="1"/>
        <pt x="97" y="625" on="1"/>
        <pt x="183" y="625" on="1"/>
        <pt x="202" y="733" on="1"/>
        <pt x="313" y="733" on="1"/>
        <pt x="294" y="625" on="1"/>
        <pt x="378" y="625" on="1"/>
      </contour>
    </TTGlyph>
    <TTGlyph name="dcaron" xMin="13" yMin="-7" xMax="575" yMax="733">
      <component glyphName="d" x="0" y="0" flags="0x204"/>
      <component glyphName="caron.alt" x="388" y="-7" flags="0x4"/>
    </TTGlyph>
    <TTGlyph name="dcroat" xMin="13" yMin="-7" xMax="465" yMax="733">
      <contour>
        <pt x="431" y="647" on="1"/>
        <pt x="465" y="647" on="1"/>
        <pt x="446" y="543" on="1"/>
        <pt x="412" y="543" on="1"/>
        <pt x="316" y="0" on="1"/>
        <pt x="200" y="0" on="1"/>
        <pt x="208" y="44" on="1"/>
        <pt x="193" y="27" on="0"/>
        <pt x="166" y="6" on="0"/>
        <pt x="141" y="-4" on="0"/>
        <pt x="121" y="-7" on="0"/>
        <pt x="114" y="-7" on="1"/>
        <pt x="66" y="-7" on="0"/>
        <pt x="13" y="80" on="0"/>
        <pt x="13" y="152" on="1"/>
        <pt x="13" y="210" on="0"/>
        <pt x="36" y="327" on="0"/>
        <pt x="81" y="421" on="0"/>
        <pt x="147" y="480" on="0"/>
        <pt x="191" y="480" on="1"/>
        <pt x="217" y="480" on="0"/>
        <pt x="255" y="457" on="0"/>
        <pt x="269" y="439" on="1"/>
        <pt x="287" y="543" on="1"/>
        <pt x="196" y="543" on="1"/>
        <pt x="215" y="647" on="1"/>
        <pt x="306" y="647" on="1"/>
        <pt x="322" y="733" on="1"/>
        <pt x="446" y="733" on="1"/>
      </contour>
      <contour>
        <pt x="256" y="367" on="1"/>
        <pt x="248" y="373" on="0"/>
        <pt x="233" y="380" on="0"/>
        <pt x="222" y="380" on="1"/>
        <pt x="199" y="380" on="0"/>
        <pt x="166" y="327" on="0"/>
        <pt x="145" y="253" on="0"/>
        <pt x="135" y="175" on="0"/>
        <pt x="135" y="150" on="1"/>
        <pt x="135" y="115" on="0"/>
        <pt x="160" y="97" on="0"/>
        <pt x="171" y="97" on="1"/>
        <pt x="181" y="97" on="0"/>
        <pt x="200" y="105" on="0"/>
        <pt x="211" y="110" on="1"/>
      </contour>
    </TTGlyph>
    <TTGlyph name="degree" xMin="100" yMin="451" xMax="391" yMax="733">
      <contour>
        <pt x="391" y="607" on="1"/>
        <pt x="391" y="576" on="0"/>
        <pt x="368" y="520" on="0"/>
        <pt x="326" y="477" on="0"/>
        <pt x="267" y="451" on="0"/>
        <pt x="232" y="451" on="1"/>
        <pt x="201" y="451" on="0"/>
        <pt x="152" y="472" on="0"/>
        <pt x="118" y="506" on="0"/>
        <pt x="100" y="552" on="0"/>
        <pt x="100" y="577" on="1"/>
        <pt x="100" y="608" on="0"/>
        <pt x="123" y="664" on="0"/>
        <pt x="165" y="707" on="0"/>
        <pt x="224" y="733" on="0"/>
        <pt x="259" y="733" on="1"/>
        <pt x="290" y="733" on="0"/>
        <pt x="339" y="712" on="0"/>
        <pt x="373" y="678" on="0"/>
        <pt x="391" y="632" on="0"/>
      </contour>
      <contour>
        <pt x="305" y="606" on="1"/>
        <pt x="305" y="634" on="0"/>
        <pt x="277" y="666" on="0"/>
        <pt x="252" y="666" on="1"/>
        <pt x="222" y="666" on="0"/>
        <pt x="185" y="616" on="0"/>
        <pt x="185" y="578" on="1"/>
        <pt x="185" y="550" on="0"/>
        <pt x="213" y="518" on="0"/>
        <pt x="238" y="518" on="1"/>
        <pt x="268" y="518" on="0"/>
        <pt x="305" y="568" on="0"/>
      </contour>
    </TTGlyph>
    <TTGlyph name="degree.lin" xMin="100" yMin="451" xMax="391" yMax="733">
      <contour>
        <pt x="391" y="607" on="1"/>
        <pt x="391" y="576" on="0"/>
        <pt x="368" y="520" on="0"/>
        <pt x="326" y="477" on="0"/>
        <pt x="267" y="451" on="0"/>
        <pt x="232" y="451" on="1"/>
        <pt x="201" y="451" on="0"/>
        <pt x="152" y="472" on="0"/>
        <pt x="118" y="506" on="0"/>
        <pt x="100" y="552" on="0"/>
        <pt x="100" y="577" on="1"/>
        <pt x="100" y="608" on="0"/>
        <pt x="123" y="664" on="0"/>
        <pt x="165" y="707" on="0"/>
        <pt x="224" y="733" on="0"/>
        <pt x="259" y="733" on="1"/>
        <pt x="290" y="733" on="0"/>
        <pt x="339" y="712" on="0"/>
        <pt x="373" y="678" on="0"/>
        <pt x="391" y="632" on="0"/>
      </contour>
      <contour>
        <pt x="305" y="606" on="1"/>
        <pt x="305" y="634" on="0"/>
        <pt x="277" y="666" on="0"/>
        <pt x="252" y="666" on="1"/>
        <pt x="222" y="666" on="0"/>
        <pt x="185" y="616" on="0"/>
        <pt x="185" y="578" on="1"/>
        <pt x="185" y="550" on="0"/>
        <pt x="213" y="518" on="0"/>
        <pt x="238" y="518" on="1"/>
        <pt x="268" y="518" on="0"/>
        <pt x="305" y="568" on="0"/>
      </contour>
    </TTGlyph>
    <TTGlyph name="dieresis" xMin="118" yMin="514" xMax="400" yMax="640">
      <contour>
        <pt x="240" y="582" on="1"/>
        <pt x="240" y="554" on="0"/>
        <pt x="201" y="514" on="0"/>
        <pt x="175" y="514" on="1"/>
        <pt x="148" y="514" on="0"/>
        <pt x="118" y="547" on="0"/>
        <pt x="118" y="572" on="1"/>
        <pt x="118" y="600" on="0"/>
        <pt x="157" y="640" on="0"/>
        <pt x="183" y="640" on="1"/>
        <pt x="210" y="640" on="0"/>
        <pt x="240" y="607" on="0"/>
      </contour>
      <contour>
        <pt x="400" y="582" on="1"/>
        <pt x="400" y="554" on="0"/>
        <pt x="361" y="514" on="0"/>
        <pt x="335" y="514" on="1"/>
        <pt x="308" y="514" on="0"/>
        <pt x="278" y="547" on="0"/>
        <pt x="278" y="572" on="1"/>
        <pt x="278" y="600" on="0"/>
        <pt x="317" y="640" on="0"/>
        <pt x="343" y="640" on="1"/>
        <pt x="370" y="640" on="0"/>
        <pt x="400" y="607" on="0"/>
      </contour>
    </TTGlyph>
    <TTGlyph name="divide" xMin="43" yMin="207" xMax="355" yMax="536">
      <contour>
        <pt x="225" y="259" on="1"/>
        <pt x="225" y="237" on="0"/>
        <pt x="195" y="207" on="0"/>
        <pt x="175" y="207" on="1"/>
        <pt x="154" y="207" on="0"/>
        <pt x="131" y="231" on="0"/>
        <pt x="131" y="251" on="1"/>
        <pt x="131" y="273" on="0"/>
        <pt x="161" y="303" on="0"/>
        <pt x="181" y="303" on="1"/>
        <pt x="202" y="303" on="0"/>
        <pt x="225" y="279" on="0"/>
      </contour>
      <contour>
        <pt x="55" y="408" on="1"/>
        <pt x="355" y="408" on="1"/>
        <pt x="343" y="335" on="1"/>
        <pt x="43" y="335" on="1"/>
      </contour>
      <contour>
        <pt x="266" y="492" on="1"/>
        <pt x="266" y="470" on="0"/>
        <pt x="236" y="440" on="0"/>
        <pt x="216" y="440" on="1"/>
        <pt x="195" y="440" on="0"/>
        <pt x="172" y="464" on="0"/>
        <pt x="172" y="484" on="1"/>
        <pt x="172" y="506" on="0"/>
        <pt x="202" y="536" on="0"/>
        <pt x="222" y="536" on="1"/>
        <pt x="243" y="536" on="0"/>
        <pt x="266" y="512" on="0"/>
      </contour>
    </TTGlyph>
    <TTGlyph name="divide.lin" xMin="43" yMin="207" xMax="355" yMax="536">
      <component glyphName="divide" x="0" y="0" flags="0x204"/>
    </TTGlyph>
    <TTGlyph name="dollar" xMin="-17" yMin="-110" xMax="449" yMax="829">
      <contour>
        <pt x="374" y="715" on="1"/>
        <pt x="398" y="706" on="0"/>
        <pt x="435" y="684" on="0"/>
        <pt x="449" y="673" on="1"/>
        <pt x="394" y="559" on="1"/>
        <pt x="368" y="584" on="0"/>
        <pt x="337" y="598" on="1"/>
        <pt x="278" y="409" on="1"/>
        <pt x="295" y="392" on="1"/>
        <pt x="320" y="365" on="0"/>
        <pt x="357" y="318" on="0"/>
        <pt x="381" y="272" on="0"/>
        <pt x="392" y="224" on="0"/>
        <pt x="392" y="197" on="1"/>
        <pt x="392" y="159" on="0"/>
        <pt x="364" y="85" on="0"/>
        <pt x="310" y="26" on="0"/>
        <pt x="231" y="-11" on="0"/>
        <pt x="180" y="-11" on="1"/>
        <pt x="172" y="-11" on="0"/>
        <pt x="155" y="-10" on="0"/>
        <pt x="147" y="-9" on="1"/>
        <pt x="120" y="-110" on="1"/>
        <pt x="65" y="-96" on="1"/>
        <pt x="93" y="3" on="1"/>
        <pt x="61" y="13" on="0"/>
        <pt x="6" y="43" on="0"/>
        <pt x="-17" y="62" on="1"/>
        <pt x="33" y="181" on="1"/>
        <pt x="51" y="164" on="0"/>
        <pt x="99" y="132" on="0"/>
        <pt x="126" y="122" on="1"/>
        <pt x="183" y="323" on="1"/>
        <pt x="131" y="379" on="0"/>
        <pt x="78" y="479" on="0"/>
        <pt x="78" y="530" on="1"/>
        <pt x="78" y="579" on="0"/>
        <pt x="111" y="655" on="0"/>
        <pt x="168" y="705" on="0"/>
        <pt x="245" y="731" on="0"/>
        <pt x="289" y="731" on="1"/>
        <pt x="297" y="731" on="0"/>
        <pt x="312" y="730" on="0"/>
        <pt x="320" y="729" on="1"/>
        <pt x="351" y="829" on="1"/>
        <pt x="406" y="816" on="1"/>
      </contour>
      <contour>
        <pt x="259" y="197" on="1"/>
        <pt x="259" y="218" on="0"/>
        <pt x="242" y="256" on="0"/>
        <pt x="225" y="276" on="1"/>
        <pt x="180" y="111" on="1"/>
        <pt x="183" y="111" on="1"/>
        <pt x="217" y="111" on="0"/>
        <pt x="259" y="160" on="0"/>
      </contour>
      <contour>
        <pt x="210" y="537" on="1"/>
        <pt x="210" y="520" on="0"/>
        <pt x="220" y="485" on="0"/>
        <pt x="238" y="459" on="1"/>
        <pt x="284" y="609" on="1"/>
        <pt x="282" y="609" on="1"/>
        <pt x="250" y="609" on="0"/>
        <pt x="210" y="571" on="0"/>
      </contour>
    </TTGlyph>
    <TTGlyph name="dollar.lin" xMin="-17" yMin="-110" xMax="449" yMax="829">
      <contour>
        <pt x="374" y="715" on="1"/>
        <pt x="398" y="706" on="0"/>
        <pt x="435" y="684" on="0"/>
        <pt x="449" y="673" on="1"/>
        <pt x="394" y="559" on="1"/>
        <pt x="368" y="584" on="0"/>
        <pt x="337" y="598" on="1"/>
        <pt x="278" y="409" on="1"/>
        <pt x="295" y="392" on="1"/>
        <pt x="320" y="365" on="0"/>
        <pt x="357" y="318" on="0"/>
        <pt x="381" y="272" on="0"/>
        <pt x="392" y="224" on="0"/>
        <pt x="392" y="197" on="1"/>
        <pt x="392" y="159" on="0"/>
        <pt x="364" y="85" on="0"/>
        <pt x="310" y="26" on="0"/>
        <pt x="231" y="-11" on="0"/>
        <pt x="180" y="-11" on="1"/>
        <pt x="172" y="-11" on="0"/>
        <pt x="155" y="-10" on="0"/>
        <pt x="147" y="-9" on="1"/>
        <pt x="120" y="-110" on="1"/>
        <pt x="65" y="-96" on="1"/>
        <pt x="93" y="3" on="1"/>
        <pt x="61" y="13" on="0"/>
        <pt x="6" y="43" on="0"/>
        <pt x="-17" y="62" on="1"/>
        <pt x="33" y="181" on="1"/>
        <pt x="51" y="164" on="0"/>
        <pt x="99" y="132" on="0"/>
        <pt x="126" y="122" on="1"/>
        <pt x="183" y="323" on="1"/>
        <pt x="131" y="379" on="0"/>
        <pt x="78" y="479" on="0"/>
        <pt x="78" y="530" on="1"/>
        <pt x="78" y="579" on="0"/>
        <pt x="111" y="655" on="0"/>
        <pt x="168" y="705" on="0"/>
        <pt x="245" y="731" on="0"/>
        <pt x="289" y="731" on="1"/>
        <pt x="297" y="731" on="0"/>
        <pt x="312" y="730" on="0"/>
        <pt x="320" y="729" on="1"/>
        <pt x="351" y="829" on="1"/>
        <pt x="406" y="816" on="1"/>
      </contour>
      <contour>
        <pt x="259" y="197" on="1"/>
        <pt x="259" y="218" on="0"/>
        <pt x="242" y="256" on="0"/>
        <pt x="225" y="276" on="1"/>
        <pt x="180" y="111" on="1"/>
        <pt x="183" y="111" on="1"/>
        <pt x="217" y="111" on="0"/>
        <pt x="259" y="160" on="0"/>
      </contour>
      <contour>
        <pt x="210" y="537" on="1"/>
        <pt x="210" y="520" on="0"/>
        <pt x="220" y="485" on="0"/>
        <pt x="238" y="459" on="1"/>
        <pt x="284" y="609" on="1"/>
        <pt x="282" y="609" on="1"/>
        <pt x="250" y="609" on="0"/>
        <pt x="210" y="571" on="0"/>
      </contour>
    </TTGlyph>
    <TTGlyph name="dotaccent" xMin="198" yMin="514" xMax="320" yMax="640">
      <contour>
        <pt x="320" y="582" on="1"/>
        <pt x="320" y="554" on="0"/>
        <pt x="281" y="514" on="0"/>
        <pt x="255" y="514" on="1"/>
        <pt x="228" y="514" on="0"/>
        <pt x="198" y="547" on="0"/>
        <pt x="198" y="572" on="1"/>
        <pt x="198" y="600" on="0"/>
        <pt x="237" y="640" on="0"/>
        <pt x="263" y="640" on="1"/>
        <pt x="290" y="640" on="0"/>
        <pt x="320" y="607" on="0"/>
      </contour>
    </TTGlyph>
    <TTGlyph name="dotlessi" xMin="-7" yMin="0" xMax="200" yMax="473">
      <contour>
        <pt x="117" y="0" on="1"/>
        <pt x="-7" y="0" on="1"/>
        <pt x="76" y="473" on="1"/>
        <pt x="200" y="473" on="1"/>
      </contour>
    </TTGlyph>
    <TTGlyph name="e" xMin="16" yMin="-11" xMax="355" yMax="484">
      <contour>
        <pt x="178" y="-11" on="1"/>
        <pt x="103" y="-11" on="0"/>
        <pt x="16" y="85" on="0"/>
        <pt x="16" y="168" on="1"/>
        <pt x="16" y="227" on="0"/>
        <pt x="47" y="340" on="0"/>
        <pt x="103" y="429" on="0"/>
        <pt x="180" y="484" on="0"/>
        <pt x="227" y="484" on="1"/>
        <pt x="260" y="484" on="0"/>
        <pt x="309" y="460" on="0"/>
        <pt x="340" y="417" on="0"/>
        <pt x="355" y="358" on="0"/>
        <pt x="355" y="323" on="1"/>
        <pt x="355" y="293" on="0"/>
        <pt x="340" y="223" on="0"/>
        <pt x="332" y="196" on="1"/>
        <pt x="131" y="196" on="1"/>
        <pt x="130" y="190" on="0"/>
        <pt x="130" y="177" on="0"/>
        <pt x="130" y="170" on="1"/>
        <pt x="130" y="135" on="0"/>
        <pt x="167" y="97" on="0"/>
        <pt x="200" y="97" on="1"/>
        <pt x="225" y="97" on="0"/>
        <pt x="268" y="113" on="0"/>
        <pt x="280" y="118" on="1"/>
        <pt x="282" y="17" on="1"/>
        <pt x="256" y="4" on="0"/>
        <pt x="201" y="-11" on="0"/>
      </contour>
      <contour>
        <pt x="243" y="271" on="1"/>
        <pt x="245" y="283" on="0"/>
        <pt x="249" y="313" on="0"/>
        <pt x="249" y="327" on="1"/>
        <pt x="249" y="347" on="0"/>
        <pt x="237" y="379" on="0"/>
        <pt x="219" y="379" on="1"/>
        <pt x="205" y="379" on="0"/>
        <pt x="183" y="361" on="0"/>
        <pt x="164" y="331" on="0"/>
        <pt x="149" y="292" on="0"/>
        <pt x="144" y="271" on="1"/>
      </contour>
    </TTGlyph>
    <TTGlyph name="eacute" xMin="16" yMin="-11" xMax="404" yMax="704">
      <component glyphName="e" x="0" y="0" flags="0x204"/>
      <component glyphName="acute" x="58" y="5" flags="0x4"/>
    </TTGlyph>
    <TTGlyph name="ebreve" xMin="16" yMin="-11" xMax="400" yMax="654">
      <component glyphName="e" x="0" y="0" flags="0x204"/>
      <component glyphName="breve" x="-3" y="5" flags="0x4"/>
    </TTGlyph>
    <TTGlyph name="ecaron" xMin="16" yMin="-11" xMax="410" yMax="667">
      <component glyphName="e" x="0" y="0" flags="0x204"/>
      <component glyphName="caron" x="-5" y="5" flags="0x4"/>
    </TTGlyph>
    <TTGlyph name="ecircumflex" xMin="16" yMin="-11" xMax="382" yMax="672">
      <component glyphName="e" x="0" y="0" flags="0x204"/>
      <component glyphName="circumflex" x="-8" y="5" flags="0x4"/>
    </TTGlyph>
    <TTGlyph name="edieresis" xMin="16" yMin="-11" xMax="396" yMax="645">
      <component glyphName="e" x="0" y="0" flags="0x204"/>
      <component glyphName="dieresis" x="-4" y="5" flags="0x4"/>
    </TTGlyph>
    <TTGlyph name="edotaccent" xMin="16" yMin="-11" xMax="355" yMax="645">
      <component glyphName="e" x="0" y="0" flags="0x204"/>
      <component glyphName="dotaccent" x="-4" y="5" flags="0x4"/>
    </TTGlyph>
    <TTGlyph name="egrave" xMin="16" yMin="-11" xMax="355" yMax="717">
      <component glyphName="e" x="0" y="0" flags="0x204"/>
      <component glyphName="grave" x="-57" y="5" flags="0x4"/>
    </TTGlyph>
    <TTGlyph name="eight" xMin="13" yMin="-12" xMax="440" yMax="733">
      <contour>
        <pt x="440" y="562" on="1"/>
        <pt x="440" y="499" on="0"/>
        <pt x="383" y="391" on="0"/>
        <pt x="328" y="361" on="1"/>
        <pt x="364" y="333" on="0"/>
        <pt x="396" y="263" on="0"/>
        <pt x="396" y="215" on="1"/>
        <pt x="396" y="174" on="0"/>
        <pt x="365" y="93" on="0"/>
        <pt x="309" y="29" on="0"/>
        <pt x="229" y="-12" on="0"/>
        <pt x="181" y="-12" on="1"/>
        <pt x="142" y="-12" on="0"/>
        <pt x="80" y="14" on="0"/>
        <pt x="36" y="60" on="0"/>
        <pt x="13" y="123" on="0"/>
        <pt x="13" y="161" on="1"/>
        <pt x="13" y="224" on="0"/>
        <pt x="72" y="339" on="0"/>
        <pt x="134" y="369" on="1"/>
        <pt x="109" y="393" on="0"/>
        <pt x="75" y="460" on="0"/>
        <pt x="75" y="511" on="1"/>
        <pt x="75" y="551" on="0"/>
        <pt x="102" y="631" on="0"/>
        <pt x="153" y="694" on="0"/>
        <pt x="228" y="733" on="0"/>
        <pt x="276" y="733" on="1"/>
        <pt x="314" y="733" on="0"/>
        <pt x="375" y="706" on="0"/>
        <pt x="417" y="659" on="0"/>
        <pt x="440" y="597" on="0"/>
      </contour>
      <contour>
        <pt x="311" y="556" on="1"/>
        <pt x="311" y="588" on="0"/>
        <pt x="292" y="622" on="0"/>
        <pt x="272" y="622" on="1"/>
        <pt x="254" y="622" on="0"/>
        <pt x="229" y="593" on="0"/>
        <pt x="212" y="550" on="0"/>
        <pt x="204" y="501" on="0"/>
        <pt x="204" y="481" on="1"/>
        <pt x="204" y="449" on="0"/>
        <pt x="223" y="415" on="0"/>
        <pt x="243" y="415" on="1"/>
        <pt x="261" y="415" on="0"/>
        <pt x="286" y="444" on="0"/>
        <pt x="303" y="487" on="0"/>
        <pt x="311" y="536" on="0"/>
      </contour>
      <contour>
        <pt x="260" y="240" on="1"/>
        <pt x="260" y="275" on="0"/>
        <pt x="238" y="307" on="0"/>
        <pt x="220" y="307" on="1"/>
        <pt x="202" y="307" on="0"/>
        <pt x="175" y="277" on="0"/>
        <pt x="157" y="234" on="0"/>
        <pt x="149" y="185" on="0"/>
        <pt x="149" y="166" on="1"/>
        <pt x="149" y="131" on="0"/>
        <pt x="171" y="99" on="0"/>
        <pt x="189" y="99" on="1"/>
        <pt x="207" y="99" on="0"/>
        <pt x="234" y="129" on="0"/>
        <pt x="252" y="172" on="0"/>
        <pt x="260" y="221" on="0"/>
      </contour>
    </TTGlyph>
    <TTGlyph name="eight.lin" xMin="13" yMin="-12" xMax="440" yMax="733">
      <contour>
        <pt x="181" y="-12" on="1"/>
        <pt x="142" y="-12" on="0"/>
        <pt x="80" y="14" on="0"/>
        <pt x="36" y="60" on="0"/>
        <pt x="13" y="123" on="0"/>
        <pt x="13" y="161" on="1"/>
        <pt x="13" y="224" on="0"/>
        <pt x="72" y="339" on="0"/>
        <pt x="134" y="369" on="1"/>
        <pt x="109" y="393" on="0"/>
        <pt x="75" y="460" on="0"/>
        <pt x="75" y="511" on="1"/>
        <pt x="75" y="551" on="0"/>
        <pt x="102" y="631" on="0"/>
        <pt x="153" y="694" on="0"/>
        <pt x="228" y="733" on="0"/>
        <pt x="276" y="733" on="1"/>
        <pt x="314" y="733" on="0"/>
        <pt x="375" y="706" on="0"/>
        <pt x="417" y="659" on="0"/>
        <pt x="440" y="597" on="0"/>
        <pt x="440" y="562" on="1"/>
        <pt x="440" y="499" on="0"/>
        <pt x="383" y="391" on="0"/>
        <pt x="328" y="361" on="1"/>
        <pt x="364" y="333" on="0"/>
        <pt x="396" y="263" on="0"/>
        <pt x="396" y="215" on="1"/>
        <pt x="396" y="174" on="0"/>
        <pt x="365" y="93" on="0"/>
        <pt x="309" y="29" on="0"/>
        <pt x="229" y="-12" on="0"/>
      </contour>
      <contour>
        <pt x="260" y="240" on="1"/>
        <pt x="260" y="275" on="0"/>
        <pt x="238" y="307" on="0"/>
        <pt x="220" y="307" on="1"/>
        <pt x="202" y="307" on="0"/>
        <pt x="175" y="277" on="0"/>
        <pt x="157" y="234" on="0"/>
        <pt x="149" y="185" on="0"/>
        <pt x="149" y="166" on="1"/>
        <pt x="149" y="131" on="0"/>
        <pt x="171" y="99" on="0"/>
        <pt x="189" y="99" on="1"/>
        <pt x="207" y="99" on="0"/>
        <pt x="234" y="129" on="0"/>
        <pt x="252" y="172" on="0"/>
        <pt x="260" y="221" on="0"/>
      </contour>
      <contour>
        <pt x="311" y="556" on="1"/>
        <pt x="311" y="588" on="0"/>
        <pt x="292" y="622" on="0"/>
        <pt x="272" y="622" on="1"/>
        <pt x="254" y="622" on="0"/>
        <pt x="229" y="593" on="0"/>
        <pt x="212" y="550" on="0"/>
        <pt x="204" y="501" on="0"/>
        <pt x="204" y="481" on="1"/>
        <pt x="204" y="449" on="0"/>
        <pt x="223" y="415" on="0"/>
        <pt x="243" y="415" on="1"/>
        <pt x="261" y="415" on="0"/>
        <pt x="286" y="444" on="0"/>
        <pt x="303" y="487" on="0"/>
        <pt x="311" y="536" on="0"/>
      </contour>
    </TTGlyph>
    <TTGlyph name="ellipsis" xMin="4" yMin="-11" xMax="552" yMax="139">
      <contour>
        <pt x="150" y="70" on="1"/>
        <pt x="150" y="53" on="0"/>
        <pt x="137" y="24" on="0"/>
        <pt x="116" y="2" on="0"/>
        <pt x="87" y="-11" on="0"/>
        <pt x="72" y="-11" on="1"/>
        <pt x="40" y="-11" on="0"/>
        <pt x="4" y="28" on="0"/>
        <pt x="4" y="58" on="1"/>
        <pt x="4" y="74" on="0"/>
        <pt x="17" y="104" on="0"/>
        <pt x="38" y="126" on="0"/>
        <pt x="67" y="139" on="0"/>
        <pt x="82" y="139" on="1"/>
        <pt x="114" y="139" on="0"/>
        <pt x="150" y="100" on="0"/>
      </contour>
      <contour>
        <pt x="351" y="70" on="1"/>
        <pt x="351" y="53" on="0"/>
        <pt x="338" y="24" on="0"/>
        <pt x="317" y="2" on="0"/>
        <pt x="288" y="-11" on="0"/>
        <pt x="273" y="-11" on="1"/>
        <pt x="241" y="-11" on="0"/>
        <pt x="205" y="28" on="0"/>
        <pt x="205" y="58" on="1"/>
        <pt x="205" y="74" on="0"/>
        <pt x="218" y="104" on="0"/>
        <pt x="239" y="126" on="0"/>
        <pt x="268" y="139" on="0"/>
        <pt x="283" y="139" on="1"/>
        <pt x="315" y="139" on="0"/>
        <pt x="351" y="100" on="0"/>
      </contour>
      <contour>
        <pt x="552" y="70" on="1"/>
        <pt x="552" y="53" on="0"/>
        <pt x="539" y="24" on="0"/>
        <pt x="518" y="2" on="0"/>
        <pt x="489" y="-11" on="0"/>
        <pt x="474" y="-11" on="1"/>
        <pt x="442" y="-11" on="0"/>
        <pt x="406" y="28" on="0"/>
        <pt x="406" y="58" on="1"/>
        <pt x="406" y="74" on="0"/>
        <pt x="419" y="104" on="0"/>
        <pt x="440" y="126" on="0"/>
        <pt x="469" y="139" on="0"/>
        <pt x="484" y="139" on="1"/>
        <pt x="516" y="139" on="0"/>
        <pt x="552" y="100" on="0"/>
      </contour>
    </TTGlyph>
    <TTGlyph name="emacron" xMin="16" yMin="-11" xMax="377" yMax="605">
      <component glyphName="e" x="0" y="0" flags="0x204"/>
      <component glyphName="macron" x="-4" y="5" flags="0x4"/>
    </TTGlyph>
    <TTGlyph name="emdash" xMin="29" yMin="230" xMax="433" yMax="312">
      <contour>
        <pt x="419" y="230" on="1"/>
        <pt x="29" y="230" on="1"/>
        <pt x="43" y="312" on="1"/>
        <pt x="433" y="312" on="1"/>
      </contour>
    </TTGlyph>
    <TTGlyph name="emdash.cap" xMin="47" yMin="330" xMax="451" yMax="412">
      <component glyphName="emdash" x="18" y="100" flags="0x204"/>
    </TTGlyph>
    <TTGlyph name="endash" xMin="29" yMin="230" xMax="283" yMax="312">
      <contour>
        <pt x="269" y="230" on="1"/>
        <pt x="29" y="230" on="1"/>
        <pt x="43" y="312" on="1"/>
        <pt x="283" y="312" on="1"/>
      </contour>
    </TTGlyph>
    <TTGlyph name="endash.cap" xMin="47" yMin="330" xMax="301" yMax="412">
      <component glyphName="endash" x="18" y="100" flags="0x204"/>
    </TTGlyph>
    <TTGlyph name="eogonek" xMin="16" yMin="-197" xMax="355" yMax="484">
      <contour>
        <pt x="274" y="-162" on="1"/>
        <pt x="256" y="-177" on="0"/>
        <pt x="207" y="-197" on="0"/>
        <pt x="177" y="-197" on="1"/>
        <pt x="142" y="-197" on="0"/>
        <pt x="107" y="-161" on="0"/>
        <pt x="107" y="-133" on="1"/>
        <pt x="107" y="-98" on="0"/>
        <pt x="144" y="-38" on="0"/>
        <pt x="173" y="-11" on="1"/>
        <pt x="100" y="-9" on="0"/>
        <pt x="16" y="86" on="0"/>
        <pt x="16" y="168" on="1"/>
        <pt x="16" y="227" on="0"/>
        <pt x="47" y="340" on="0"/>
        <pt x="103" y="429" on="0"/>
        <pt x="180" y="484" on="0"/>
        <pt x="227" y="484" on="1"/>
        <pt x="260" y="484" on="0"/>
        <pt x="309" y="460" on="0"/>
        <pt x="340" y="417" on="0"/>
        <pt x="355" y="358" on="0"/>
        <pt x="355" y="323" on="1"/>
        <pt x="355" y="293" on="0"/>
        <pt x="340" y="223" on="0"/>
        <pt x="332" y="196" on="1"/>
        <pt x="131" y="196" on="1"/>
        <pt x="130" y="190" on="0"/>
        <pt x="130" y="177" on="0"/>
        <pt x="130" y="170" on="1"/>
        <pt x="130" y="135" on="0"/>
        <pt x="167" y="97" on="0"/>
        <pt x="200" y="97" on="1"/>
        <pt x="225" y="97" on="0"/>
        <pt x="268" y="113" on="0"/>
        <pt x="280" y="118" on="1"/>
        <pt x="282" y="17" on="1"/>
        <pt x="265" y="4" on="0"/>
        <pt x="233" y="-25" on="0"/>
        <pt x="208" y="-55" on="0"/>
        <pt x="193" y="-85" on="0"/>
        <pt x="193" y="-100" on="1"/>
        <pt x="193" y="-129" on="0"/>
        <pt x="223" y="-129" on="1"/>
        <pt x="233" y="-129" on="0"/>
        <pt x="255" y="-121" on="0"/>
        <pt x="263" y="-116" on="1"/>
      </contour>
      <contour>
        <pt x="243" y="271" on="1"/>
        <pt x="245" y="283" on="0"/>
        <pt x="249" y="313" on="0"/>
        <pt x="249" y="327" on="1"/>
        <pt x="249" y="347" on="0"/>
        <pt x="237" y="379" on="0"/>
        <pt x="219" y="379" on="1"/>
        <pt x="205" y="379" on="0"/>
        <pt x="183" y="361" on="0"/>
        <pt x="164" y="331" on="0"/>
        <pt x="149" y="292" on="0"/>
        <pt x="144" y="271" on="1"/>
      </contour>
    </TTGlyph>
    <TTGlyph name="equal" xMin="35" yMin="236" xMax="316" yMax="506">
      <contour>
        <pt x="268" y="236" on="1"/>
        <pt x="35" y="236" on="1"/>
        <pt x="51" y="326" on="1"/>
        <pt x="284" y="326" on="1"/>
      </contour>
      <contour>
        <pt x="300" y="416" on="1"/>
        <pt x="67" y="416" on="1"/>
        <pt x="83" y="506" on="1"/>
        <pt x="316" y="506" on="1"/>
      </contour>
    </TTGlyph>
    <TTGlyph name="equal.lin" xMin="35" yMin="236" xMax="316" yMax="506">
      <component glyphName="equal" x="0" y="0" flags="0x204"/>
    </TTGlyph>
    <TTGlyph name="eth" xMin="11" yMin="-10" xMax="378" yMax="750">
      <contour>
        <pt x="305" y="615" on="1"/>
        <pt x="329" y="564" on="0"/>
        <pt x="363" y="438" on="0"/>
        <pt x="363" y="361" on="1"/>
        <pt x="363" y="300" on="0"/>
        <pt x="339" y="169" on="0"/>
        <pt x="288" y="60" on="0"/>
        <pt x="210" y="-10" on="0"/>
        <pt x="156" y="-10" on="1"/>
        <pt x="85" y="-10" on="0"/>
        <pt x="11" y="87" on="0"/>
        <pt x="11" y="174" on="1"/>
        <pt x="11" y="234" on="0"/>
        <pt x="38" y="336" on="0"/>
        <pt x="85" y="410" on="0"/>
        <pt x="147" y="452" on="0"/>
        <pt x="183" y="452" on="1"/>
        <pt x="202" y="452" on="0"/>
        <pt x="233" y="440" on="0"/>
        <pt x="243" y="431" on="1"/>
        <pt x="238" y="462" on="0"/>
        <pt x="218" y="522" on="0"/>
        <pt x="204" y="550" on="1"/>
        <pt x="129" y="501" on="1"/>
        <pt x="85" y="570" on="1"/>
        <pt x="163" y="621" on="1"/>
        <pt x="151" y="640" on="0"/>
        <pt x="130" y="669" on="0"/>
        <pt x="124" y="677" on="1"/>
        <pt x="218" y="750" on="1"/>
        <pt x="228" y="738" on="0"/>
        <pt x="251" y="707" on="0"/>
        <pt x="264" y="687" on="1"/>
        <pt x="334" y="732" on="1"/>
        <pt x="378" y="663" on="1"/>
      </contour>
      <contour>
        <pt x="241" y="301" on="1"/>
        <pt x="241" y="328" on="0"/>
        <pt x="226" y="365" on="0"/>
        <pt x="206" y="365" on="1"/>
        <pt x="192" y="365" on="0"/>
        <pt x="168" y="341" on="0"/>
        <pt x="150" y="302" on="0"/>
        <pt x="137" y="255" on="0"/>
        <pt x="128" y="209" on="0"/>
        <pt x="124" y="170" on="0"/>
        <pt x="124" y="159" on="1"/>
        <pt x="124" y="132" on="0"/>
        <pt x="139" y="95" on="0"/>
        <pt x="159" y="95" on="1"/>
        <pt x="181" y="95" on="0"/>
        <pt x="212" y="147" on="0"/>
        <pt x="232" y="216" on="0"/>
        <pt x="241" y="284" on="0"/>
      </contour>
    </TTGlyph>
    <TTGlyph name="exclam" xMin="4" yMin="-11" xMax="261" yMax="733">
      <contour>
        <pt x="140" y="217" on="1"/>
        <pt x="63" y="217" on="1"/>
        <pt x="123" y="733" on="1"/>
        <pt x="261" y="733" on="1"/>
      </contour>
      <contour>
        <pt x="150" y="70" on="1"/>
        <pt x="150" y="53" on="0"/>
        <pt x="137" y="24" on="0"/>
        <pt x="116" y="2" on="0"/>
        <pt x="87" y="-11" on="0"/>
        <pt x="72" y="-11" on="1"/>
        <pt x="40" y="-11" on="0"/>
        <pt x="4" y="28" on="0"/>
        <pt x="4" y="58" on="1"/>
        <pt x="4" y="74" on="0"/>
        <pt x="17" y="104" on="0"/>
        <pt x="38" y="126" on="0"/>
        <pt x="67" y="139" on="0"/>
        <pt x="82" y="139" on="1"/>
        <pt x="114" y="139" on="0"/>
        <pt x="150" y="100" on="0"/>
      </contour>
    </TTGlyph>
    <TTGlyph name="exclamdown" xMin="-3" yMin="0" xMax="254" yMax="744">
      <contour>
        <pt x="254" y="675" on="1"/>
        <pt x="254" y="658" on="0"/>
        <pt x="241" y="629" on="0"/>
        <pt x="220" y="607" on="0"/>
        <pt x="191" y="594" on="0"/>
        <pt x="176" y="594" on="1"/>
        <pt x="144" y="594" on="0"/>
        <pt x="108" y="633" on="0"/>
        <pt x="108" y="663" on="1"/>
        <pt x="108" y="679" on="0"/>
        <pt x="121" y="709" on="0"/>
        <pt x="142" y="731" on="0"/>
        <pt x="171" y="744" on="0"/>
        <pt x="186" y="744" on="1"/>
        <pt x="218" y="744" on="0"/>
        <pt x="254" y="705" on="0"/>
      </contour>
      <contour>
        <pt x="135" y="0" on="1"/>
        <pt x="-3" y="0" on="1"/>
        <pt x="118" y="516" on="1"/>
        <pt x="195" y="516" on="1"/>
      </contour>
    </TTGlyph>
    <TTGlyph name="f" xMin="-12" yMin="-186" xMax="350" yMax="740">
      <contour>
        <pt x="320" y="615" on="1"/>
        <pt x="312" y="620" on="0"/>
        <pt x="292" y="625" on="0"/>
        <pt x="285" y="625" on="1"/>
        <pt x="272" y="625" on="0"/>
        <pt x="249" y="611" on="0"/>
        <pt x="244" y="583" on="1"/>
        <pt x="224" y="473" on="1"/>
        <pt x="292" y="473" on="1"/>
        <pt x="273" y="366" on="1"/>
        <pt x="205" y="366" on="1"/>
        <pt x="108" y="-186" on="1"/>
        <pt x="-12" y="-186" on="1"/>
        <pt x="85" y="366" on="1"/>
        <pt x="32" y="366" on="1"/>
        <pt x="47" y="449" on="1"/>
        <pt x="104" y="475" on="1"/>
        <pt x="125" y="594" on="1"/>
        <pt x="138" y="670" on="0"/>
        <pt x="205" y="740" on="0"/>
        <pt x="264" y="740" on="1"/>
        <pt x="306" y="740" on="0"/>
        <pt x="350" y="718" on="1"/>
      </contour>
    </TTGlyph>
    <TTGlyph name="f_f" xMin="-8" yMin="-186" xMax="565" yMax="740">
      <contour>
        <pt x="307" y="619" on="1"/>
        <pt x="301" y="621" on="0"/>
        <pt x="288" y="625" on="0"/>
        <pt x="282" y="625" on="1"/>
        <pt x="272" y="625" on="0"/>
        <pt x="253" y="611" on="0"/>
        <pt x="249" y="588" on="1"/>
        <pt x="228" y="473" on="1"/>
        <pt x="314" y="473" on="1"/>
        <pt x="319" y="475" on="1"/>
        <pt x="340" y="594" on="1"/>
        <pt x="353" y="670" on="0"/>
        <pt x="420" y="740" on="0"/>
        <pt x="479" y="740" on="1"/>
        <pt x="521" y="740" on="0"/>
        <pt x="565" y="718" on="1"/>
        <pt x="535" y="615" on="1"/>
        <pt x="527" y="619" on="0"/>
        <pt x="505" y="625" on="0"/>
        <pt x="497" y="625" on="1"/>
        <pt x="484" y="625" on="0"/>
        <pt x="464" y="611" on="0"/>
        <pt x="460" y="588" on="1"/>
        <pt x="439" y="473" on="1"/>
        <pt x="507" y="473" on="1"/>
        <pt x="488" y="366" on="1"/>
        <pt x="420" y="366" on="1"/>
        <pt x="323" y="-186" on="1"/>
        <pt x="203" y="-186" on="1"/>
        <pt x="300" y="366" on="1"/>
        <pt x="209" y="366" on="1"/>
        <pt x="112" y="-186" on="1"/>
        <pt x="-8" y="-186" on="1"/>
        <pt x="89" y="366" on="1"/>
        <pt x="36" y="366" on="1"/>
        <pt x="51" y="449" on="1"/>
        <pt x="108" y="475" on="1"/>
        <pt x="129" y="594" on="1"/>
        <pt x="142" y="670" on="0"/>
        <pt x="209" y="740" on="0"/>
        <pt x="268" y="740" on="1"/>
        <pt x="278" y="740" on="0"/>
        <pt x="313" y="734" on="0"/>
        <pt x="330" y="724" on="1"/>
      </contour>
    </TTGlyph>
    <TTGlyph name="f_f_i" xMin="-8" yMin="-186" xMax="690" yMax="740">
      <contour>
        <pt x="518" y="619" on="1"/>
        <pt x="512" y="621" on="0"/>
        <pt x="499" y="625" on="0"/>
        <pt x="493" y="625" on="1"/>
        <pt x="483" y="625" on="0"/>
        <pt x="464" y="611" on="0"/>
        <pt x="460" y="588" on="1"/>
        <pt x="439" y="473" on="1"/>
        <pt x="499" y="473" on="1"/>
        <pt x="481" y="366" on="1"/>
        <pt x="420" y="366" on="1"/>
        <pt x="323" y="-186" on="1"/>
        <pt x="203" y="-186" on="1"/>
        <pt x="300" y="366" on="1"/>
        <pt x="209" y="366" on="1"/>
        <pt x="112" y="-186" on="1"/>
        <pt x="-8" y="-186" on="1"/>
        <pt x="89" y="366" on="1"/>
        <pt x="36" y="366" on="1"/>
        <pt x="51" y="449" on="1"/>
        <pt x="108" y="475" on="1"/>
        <pt x="129" y="594" on="1"/>
        <pt x="142" y="670" on="0"/>
        <pt x="209" y="740" on="0"/>
        <pt x="268" y="740" on="1"/>
        <pt x="278" y="740" on="0"/>
        <pt x="313" y="734" on="0"/>
        <pt x="330" y="724" on="1"/>
        <pt x="307" y="619" on="1"/>
        <pt x="301" y="621" on="0"/>
        <pt x="288" y="625" on="0"/>
        <pt x="282" y="625" on="1"/>
        <pt x="272" y="625" on="0"/>
        <pt x="253" y="611" on="0"/>
        <pt x="249" y="588" on="1"/>
        <pt x="228" y="473" on="1"/>
        <pt x="314" y="473" on="1"/>
        <pt x="319" y="475" on="1"/>
        <pt x="340" y="594" on="1"/>
        <pt x="353" y="670" on="0"/>
        <pt x="420" y="740" on="0"/>
        <pt x="479" y="740" on="1"/>
        <pt x="489" y="740" on="0"/>
        <pt x="524" y="734" on="0"/>
        <pt x="541" y="724" on="1"/>
      </contour>
      <contour>
        <pt x="571" y="0" on="1"/>
        <pt x="447" y="0" on="1"/>
        <pt x="530" y="473" on="1"/>
        <pt x="654" y="473" on="1"/>
      </contour>
      <contour>
        <pt x="690" y="619" on="1"/>
        <pt x="690" y="581" on="0"/>
        <pt x="643" y="530" on="0"/>
        <pt x="608" y="530" on="1"/>
        <pt x="576" y="530" on="0"/>
        <pt x="541" y="572" on="0"/>
        <pt x="541" y="599" on="1"/>
        <pt x="541" y="637" on="0"/>
        <pt x="588" y="688" on="0"/>
        <pt x="623" y="688" on="1"/>
        <pt x="655" y="688" on="0"/>
        <pt x="690" y="646" on="0"/>
      </contour>
    </TTGlyph>
    <TTGlyph name="f_f_l" xMin="-8" yMin="-186" xMax="701" yMax="740">
      <contour>
        <pt x="518" y="619" on="1"/>
        <pt x="512" y="621" on="0"/>
        <pt x="499" y="625" on="0"/>
        <pt x="493" y="625" on="1"/>
        <pt x="483" y="625" on="0"/>
        <pt x="464" y="611" on="0"/>
        <pt x="460" y="588" on="1"/>
        <pt x="439" y="473" on="1"/>
        <pt x="499" y="473" on="1"/>
        <pt x="481" y="366" on="1"/>
        <pt x="420" y="366" on="1"/>
        <pt x="323" y="-186" on="1"/>
        <pt x="203" y="-186" on="1"/>
        <pt x="300" y="366" on="1"/>
        <pt x="209" y="366" on="1"/>
        <pt x="112" y="-186" on="1"/>
        <pt x="-8" y="-186" on="1"/>
        <pt x="89" y="366" on="1"/>
        <pt x="36" y="366" on="1"/>
        <pt x="51" y="449" on="1"/>
        <pt x="108" y="475" on="1"/>
        <pt x="129" y="594" on="1"/>
        <pt x="142" y="670" on="0"/>
        <pt x="209" y="740" on="0"/>
        <pt x="268" y="740" on="1"/>
        <pt x="278" y="740" on="0"/>
        <pt x="313" y="734" on="0"/>
        <pt x="330" y="724" on="1"/>
        <pt x="307" y="619" on="1"/>
        <pt x="301" y="621" on="0"/>
        <pt x="288" y="625" on="0"/>
        <pt x="282" y="625" on="1"/>
        <pt x="272" y="625" on="0"/>
        <pt x="253" y="611" on="0"/>
        <pt x="249" y="588" on="1"/>
        <pt x="228" y="473" on="1"/>
        <pt x="314" y="473" on="1"/>
        <pt x="319" y="475" on="1"/>
        <pt x="340" y="594" on="1"/>
        <pt x="353" y="670" on="0"/>
        <pt x="420" y="740" on="0"/>
        <pt x="479" y="740" on="1"/>
        <pt x="489" y="740" on="0"/>
        <pt x="524" y="734" on="0"/>
        <pt x="541" y="724" on="1"/>
      </contour>
      <contour>
        <pt x="571" y="0" on="1"/>
        <pt x="447" y="0" on="1"/>
        <pt x="577" y="733" on="1"/>
        <pt x="701" y="733" on="1"/>
      </contour>
    </TTGlyph>
    <TTGlyph name="fi" xMin="-8" yMin="-186" xMax="477" yMax="740">
      <contour>
        <pt x="304" y="620" on="1"/>
        <pt x="301" y="622" on="0"/>
        <pt x="288" y="625" on="0"/>
        <pt x="282" y="625" on="1"/>
        <pt x="272" y="625" on="0"/>
        <pt x="253" y="611" on="0"/>
        <pt x="249" y="588" on="1"/>
        <pt x="228" y="473" on="1"/>
        <pt x="286" y="473" on="1"/>
        <pt x="267" y="366" on="1"/>
        <pt x="209" y="366" on="1"/>
        <pt x="112" y="-186" on="1"/>
        <pt x="-8" y="-186" on="1"/>
        <pt x="89" y="366" on="1"/>
        <pt x="36" y="366" on="1"/>
        <pt x="51" y="449" on="1"/>
        <pt x="108" y="475" on="1"/>
        <pt x="129" y="594" on="1"/>
        <pt x="142" y="670" on="0"/>
        <pt x="209" y="740" on="0"/>
        <pt x="268" y="740" on="1"/>
        <pt x="278" y="740" on="0"/>
        <pt x="315" y="732" on="0"/>
        <pt x="332" y="722" on="1"/>
      </contour>
      <contour>
        <pt x="358" y="0" on="1"/>
        <pt x="234" y="0" on="1"/>
        <pt x="317" y="473" on="1"/>
        <pt x="441" y="473" on="1"/>
      </contour>
      <contour>
        <pt x="477" y="619" on="1"/>
        <pt x="477" y="581" on="0"/>
        <pt x="430" y="530" on="0"/>
        <pt x="395" y="530" on="1"/>
        <pt x="363" y="530" on="0"/>
        <pt x="328" y="572" on="0"/>
        <pt x="328" y="599" on="1"/>
        <pt x="328" y="637" on="0"/>
        <pt x="375" y="688" on="0"/>
        <pt x="410" y="688" on="1"/>
        <pt x="442" y="688" on="0"/>
        <pt x="477" y="646" on="0"/>
      </contour>
    </TTGlyph>
    <TTGlyph name="five" xMin="-1" yMin="-10" xMax="430" yMax="723">
      <contour>
        <pt x="407" y="595" on="1"/>
        <pt x="238" y="595" on="1"/>
        <pt x="214" y="458" on="1"/>
        <pt x="219" y="459" on="0"/>
        <pt x="231" y="460" on="0"/>
        <pt x="238" y="460" on="1"/>
        <pt x="268" y="460" on="0"/>
        <pt x="320" y="434" on="0"/>
        <pt x="358" y="386" on="0"/>
        <pt x="380" y="317" on="0"/>
        <pt x="380" y="275" on="1"/>
        <pt x="380" y="212" on="0"/>
        <pt x="343" y="107" on="0"/>
        <pt x="277" y="32" on="0"/>
        <pt x="186" y="-10" on="0"/>
        <pt x="132" y="-10" on="1"/>
        <pt x="107" y="-10" on="0"/>
        <pt x="35" y="1" on="0"/>
        <pt x="-1" y="19" on="1"/>
        <pt x="34" y="140" on="1"/>
        <pt x="82" y="116" on="0"/>
        <pt x="120" y="116" on="1"/>
        <pt x="150" y="116" on="0"/>
        <pt x="194" y="141" on="0"/>
        <pt x="222" y="180" on="0"/>
        <pt x="236" y="227" on="0"/>
        <pt x="236" y="250" on="1"/>
        <pt x="236" y="303" on="0"/>
        <pt x="180" y="348" on="0"/>
        <pt x="141" y="348" on="1"/>
        <pt x="121" y="348" on="0"/>
        <pt x="94" y="344" on="0"/>
        <pt x="79" y="340" on="1"/>
        <pt x="69" y="349" on="1"/>
        <pt x="135" y="723" on="1"/>
        <pt x="430" y="723" on="1"/>
      </contour>
    </TTGlyph>
    <TTGlyph name="five.lin" xMin="-1" yMin="-10" xMax="430" yMax="723">
      <contour>
        <pt x="407" y="595" on="1"/>
        <pt x="238" y="595" on="1"/>
        <pt x="214" y="458" on="1"/>
        <pt x="219" y="459" on="0"/>
        <pt x="231" y="460" on="0"/>
        <pt x="238" y="460" on="1"/>
        <pt x="268" y="460" on="0"/>
        <pt x="320" y="434" on="0"/>
        <pt x="358" y="386" on="0"/>
        <pt x="380" y="317" on="0"/>
        <pt x="380" y="275" on="1"/>
        <pt x="380" y="212" on="0"/>
        <pt x="343" y="107" on="0"/>
        <pt x="277" y="32" on="0"/>
        <pt x="186" y="-10" on="0"/>
        <pt x="132" y="-10" on="1"/>
        <pt x="107" y="-10" on="0"/>
        <pt x="35" y="1" on="0"/>
        <pt x="-1" y="19" on="1"/>
        <pt x="34" y="140" on="1"/>
        <pt x="82" y="116" on="0"/>
        <pt x="120" y="116" on="1"/>
        <pt x="150" y="116" on="0"/>
        <pt x="194" y="141" on="0"/>
        <pt x="222" y="180" on="0"/>
        <pt x="236" y="227" on="0"/>
        <pt x="236" y="250" on="1"/>
        <pt x="236" y="303" on="0"/>
        <pt x="180" y="348" on="0"/>
        <pt x="141" y="348" on="1"/>
        <pt x="121" y="348" on="0"/>
        <pt x="94" y="344" on="0"/>
        <pt x="79" y="340" on="1"/>
        <pt x="69" y="349" on="1"/>
        <pt x="135" y="723" on="1"/>
        <pt x="430" y="723" on="1"/>
      </contour>
    </TTGlyph>
    <TTGlyph name="fl" xMin="-8" yMin="-186" xMax="488" yMax="740">
      <contour>
        <pt x="358" y="0" on="1"/>
        <pt x="234" y="0" on="1"/>
        <pt x="364" y="733" on="1"/>
        <pt x="488" y="733" on="1"/>
      </contour>
      <contour>
        <pt x="304" y="620" on="1"/>
        <pt x="301" y="622" on="0"/>
        <pt x="288" y="625" on="0"/>
        <pt x="282" y="625" on="1"/>
        <pt x="272" y="625" on="0"/>
        <pt x="253" y="611" on="0"/>
        <pt x="249" y="588" on="1"/>
        <pt x="228" y="473" on="1"/>
        <pt x="286" y="473" on="1"/>
        <pt x="267" y="366" on="1"/>
        <pt x="209" y="366" on="1"/>
        <pt x="112" y="-186" on="1"/>
        <pt x="-8" y="-186" on="1"/>
        <pt x="89" y="366" on="1"/>
        <pt x="36" y="366" on="1"/>
        <pt x="51" y="449" on="1"/>
        <pt x="108" y="475" on="1"/>
        <pt x="129" y="594" on="1"/>
        <pt x="142" y="670" on="0"/>
        <pt x="209" y="740" on="0"/>
        <pt x="268" y="740" on="1"/>
        <pt x="278" y="740" on="0"/>
        <pt x="315" y="732" on="0"/>
        <pt x="332" y="722" on="1"/>
      </contour>
    </TTGlyph>
    <TTGlyph name="florin" xMin="5" yMin="0" xMax="400" yMax="733">
      <contour>
        <pt x="367" y="601" on="1"/>
        <pt x="358" y="605" on="0"/>
        <pt x="337" y="610" on="0"/>
        <pt x="328" y="610" on="1"/>
        <pt x="312" y="610" on="0"/>
        <pt x="288" y="590" on="0"/>
        <pt x="280" y="559" on="1"/>
        <pt x="259" y="476" on="1"/>
        <pt x="328" y="476" on="1"/>
        <pt x="300" y="363" on="1"/>
        <pt x="230" y="363" on="1"/>
        <pt x="137" y="0" on="1"/>
        <pt x="5" y="0" on="1"/>
        <pt x="99" y="363" on="1"/>
        <pt x="44" y="363" on="1"/>
        <pt x="64" y="452" on="1"/>
        <pt x="127" y="478" on="1"/>
        <pt x="156" y="594" on="1"/>
        <pt x="166" y="634" on="0"/>
        <pt x="197" y="688" on="0"/>
        <pt x="236" y="720" on="0"/>
        <pt x="282" y="733" on="0"/>
        <pt x="308" y="733" on="1"/>
        <pt x="323" y="733" on="0"/>
        <pt x="352" y="728" on="0"/>
        <pt x="377" y="721" on="0"/>
        <pt x="395" y="714" on="0"/>
        <pt x="400" y="712" on="1"/>
      </contour>
    </TTGlyph>
    <TTGlyph name="florin.lin" xMin="5" yMin="0" xMax="400" yMax="733">
      <contour>
        <pt x="367" y="601" on="1"/>
        <pt x="358" y="605" on="0"/>
        <pt x="337" y="610" on="0"/>
        <pt x="328" y="610" on="1"/>
        <pt x="312" y="610" on="0"/>
        <pt x="288" y="590" on="0"/>
        <pt x="280" y="559" on="1"/>
        <pt x="259" y="476" on="1"/>
        <pt x="328" y="476" on="1"/>
        <pt x="300" y="363" on="1"/>
        <pt x="230" y="363" on="1"/>
        <pt x="137" y="0" on="1"/>
        <pt x="5" y="0" on="1"/>
        <pt x="99" y="363" on="1"/>
        <pt x="44" y="363" on="1"/>
        <pt x="64" y="452" on="1"/>
        <pt x="127" y="478" on="1"/>
        <pt x="156" y="594" on="1"/>
        <pt x="166" y="634" on="0"/>
        <pt x="197" y="688" on="0"/>
        <pt x="236" y="720" on="0"/>
        <pt x="282" y="733" on="0"/>
        <pt x="308" y="733" on="1"/>
        <pt x="323" y="733" on="0"/>
        <pt x="352" y="728" on="0"/>
        <pt x="377" y="721" on="0"/>
        <pt x="395" y="714" on="0"/>
        <pt x="400" y="712" on="1"/>
      </contour>
    </TTGlyph>
    <TTGlyph name="four" xMin="-2" yMin="0" xMax="443" yMax="725">
      <contour>
        <pt x="390" y="136" on="1"/>
        <pt x="339" y="136" on="1"/>
        <pt x="315" y="0" on="1"/>
        <pt x="193" y="0" on="1"/>
        <pt x="217" y="136" on="1"/>
        <pt x="-2" y="136" on="1"/>
        <pt x="20" y="258" on="1"/>
        <pt x="322" y="725" on="1"/>
        <pt x="443" y="725" on="1"/>
        <pt x="362" y="263" on="1"/>
        <pt x="413" y="263" on="1"/>
      </contour>
      <contour>
        <pt x="282" y="489" on="1"/>
        <pt x="136" y="259" on="1"/>
        <pt x="240" y="259" on="1"/>
      </contour>
    </TTGlyph>
    <TTGlyph name="four.lin" xMin="-2" yMin="0" xMax="443" yMax="725">
      <contour>
        <pt x="390" y="136" on="1"/>
        <pt x="339" y="136" on="1"/>
        <pt x="315" y="0" on="1"/>
        <pt x="193" y="0" on="1"/>
        <pt x="217" y="136" on="1"/>
        <pt x="-2" y="136" on="1"/>
        <pt x="20" y="258" on="1"/>
        <pt x="322" y="725" on="1"/>
        <pt x="443" y="725" on="1"/>
        <pt x="362" y="263" on="1"/>
        <pt x="413" y="263" on="1"/>
      </contour>
      <contour>
        <pt x="282" y="489" on="1"/>
        <pt x="136" y="259" on="1"/>
        <pt x="240" y="259" on="1"/>
      </contour>
    </TTGlyph>
    <TTGlyph name="fraction" xMin="16" yMin="-17" xMax="541" yMax="757">
      <contour>
        <pt x="63" y="-17" on="1"/>
        <pt x="16" y="17" on="1"/>
        <pt x="496" y="757" on="1"/>
        <pt x="541" y="723" on="1"/>
      </contour>
    </TTGlyph>
    <TTGlyph name="fraction.lin" xMin="16" yMin="-17" xMax="541" yMax="757">
      <contour>
        <pt x="63" y="-17" on="1"/>
        <pt x="16" y="17" on="1"/>
        <pt x="496" y="757" on="1"/>
        <pt x="541" y="723" on="1"/>
      </contour>
    </TTGlyph>
    <TTGlyph name="g" xMin="11" yMin="-197" xMax="396" yMax="480">
      <contour>
        <pt x="304" y="-55" on="1"/>
        <pt x="296" y="-97" on="0"/>
        <pt x="269" y="-152" on="0"/>
        <pt x="229" y="-184" on="0"/>
        <pt x="176" y="-197" on="0"/>
        <pt x="142" y="-197" on="1"/>
        <pt x="110" y="-197" on="0"/>
        <pt x="47" y="-181" on="0"/>
        <pt x="21" y="-173" on="1"/>
        <pt x="41" y="-76" on="1"/>
        <pt x="58" y="-81" on="0"/>
        <pt x="103" y="-93" on="0"/>
        <pt x="123" y="-93" on="1"/>
        <pt x="149" y="-93" on="0"/>
        <pt x="177" y="-70" on="0"/>
        <pt x="182" y="-41" on="1"/>
        <pt x="195" y="32" on="1"/>
        <pt x="169" y="6" on="0"/>
        <pt x="125" y="-7" on="0"/>
        <pt x="112" y="-7" on="1"/>
        <pt x="64" y="-7" on="0"/>
        <pt x="11" y="80" on="0"/>
        <pt x="11" y="152" on="1"/>
        <pt x="11" y="210" on="0"/>
        <pt x="34" y="327" on="0"/>
        <pt x="79" y="421" on="0"/>
        <pt x="145" y="480" on="0"/>
        <pt x="189" y="480" on="1"/>
        <pt x="217" y="480" on="0"/>
        <pt x="257" y="453" on="0"/>
        <pt x="272" y="432" on="1"/>
        <pt x="279" y="473" on="1"/>
        <pt x="396" y="473" on="1"/>
      </contour>
      <contour>
        <pt x="254" y="367" on="1"/>
        <pt x="246" y="373" on="0"/>
        <pt x="231" y="380" on="0"/>
        <pt x="220" y="380" on="1"/>
        <pt x="197" y="380" on="0"/>
        <pt x="164" y="327" on="0"/>
        <pt x="143" y="253" on="0"/>
        <pt x="133" y="175" on="0"/>
        <pt x="133" y="150" on="1"/>
        <pt x="133" y="115" on="0"/>
        <pt x="158" y="97" on="0"/>
        <pt x="169" y="97" on="1"/>
        <pt x="179" y="97" on="0"/>
        <pt x="198" y="105" on="0"/>
        <pt x="209" y="110" on="1"/>
      </contour>
    </TTGlyph>
    <TTGlyph name="gbreve" xMin="11" yMin="-197" xMax="412" yMax="654">
      <component glyphName="g" x="0" y="0" flags="0x204"/>
      <component glyphName="breve" x="9" y="5" flags="0x4"/>
    </TTGlyph>
    <TTGlyph name="gcommaaccent" xMin="11" yMin="-197" xMax="396" yMax="760">
      <contour>
        <pt x="304" y="-55" on="1"/>
        <pt x="296" y="-97" on="0"/>
        <pt x="269" y="-152" on="0"/>
        <pt x="229" y="-184" on="0"/>
        <pt x="176" y="-197" on="0"/>
        <pt x="142" y="-197" on="1"/>
        <pt x="110" y="-197" on="0"/>
        <pt x="47" y="-181" on="0"/>
        <pt x="21" y="-173" on="1"/>
        <pt x="41" y="-76" on="1"/>
        <pt x="58" y="-81" on="0"/>
        <pt x="103" y="-93" on="0"/>
        <pt x="123" y="-93" on="1"/>
        <pt x="149" y="-93" on="0"/>
        <pt x="177" y="-70" on="0"/>
        <pt x="182" y="-41" on="1"/>
        <pt x="195" y="32" on="1"/>
        <pt x="169" y="6" on="0"/>
        <pt x="125" y="-7" on="0"/>
        <pt x="112" y="-7" on="1"/>
        <pt x="64" y="-7" on="0"/>
        <pt x="11" y="80" on="0"/>
        <pt x="11" y="152" on="1"/>
        <pt x="11" y="210" on="0"/>
        <pt x="34" y="327" on="0"/>
        <pt x="79" y="421" on="0"/>
        <pt x="145" y="480" on="0"/>
        <pt x="189" y="480" on="1"/>
        <pt x="217" y="480" on="0"/>
        <pt x="257" y="453" on="0"/>
        <pt x="272" y="432" on="1"/>
        <pt x="279" y="473" on="1"/>
        <pt x="396" y="473" on="1"/>
      </contour>
      <contour>
        <pt x="254" y="367" on="1"/>
        <pt x="246" y="373" on="0"/>
        <pt x="231" y="380" on="0"/>
        <pt x="220" y="380" on="1"/>
        <pt x="197" y="380" on="0"/>
        <pt x="164" y="327" on="0"/>
        <pt x="143" y="253" on="0"/>
        <pt x="133" y="175" on="0"/>
        <pt x="133" y="150" on="1"/>
        <pt x="133" y="115" on="0"/>
        <pt x="158" y="97" on="0"/>
        <pt x="169" y="97" on="1"/>
        <pt x="179" y="97" on="0"/>
        <pt x="198" y="105" on="0"/>
        <pt x="209" y="110" on="1"/>
      </contour>
      <contour>
        <pt x="205" y="587" on="1"/>
        <pt x="205" y="614" on="0"/>
        <pt x="233" y="668" on="0"/>
        <pt x="276" y="714" on="0"/>
        <pt x="328" y="750" on="0"/>
        <pt x="353" y="760" on="1"/>
        <pt x="365" y="741" on="1"/>
        <pt x="342" y="725" on="0"/>
        <pt x="313" y="697" on="0"/>
        <pt x="295" y="673" on="0"/>
        <pt x="285" y="653" on="0"/>
        <pt x="282" y="646" on="1"/>
        <pt x="309" y="643" on="0"/>
        <pt x="340" y="609" on="0"/>
        <pt x="340" y="586" on="1"/>
        <pt x="340" y="571" on="0"/>
        <pt x="329" y="545" on="0"/>
        <pt x="310" y="525" on="0"/>
        <pt x="284" y="513" on="0"/>
        <pt x="270" y="513" on="1"/>
        <pt x="241" y="513" on="0"/>
        <pt x="205" y="552" on="0"/>
      </contour>
    </TTGlyph>
    <TTGlyph name="gdotaccent" xMin="11" yMin="-197" xMax="396" yMax="645">
      <component glyphName="g" x="0" y="0" flags="0x204"/>
      <component glyphName="dotaccent" x="8" y="5" flags="0x4"/>
    </TTGlyph>
    <TTGlyph name="germandbls" xMin="-6" yMin="-95" xMax="441" yMax="740">
      <contour>
        <pt x="310" y="217" on="1"/>
        <pt x="342" y="197" on="0"/>
        <pt x="367" y="137" on="0"/>
        <pt x="367" y="102" on="1"/>
        <pt x="367" y="57" on="0"/>
        <pt x="341" y="-15" on="0"/>
        <pt x="297" y="-67" on="0"/>
        <pt x="236" y="-95" on="0"/>
        <pt x="202" y="-95" on="1"/>
        <pt x="184" y="-95" on="0"/>
        <pt x="144" y="-87" on="0"/>
        <pt x="132" y="-82" on="1"/>
        <pt x="157" y="16" on="1"/>
        <pt x="167" y="9" on="0"/>
        <pt x="184" y="9" on="1"/>
        <pt x="216" y="9" on="0"/>
        <pt x="246" y="63" on="0"/>
        <pt x="246" y="97" on="1"/>
        <pt x="246" y="130" on="0"/>
        <pt x="217" y="167" on="0"/>
        <pt x="185" y="168" on="1"/>
        <pt x="185" y="169" on="1"/>
        <pt x="184" y="181" on="1"/>
        <pt x="276" y="366" on="1"/>
        <pt x="180" y="366" on="1"/>
        <pt x="116" y="0" on="1"/>
        <pt x="-6" y="0" on="1"/>
        <pt x="99" y="594" on="1"/>
        <pt x="113" y="669" on="0"/>
        <pt x="180" y="740" on="0"/>
        <pt x="239" y="740" on="1"/>
        <pt x="281" y="740" on="0"/>
        <pt x="325" y="718" on="1"/>
        <pt x="295" y="615" on="1"/>
        <pt x="287" y="620" on="0"/>
        <pt x="267" y="625" on="0"/>
        <pt x="260" y="625" on="1"/>
        <pt x="247" y="625" on="0"/>
        <pt x="224" y="611" on="0"/>
        <pt x="219" y="583" on="1"/>
        <pt x="199" y="473" on="1"/>
        <pt x="437" y="473" on="1"/>
        <pt x="441" y="461" on="1"/>
      </contour>
    </TTGlyph>
    <TTGlyph name="grave" xMin="162" yMin="513" xMax="364" yMax="712">
      <contour>
        <pt x="318" y="513" on="1"/>
        <pt x="162" y="629" on="1"/>
        <pt x="233" y="712" on="1"/>
        <pt x="364" y="563" on="1"/>
      </contour>
    </TTGlyph>
    <TTGlyph name="greater" xMin="8" yMin="121" xMax="284" yMax="606">
      <contour>
        <pt x="66" y="121" on="1"/>
        <pt x="8" y="199" on="1"/>
        <pt x="162" y="361" on="1"/>
        <pt x="63" y="546" on="1"/>
        <pt x="149" y="606" on="1"/>
        <pt x="284" y="353" on="1"/>
      </contour>
    </TTGlyph>
    <TTGlyph name="greater.lin" xMin="8" yMin="121" xMax="284" yMax="606">
      <component glyphName="greater" x="0" y="0" flags="0x204"/>
    </TTGlyph>
    <TTGlyph name="guillemotleft" xMin="26" yMin="60" xMax="399" yMax="387">
      <contour>
        <pt x="306" y="224" on="1"/>
        <pt x="341" y="60" on="1"/>
        <pt x="226" y="60" on="1"/>
        <pt x="192" y="224" on="1"/>
        <pt x="284" y="387" on="1"/>
        <pt x="399" y="387" on="1"/>
      </contour>
      <contour>
        <pt x="140" y="224" on="1"/>
        <pt x="175" y="60" on="1"/>
        <pt x="60" y="60" on="1"/>
        <pt x="26" y="224" on="1"/>
        <pt x="118" y="387" on="1"/>
        <pt x="233" y="387" on="1"/>
      </contour>
    </TTGlyph>
    <TTGlyph name="guillemotleft.cap" xMin="52" yMin="207" xMax="425" yMax="534">
      <component glyphName="guillemotleft" x="26" y="147" flags="0x204"/>
    </TTGlyph>
    <TTGlyph name="guillemotright" xMin="-16" yMin="60" xMax="357" yMax="387">
      <contour>
        <pt x="265" y="60" on="1"/>
        <pt x="150" y="60" on="1"/>
        <pt x="243" y="223" on="1"/>
        <pt x="208" y="387" on="1"/>
        <pt x="323" y="387" on="1"/>
        <pt x="357" y="223" on="1"/>
      </contour>
      <contour>
        <pt x="99" y="60" on="1"/>
        <pt x="-16" y="60" on="1"/>
        <pt x="77" y="223" on="1"/>
        <pt x="42" y="387" on="1"/>
        <pt x="157" y="387" on="1"/>
        <pt x="191" y="223" on="1"/>
      </contour>
    </TTGlyph>
    <TTGlyph name="guillemotright.cap" xMin="10" yMin="207" xMax="383" yMax="534">
      <component glyphName="guillemotright" x="26" y="147" flags="0x204"/>
    </TTGlyph>
    <TTGlyph name="guilsinglleft" xMin="24" yMin="60" xMax="231" yMax="387">
      <contour>
        <pt x="138" y="224" on="1"/>
        <pt x="173" y="60" on="1"/>
        <pt x="58" y="60" on="1"/>
        <pt x="24" y="224" on="1"/>
        <pt x="116" y="387" on="1"/>
        <pt x="231" y="387" on="1"/>
      </contour>
    </TTGlyph>
    <TTGlyph name="guilsinglleft.cap" xMin="49" yMin="207" xMax="256" yMax="534">
      <component glyphName="guilsinglleft" x="25" y="147" flags="0x204"/>
    </TTGlyph>
    <TTGlyph name="guilsinglright" xMin="-7" yMin="60" xMax="200" yMax="387">
      <contour>
        <pt x="108" y="60" on="1"/>
        <pt x="-7" y="60" on="1"/>
        <pt x="86" y="223" on="1"/>
        <pt x="51" y="387" on="1"/>
        <pt x="166" y="387" on="1"/>
        <pt x="200" y="223" on="1"/>
      </contour>
    </TTGlyph>
    <TTGlyph name="guilsinglright.cap" xMin="19" yMin="207" xMax="226" yMax="534">
      <component glyphName="guilsinglright" x="26" y="147" flags="0x204"/>
    </TTGlyph>
    <TTGlyph name="h" xMin="-7" yMin="0" xMax="390" yMax="733">
      <contour>
        <pt x="390" y="399" on="1"/>
        <pt x="390" y="383" on="0"/>
        <pt x="387" y="367" on="1"/>
        <pt x="322" y="0" on="1"/>
        <pt x="198" y="0" on="1"/>
        <pt x="257" y="334" on="1"/>
        <pt x="259" y="342" on="0"/>
        <pt x="259" y="351" on="0"/>
        <pt x="259" y="353" on="1"/>
        <pt x="259" y="362" on="0"/>
        <pt x="248" y="375" on="0"/>
        <pt x="234" y="375" on="1"/>
        <pt x="220" y="375" on="0"/>
        <pt x="193" y="362" on="0"/>
        <pt x="179" y="352" on="1"/>
        <pt x="117" y="0" on="1"/>
        <pt x="-7" y="0" on="1"/>
        <pt x="122" y="733" on="1"/>
        <pt x="246" y="733" on="1"/>
        <pt x="189" y="410" on="1"/>
        <pt x="218" y="445" on="0"/>
        <pt x="271" y="484" on="0"/>
        <pt x="309" y="484" on="1"/>
        <pt x="348" y="484" on="0"/>
        <pt x="390" y="439" on="0"/>
      </contour>
    </TTGlyph>
    <TTGlyph name="hbar" xMin="-7" yMin="0" xMax="390" yMax="733">
      <contour>
        <pt x="390" y="399" on="1"/>
        <pt x="390" y="383" on="0"/>
        <pt x="387" y="367" on="1"/>
        <pt x="322" y="0" on="1"/>
        <pt x="198" y="0" on="1"/>
        <pt x="257" y="334" on="1"/>
        <pt x="259" y="342" on="0"/>
        <pt x="259" y="351" on="0"/>
        <pt x="259" y="353" on="1"/>
        <pt x="259" y="362" on="0"/>
        <pt x="248" y="375" on="0"/>
        <pt x="234" y="375" on="1"/>
        <pt x="220" y="375" on="0"/>
        <pt x="193" y="362" on="0"/>
        <pt x="179" y="352" on="1"/>
        <pt x="117" y="0" on="1"/>
        <pt x="-7" y="0" on="1"/>
        <pt x="88" y="543" on="1"/>
        <pt x="54" y="543" on="1"/>
        <pt x="73" y="647" on="1"/>
        <pt x="107" y="647" on="1"/>
        <pt x="122" y="733" on="1"/>
        <pt x="246" y="733" on="1"/>
        <pt x="231" y="647" on="1"/>
        <pt x="323" y="647" on="1"/>
        <pt x="304" y="543" on="1"/>
        <pt x="212" y="543" on="1"/>
        <pt x="189" y="410" on="1"/>
        <pt x="218" y="445" on="0"/>
        <pt x="271" y="484" on="0"/>
        <pt x="309" y="484" on="1"/>
        <pt x="348" y="484" on="0"/>
        <pt x="390" y="439" on="0"/>
      </contour>
    </TTGlyph>
</ttFont>
